<svg id="Layer_1" data-name="Layer 1" xmlns="http://www.w3.org/2000/svg" viewBox="0 0 454 250">
  <defs>
    <style>
      .cls-1 {
        fill: #0cbcf6;
      }

      .cls-2 {
        fill: #0bd45e;
      }

      .cls-3 {
        opacity: 0.4;
      }

      .cls-12, .cls-13, .cls-4, .cls-7, .cls-8 {
        fill: none;
        stroke-miterlimit: 10;
      }

      .cls-12, .cls-4, .cls-7 {
        stroke: #000;
      }

      .cls-4 {
        stroke-width: 6px;
      }

      .cls-12, .cls-5, .cls-7, .cls-9 {
        opacity: 0.6;
      }

      .cls-5, .cls-6 {
        font-size: 49px;
      }

      .cls-11, .cls-5, .cls-6, .cls-9 {
        font-family: NightBits;
      }

      .cls-11, .cls-6 {
        fill: #fff;
      }

      .cls-7, .cls-8 {
        stroke-width: 5.37px;
      }

      .cls-13, .cls-8 {
        stroke: #fff;
      }

      .cls-11, .cls-9 {
        font-size: 40px;
      }

      .cls-10 {
        letter-spacing: 0.02em;
      }

      .cls-12, .cls-13 {
        stroke-width: 4.54px;
      }
    </style>
  </defs>
  <g>
    <path class="cls-1" d="M250,270c-59.8,0-115.95-12.78-158.1-36C50.69,211.32,28,181.48,28,150S50.69,88.68,91.9,66C134.05,42.78,190.2,30,250,30S366,42.78,408.1,66c41.21,22.69,63.9,52.53,63.9,84s-22.69,61.32-63.9,84C366,257.22,309.8,270,250,270Z" transform="translate(-23 -25)"/>
    <path d="M250,35c59,0,114.27,12.56,155.69,35.37,19.63,10.81,34.95,23.28,45.54,37.07C461.69,121.06,467,135.38,467,150s-5.31,28.94-15.77,42.56c-10.59,13.79-25.91,26.26-45.54,37.07C364.27,252.44,309,265,250,265S135.73,252.44,94.31,229.63c-19.63-10.81-34.95-23.28-45.54-37.07C38.31,178.94,33,164.62,33,150s5.31-28.94,15.77-42.56C59.36,93.65,74.68,81.18,94.31,70.37,135.73,47.56,191,35,250,35m0-10C124.63,25,23,81,23,150S124.63,275,250,275s227-56,227-125S375.37,25,250,25Z" transform="translate(-23 -25)"/>
  </g>
  <g>
    <path class="cls-2" d="M200.44,267C100.29,254.53,28,205.68,28,150c0-31.48,22.69-61.32,63.9-84C134.05,42.78,190.19,30,250,30a405.25,405.25,0,0,1,42.36,2.2Z" transform="translate(-23 -25)"/>
    <path d="M250,35c11.87,0,23.69.52,35.3,1.54l-88.09,225c-45.77-6.18-87.07-20.43-117-40.44-15.27-10.21-27.1-21.55-35.16-33.7S33,162.75,33,150c0-14.62,5.31-28.94,15.77-42.57C59.36,93.65,74.68,81.18,94.31,70.37,135.73,47.56,191,35,250,35m0-10C124.63,25,23,81,23,150c0,60.3,77.53,110.62,180.69,122.4L299.39,28A406.27,406.27,0,0,0,250,25Z" transform="translate(-23 -25)"/>
  </g>
  <g class="cls-3">
    <path d="M253.63,34.84c58,0,112.44,12.36,153.2,34.81,19.32,10.63,34.39,22.9,44.81,36.47,10.3,13.4,15.52,27.49,15.52,41.88s-5.22,28.48-15.52,41.88c-10.42,13.57-25.49,25.84-44.81,36.47-40.76,22.45-95.17,34.81-153.2,34.81s-112.44-12.36-153.2-34.81C81.12,215.72,66,203.45,55.62,189.88,45.32,176.48,40.1,162.39,40.1,148s5.22-28.48,15.52-41.88C66,92.55,81.12,80.28,100.43,69.65c40.76-22.45,95.17-34.81,153.2-34.81m0-9.84C130.27,25,30.26,80.07,30.26,148s100,123,223.37,123S477,215.93,477,148,377,25,253.63,25Z" transform="translate(-23 -25)"/>
  </g>
  <line class="cls-4" x1="271" y1="9" x2="179" y2="244"/>
  <text class="cls-5" transform="translate(78.98 109.08)"><tspan xml:space="preserve">GISI  O</tspan></text>
  <text class="cls-6" transform="translate(79.98 106.08)"><tspan xml:space="preserve">GISI  O</tspan></text>
  <line class="cls-7" x1="150.59" y1="122.83" x2="170.36" y2="122.83"/>
  <line class="cls-7" x1="179.15" y1="63.79" x2="179.34" y2="114.71"/>
  <line class="cls-7" x1="193.38" y1="64.42" x2="162.38" y2="64.42"/>
  <circle class="cls-7" cx="142.04" cy="123.15" r="5.06"/>
  <circle class="cls-7" cx="179.15" cy="123.15" r="5.06"/>
  <line class="cls-8" x1="150.59" y1="121.04" x2="170.36" y2="121.04"/>
  <line class="cls-8" x1="179.15" y1="62" x2="179.34" y2="112.92"/>
  <line class="cls-8" x1="193.38" y1="62.63" x2="162.38" y2="62.63"/>
  <circle class="cls-8" cx="142.04" cy="121.36" r="5.06"/>
  <circle class="cls-8" cx="179.15" cy="121.36" r="5.06"/>
  <text id="SCOO_ERS" data-name="SCOO ERS" class="cls-9" transform="translate(192.53 162.78)"><tspan xml:space="preserve">     </tspan><tspan class="cls-10" x="38.4" y="0">SCO</tspan><tspan x="109.2" y="0" xml:space="preserve">O  ERS</tspan></text>
  <text class="cls-11" transform="translate(192.53 159.78)"><tspan xml:space="preserve">     </tspan><tspan class="cls-10" x="38.4" y="0">SCO</tspan><tspan x="109.2" y="0" xml:space="preserve">O  ERS</tspan></text>
  <line class="cls-12" x1="307.85" y1="173.53" x2="324.55" y2="173.53"/>
  <line class="cls-12" x1="331.98" y1="123.65" x2="332.14" y2="166.67"/>
  <line class="cls-12" x1="344" y1="124.19" x2="317.82" y2="124.19"/>
  <circle class="cls-12" cx="300.63" cy="173.79" r="4.27"/>
  <circle class="cls-12" cx="331.98" cy="173.79" r="4.27"/>
  <line class="cls-13" x1="307.85" y1="172.01" x2="324.55" y2="172.01"/>
  <line class="cls-13" x1="331.98" y1="122.14" x2="332.14" y2="165.16"/>
  <line class="cls-13" x1="344" y1="122.67" x2="317.82" y2="122.67"/>
  <circle class="cls-13" cx="300.63" cy="172.28" r="4.27"/>
  <circle class="cls-13" cx="331.98" cy="172.28" r="4.27"/>
</svg>
