<?xml version="1.0" encoding="utf-8"?>
<!-- Generator: Adobe Illustrator 25.2.1, SVG Export Plug-In . SVG Version: 6.00 Build 0)  -->
<svg version="1.1" id="Layer_1" xmlns="http://www.w3.org/2000/svg" xmlns:xlink="http://www.w3.org/1999/xlink" x="0px" y="0px"
	 viewBox="0 0 407.8 98" style="enable-background:new 0 0 407.8 98;" xml:space="preserve">
<style type="text/css">
	.st0{opacity:0.6;}
	.st1{font-family:'NightBits';}
	.st2{font-size:49px;}
	.st3{fill:#231F20;}
	.st4{opacity:0.6;fill:none;stroke:#000000;stroke-width:5.3717;stroke-miterlimit:10;}
	.st5{fill:none;stroke:#00A14B;stroke-width:5.3717;stroke-miterlimit:10;}
	.st6{fill:none;stroke:#1C75BC;stroke-width:5.3717;stroke-miterlimit:10;}
	.st7{opacity:0.6;fill:#231F20;}
</style>
<g>
	<g>
		<text transform="matrix(1 0 0 1 10.6969 62.9544)" class="st0 st1 st2">GISI</text>
		<text transform="matrix(1 0 0 1 11.6969 59.9544)" class="st3 st1 st2">GISI</text>
		<circle class="st4" cx="106.2" cy="78.6" r="5.1"/>
		<circle class="st4" cx="69" cy="78.6" r="5.1"/>
		<line class="st4" x1="77.6" y1="78.5" x2="97.4" y2="78.5"/>
		<line class="st5" x1="77.6" y1="76.7" x2="97.4" y2="76.7"/>
		<circle class="st5" cx="69" cy="77" r="5.1"/>
		<circle class="st5" cx="106.2" cy="77" r="5.1"/>
		<line class="st4" x1="120.4" y1="18.3" x2="89.4" y2="18.3"/>
		<line class="st5" x1="120.4" y1="16.5" x2="89.4" y2="16.5"/>
		<line class="st4" x1="106.2" y1="17.7" x2="106.4" y2="68.6"/>
		<line class="st5" x1="106.2" y1="15.9" x2="106.4" y2="66.8"/>
	</g>
	<g>
		<text id="SCOO_ERS" transform="matrix(1 0 0 1 172.0722 61.6536)" class="st0 st1 st2">SCOO</text>
		<text transform="matrix(1 0 0 1 172.0722 58.6536)" class="st3 st1 st2">SCOO</text>
		<line class="st4" x1="291.9" y1="16.2" x2="292.1" y2="67.1"/>
		<line class="st4" x1="306.1" y1="16.8" x2="275.1" y2="16.8"/>
		<line class="st6" x1="291.9" y1="14.4" x2="292.1" y2="65.3"/>
		<line class="st6" x1="306.1" y1="15" x2="275.1" y2="15"/>
		<line class="st4" x1="263.3" y1="77.1" x2="283.1" y2="77.1"/>
		<line class="st6" x1="263.3" y1="75.3" x2="283.1" y2="75.3"/>
		<circle class="st4" cx="291.7" cy="77.1" r="5.1"/>
		<circle class="st4" cx="254.6" cy="77.1" r="5.1"/>
		<circle class="st6" cx="254.8" cy="75.7" r="5.1"/>
		<circle class="st6" cx="291.9" cy="75.7" r="5.1"/>
	</g>
</g>
<text transform="matrix(1 0 0 1 112.6806 59.9546)" class="st3 st1 st2">O</text>
<text transform="matrix(1 0 0 1 111.0992 61.5361)" class="st7 st1 st2">O</text>
<text transform="matrix(1 0 0 1 296.9251 58.6539)" class="st3 st1 st2">ERS</text>
<text transform="matrix(1 0 0 1 295.4662 60.1128)" class="st7 st1 st2">ERS</text>
</svg>
