<svg xmlns="http://www.w3.org/2000/svg" viewBox="0 0 303.4 96.6">
  <defs>
    <style>
      .a{fill:#1d1d1b}.b{fill:#fff}.c{fill:#ea0029}
    </style>
  </defs>
  <path class="a" d="M292.4 25.3s-205.3.5-205.6 0A44.4 44.4 0 0056.1 4.5a7.4 7.4 0 00-13.5-.1A44.3 44.3 0 005 42.4a7.4 7.4 0 00.3 14A44.4 44.4 0 0042 92a7.4 7.4 0 0013.7 0 44.3 44.3 0 0029.2-17.7c.4-.6 207.5 0 207.5 0 6.2 0 11.1-5.5 11.1-12.3V37.7c0-6.9-5-12.4-11-12.4z"/>
  <path class="b" d="M39.3 27a2.5 2.5 0 011.2 0 2.5 2.5 0 002.3-.7l.1.1a2.5 2.5 0 01.7.2c.6.2 1.4.4 2-.4l.1-.3-.2-.2a1.4 1.4 0 00-1.6-.2 1.3 1.3 0 01-.9 0v.2l-.3-.1a2 2 0 00-.8 0c-.5 0-.5 0-.6-.2l-.1-.2H40.3c-.7 0-1.7 0-2 .8v.3l.8.8zm21.4 27.6a2.3 2.3 0 01-.4 0l-2.2-.2c-2.3-.3-4.8-.6-7 .6l-.5.3.5.4a2.7 2.7 0 001.7.3h.7a3.7 3.7 0 002.9.3 2.7 2.7 0 012.2 0v.1h.1a6.2 6.2 0 003.7-.7l.4-.2-.2-.3c-.5-.7-1.3-.6-1.9-.6zm27-6a3 3 0 00-.7-.7 1.8 1.8 0 00-1.2 0 7.6 7.6 0 010-1.6l-.2-1.3a11.2 11.2 0 00-.2-1.7 22.8 22.8 0 01-.8-3.3c-.4-2.4-.8-4.7-2.6-6.6a18.3 18.3 0 00-2.8-5.1l-.3-.6a10.4 10.4 0 00-2.7-3.2 19.1 19.1 0 00-3.7-4l-2-1.7a1 1 0 01.1-.1 1.4 1.4 0 00.3-.7.7.7 0 000-.2 1 1 0 00-.7-.6l-.3-.1-.6.8a2.2 2.2 0 01-.5 0l-1.5-.9-.5-.5-.1-.1-.6-.2c-.6-.1-.7-.2-.8-.5l-.1-.5-.4.2a2 2 0 01-1.9-.6 3 3 0 00-2.6-.7h-.1a36.2 36.2 0 00-9.8-2.2 2.4 2.4 0 01-.2-.2 6.9 6.9 0 010-.7 6.1 6.1 0 000-.9 2.9 2.9 0 000-.4 1.5 1.5 0 00-1-1.5l-.3-.1-.2.2a2.7 2.7 0 00-.2.4l-.1.2a3.4 3.4 0 00-.2 1.3v.3L48 12l-2.1.2a5.7 5.7 0 00-3.5.4 5.6 5.6 0 01-2.9.6h-.2l-.2.1a4.2 4.2 0 01-2.5 1 4.6 4.6 0 00-3 1.5 15 15 0 00-6.4 3.8l-1 .7-.8 1a38.3 38.3 0 00-3.2 3 18.5 18.5 0 00-4 5q-1 1.6-1.8 3.3h-.1v.2a.7.7 0 010 .2 1 1 0 01-.1.5 1.4 1.4 0 01-.3.3l-.1.1v.1a56.6 56.6 0 00-2.5 7.8 36 36 0 00-.6 4c-.1.6 0 1.4-.2 2a1 1 0 010 .2 4 4 0 01-2 .2c-.9 0-2.1-.1-2.5 1.3l-.2.6h.6a11.4 11.4 0 011.6 0 1 1 0 00.4.5c.5.4 1.6-.1 2 .3.2.3.1 1.4.1 1.8l.7 3.9a40.3 40.3 0 002.9 8.6 35 35 0 001.7 3l1 1.6c.2.4.9 1 1 1.5a4.9 4.9 0 001.5 2.4 4.8 4.8 0 011.2 1.7l.1.1a41.7 41.7 0 005.4 4.2l3 2.3h.1a14 14 0 014 1.9 13 13 0 004 .8l4.8 1v-.1a9.6 9.6 0 012.3.4l1.4.4a.8.8 0 01.4.5v.3c0 .7 0 1.5.6 1.7.3.6.5.4.8 0a6.2 6.2 0 00.6-.7 4.8 4.8 0 000-1.3.8.8 0 01.5-.2h4.6a46 46 0 005.6-2 68 68 0 014.2-1.5h.1a1.4 1.4 0 001 .1 1.6 1.6 0 00.9-.9 5.2 5.2 0 00.9-.2 3.8 3.8 0 011.4 0c1.4 0 3.4.2 3.6-2V80h-.3a3.8 3.8 0 00-1.3 0 2.5 2.5 0 01-1-.1 20.7 20.7 0 005-4.6 34.6 34.6 0 013.5-3.5l.1-.1v-.3-.1c0-.6.4-1 1-1.5a3 3 0 001-2v-.4a15.8 15.8 0 001.7-3 14.3 14.3 0 011.7-3v-.1a37.8 37.8 0 001.3-7.9c0-.6 0-2.2.6-2.6.7-.5 1.7 0 2.2-1 .4-.7 0-1-.6-1.2zM15.2 46a9.1 9.1 0 000-1.1 2.6 2.6 0 000-.5 5.2 5.2 0 00.7-3.3 4.2 4.2 0 01.8-3.1l.2-.2-.1-.3a.8.8 0 010-.3 1 1 0 010-.2c0-.3.2-.6.4-.9l.1-.2a5.6 5.6 0 00.6-1v-.2a3.6 3.6 0 010-.4 11.6 11.6 0 011.2-1.8V32.3a1.4 1.4 0 010-.2 2.3 2.3 0 01.8-1.4 3.3 3.3 0 001-2l.2-.1 1-1.3.8-.9a19.8 19.8 0 016-5c2.3 0 3.8-1.2 6-1.8 1.2-.3 2.7.1 4-.2 1.3-.3 2.3-1 .7-1.9-1.4-.7-5.2.1-6.4.9a27.6 27.6 0 016.2-2.9 8.3 8.3 0 002.7-.4 8.6 8.6 0 012.5-.4h.2a.8.8 0 01.2-.1h.2l.1-.2a7.7 7.7 0 012.2 0h.5v10.8a2.6 2.6 0 01-.4.9l-.2.3.3.2a.8.8 0 01.3.8v.5a4.5 4.5 0 000 .5h-.3v9.1l.2.1v.7l.1 2.2V44.2h-.3v3.7h-3.4a2.5 2.5 0 01-1.3 0 4.3 4.3 0 00-1 0c-5.5.4-11.5.3-17.3.3h-8.6a1 1 0 01-.8-.3 1.2 1.2 0 01-.2-.7 8.6 8.6 0 010-1zm33 29v.6a721.2 721.2 0 000 2.3 36.8 36.8 0 00-.2 4.9v.2a10.4 10.4 0 00-3.3.5 9.3 9.3 0 00-2.2-.3 4.3 4.3 0 00-.8 0H41a1.8 1.8 0 00-1.1-.3 1 1 0 01-.7 0l-2.2-1c-4.8-2.3-9.8-4.6-13-9.3a1.5 1.5 0 000-.2 1.2 1.2 0 00-.2-.6 2.1 2.1 0 00-1.5-.8l-.8-1.3a23 23 0 01-3.5-6.3 12.5 12.5 0 01-2-7.3V56c-.3-.2-.3-.5-.3-.8v-.4-.3a1.8 1.8 0 00-.4-1.2 3.8 3.8 0 000-.5 8 8 0 000-1 6.7 6.7 0 010-.8 1.3 1.3 0 010-.4h32.3l.4 14.1v5.7a3.3 3.3 0 01.1.8v1.5a2.7 2.7 0 00.3 1.4 2.8 2.8 0 00-.1 1zM50 27.8h.2v-.4-.2a7.6 7.6 0 01.1-1.1 8.4 8.4 0 00.1-1.1 3 3 0 00-.1-1V23v-1-.4a.5.5 0 010-.1v-.2-.3a.9.9 0 00.6.1h.1l.2-.1c1-1.2.7-2.8.5-4.2l-.2-1.1-.5.2-.4.1a2.2 2.2 0 01-.1-.8 5.7 5.7 0 00-.1-.6 4.3 4.3 0 011.2-.3l2.4.3 1.1.2 1.1.2a35.1 35.1 0 019.9 4 1.3 1.3 0 00-1.2.8V20a1.5 1.5 0 001.5.9 2 2 0 01.6 0l.2.1h.2a1.6 1.6 0 001-.6l1.6 1.2A35 35 0 0182 38.5v.1l.2.3a21.9 21.9 0 01.5 2.6 19 19 0 00.5 2.6v.1a2 2 0 01.4 1.1 7.4 7.4 0 01-.2 1.3 7.2 7.2 0 00-.1 1.1v.2a36.8 36.8 0 01-4.2 0L76 48h-2l-.3-.2h-.2l-2.7.2H54.3l-.2-.2-4-.1zm33.5 24.5a8.1 8.1 0 00-.2 1.5v.3a26.7 26.7 0 01-.7 3 25.4 25.4 0 00-.7 3.1 1.2 1.2 0 00-.4 1 2.3 2.3 0 000 .2 12.5 12.5 0 01-.6 1.3l-.4.8a39.4 39.4 0 01-3.8 6.7 16.1 16.1 0 01-3.9 4.4 27.4 27.4 0 00-2.8 2.7l-.4.2a4.3 4.3 0 01-2.6.5 3.2 3.2 0 00-2.8 0 2.7 2.7 0 01-2.4 0h-.4v-.2h-1.2a1.4 1.4 0 00-1.7.9l-.1.2.2.2a4 4 0 002.6 1 8.1 8.1 0 011.3.2H64a16.9 16.9 0 00-2.5 1.1 15.5 15.5 0 01-2 .9.7.7 0 00-.5.7l-2.8.9a8 8 0 00-4.4-1.4 8.9 8.9 0 00-1.8.2 10.4 10.4 0 01.2-1.3 10.8 10.8 0 00.2-1.4 3.4 3.4 0 011.8 0c1 .1 2.2.3 2.8-1V78.7c-.7-1.5-2-1.3-3-1.1h-1.4a1.2 1.2 0 01-.3-1 4.4 4.4 0 00.1-1 17.7 17.7 0 00-.1-1.9L50 72a2.8 2.8 0 01.3-1.2v-.1L50 50.9l25.3-.1.1-.2h7.9a7 7 0 01.2 1.6v.1zM46.7 77.8a1.8 1.8 0 00-1.5 0 2.4 2.4 0 01-1.3.2l-.3.8 1 .6a1 1 0 001 0h.1l.1.2v.2h.2a1 1 0 001.2-.4l.3-.3V79a1.7 1.7 0 00-.8-1.1z"/>
  <path class="a" d="M295.7 45v.1c0 .4-.1.8-6 1.5l.2.5a7.4 7.4 0 001 .9 19.8 19.8 0 012 1.5l.6.2h.2v.2l.5.5a2.6 2.6 0 01.6 1.8 10.5 10.5 0 01-.3 2.3v.5l-.1 1v.1l.8.7.3.2-.1.4-1.4 3-1.3 3.1a5.2 5.2 0 01-5.1 3.3h-.6a2.3 2.3 0 00-.6.1l-.8.3h-1.2a1.5 1.5 0 00-.3 0 5 5 0 01-2.3.7 3.7 3.7 0 01-1.7-.4H278.7a20 20 0 01-5.6-3.1l-.5-.4h-.2v-.2l-.2-.6a4 4 0 00-.3.4l-.1.4v.1h-.1l-.3.4c-1.7 1.9-3.3 2.8-5 3a5.2 5.2 0 01-2 0 1.4 1.4 0 00-.2 0l-.6.3h-.4l-.4-.2a3.8 3.8 0 01-1.2.2h-.1a10.3 10.3 0 01-3.6-.7c-.4 0-.9.3-1.5.5h-.3a5.6 5.6 0 01-1.8.4 5.1 5.1 0 01-2.7-.8 2.7 2.7 0 01-1.4.4h-.4a7.1 7.1 0 00-1 .1 11.3 11.3 0 01-1.8.2 5.5 5.5 0 01-1.6-.3 3 3 0 01-2.7-2.1l-.2-.4a7.7 7.7 0 01-1 0l-.6.1-.5.2h-.2l-2.7-.4c-.5 1.2-1.3 2.8-3 3a5.7 5.7 0 01-2.1 0 4.6 4.6 0 01-1 .1h-.5l-1-.3h-.1l-.1-.2-.3-.3a3.3 3.3 0 01-1-2.4 4.8 4.8 0 01.5-2v-.1a4.8 4.8 0 01-.1-1.2v-.7l.2-.7v-.5l.1-.5a6.2 6.2 0 00.1-1 8.2 8.2 0 01.4-2.2v-.2a5 5 0 01.9-2.7V52.8l-.2.2-.4.3-.8.6a2.1 2.1 0 00-.2.3 1.9 1.9 0 01-.8.7 4.5 4.5 0 01-.8.2 3.4 3.4 0 00-.7.1l-1.5.5a2.6 2.6 0 01-.4.1 3 3 0 01.4.4 3.1 3.1 0 01.6 1.8v.4a1.9 1.9 0 01-.5 1.4l-.3.4a6.5 6.5 0 01-1.4 1.2l-.2.1-.7.3v.1h-.7l-.2.2a4.1 4.1 0 01.2 1.2 3.7 3.7 0 010 .6 8.8 8.8 0 01-.9 2.4l-.6 1.4-.2.4h-.4l-1.5-.3a3.7 3.7 0 00-.4 0 6.7 6.7 0 01-2.3.6 4.2 4.2 0 01-1.7-.4h-.1l-1.1.1h-1.3l-.3-.1-.1-.2-.5-.7-.2-.2-.6-.7a4.4 4.4 0 01-1.6-3 5.4 5.4 0 011.2-2.8 2 2 0 00.3-1 1 1 0 000-.3l-.1-.3v-2.6a3.2 3.2 0 00-.4-1.5l-.2-.5h-.1v-.7V52a15.2 15.2 0 000-1.7 2.7 2.7 0 00-.3-.8l-.3-.5v-.9a6.3 6.3 0 011-3 2.2 2.2 0 00.3-1 11.2 11.2 0 01.2-2.1 7.2 7.2 0 00.2-1v-.3a2.4 2.4 0 00-.2-1l-.2-.4v-1.1a12.8 12.8 0 010-1.6 8.6 8.6 0 00.1-.9 1.4 1.4 0 000-.2l-1-2.6-.2-.6h.6l2.8-.4a6.7 6.7 0 00.8-.2 6.9 6.9 0 012-.4 4.2 4.2 0 011.8.5h.8a1.8 1.8 0 01.2 0 6.1 6.1 0 011.7-.3h.7l.6.1.2.1a4.2 4.2 0 011.5 0 4.8 4.8 0 01.6 0 4 4 0 00.4 0 10.9 10.9 0 011.5 0 6 6 0 014.7 1.8l1 .5.3.2a8.7 8.7 0 011 .8v-.3l.2-.4v-.2l.3-.4a4.3 4.3 0 012.5-1.7 3.4 3.4 0 012.6-1 6.6 6.6 0 011.5.1h.1l.6-.3.2-.1h.2l1 .3a1.9 1.9 0 00.9 0l1-.2h.3l.2.1.6.5a3.5 3.5 0 011.3-.2h1.8l.1.3.6 1.1.7 1.3a5.2 5.2 0 01.8 2.5 6.7 6.7 0 01-.4 2 2.1 2.1 0 000 .2l.4.5.1.2v.9l.2.1a4.9 4.9 0 01.5 2 3.1 3.1 0 010 .6c0 .6.2 1 .3 1.5a3.9 3.9 0 01.3-1.3v-.3a5 5 0 000-.7 10.5 10.5 0 01-.3-2 5.4 5.4 0 01.2-1.4l.1-.3-.3-1V37.3l.3-.5a4.6 4.6 0 01-.6-2 3.5 3.5 0 011.9-3 4.6 4.6 0 012.4-.7h.2l1.2.3h.1l.1.1h.8l.1.1.4.2 2-.4a27 27 0 014-.1 6 6 0 013 .7l1.7.3h.2a5.5 5.5 0 012.8 2.1h.1a6.4 6.4 0 011.2.7 6.5 6.5 0 011.2-1.8 7 7 0 013.9-1.7 4.9 4.9 0 001.8-.4l1-.6.1-.2.3.1 1 .4.7-.1h.1a7.4 7.4 0 011.2-.1 4.7 4.7 0 011-.1 5 5 0 012.4.7h1.2a3.7 3.7 0 012 .4l.4.4h.1v.1l.2.3a14 14 0 001.3 1 5.3 5.3 0 011.9 3.2 4 4 0 01.4 1.1 5 5 0 010 .9V39.8l.3.4.1.1v1a3 3 0 01-.2 1 7 7 0 011.2 2.7zm-21 4.8h.2l1.2.1a2.2 2.2 0 00.2 0l.6-.2H277.2l.6.2v-.7a2.5 2.5 0 01-1.2-1.2l-2.2-1v.8a4.2 4.2 0 01.3 1.6v.4zm-73 15.2v1.9l-.3.1-1.5.5a5.2 5.2 0 01-1.6.3 10.4 10.4 0 01-2.1-.3 6.2 6.2 0 00-1-.2.6.6 0 00-.4.1l-.4.3H193.5a4.4 4.4 0 01-3.5-1.6l-.4-.6a5 5 0 01-1.3 1.7l-.5.5-.1.1h-.2l-1.3.2a5 5 0 01-2.6-.5 22.4 22.4 0 01-2.8.1 3.2 3.2 0 01-2.3-1 5.1 5.1 0 01-1 .4l-.3.1-.6.3-.2.1h-.1l-1.7-.3h-.4a3.2 3.2 0 00-.4.2 4.9 4.9 0 01-1.9.4H171l-.4-.1h-.1l-.2-.1-.4-.5h-.1a4.1 4.1 0 01-2.1.7h-1.2l-.1-.1-.5-.4a16 16 0 01-1.8-.2l-.3.1-.5.2h-.2l-2.6-.4h-.5v-.2a5 5 0 01-.7.2l-.3.1-.6.3-.1.1h-.2l-1.6-.3h-.4a3 3 0 00-.4.2 4.9 4.9 0 01-2 .4H152.7l-.3-.1h-.2l-.1-.1-.5-.5a.9.9 0 00-.1 0 4.3 4.3 0 01-2.1.7h-1.1l-.2-.1-.4-.4a16 16 0 01-1.8-.2 3.3 3.3 0 00-.4.1l-.4.2H144.9l-2.6-.4h-.4v-.2a4.7 4.7 0 01-.7.2l-.4.1-.5.3-.2.1h-.2l-1.6-.3h-.4a3 3 0 00-.4.2 5 5 0 01-2 .4h-.8l-.4-.1h-.2v-.1l-.6-.5a4.2 4.2 0 01-2.2.7H130.1l-.5-.5a16.2 16.2 0 01-1.8-.2 2.7 2.7 0 00-.3.1l-.5.2h-.2L124 67h-.4a3.8 3.8 0 01-1.8.3h-.7-.2a5.7 5.7 0 01-1.3.3 6.7 6.7 0 01-1.4-.2l-.3.3-.1.1h-1.1a3.1 3.1 0 01-2-.6l-.3.3-.2.2h-.2l-1-.2h-.4-.4l-1.6.4H108a3.9 3.9 0 01-3.6-2.7 4.2 4.2 0 01-.6-1.8v-.2l-.3-.6v.4a4.1 4.1 0 01.2 1.4l-.3 1.4-.2 1.3v.4h-.5l-2.4-.2-.5.1a7.6 7.6 0 01-2 .4 4.4 4.4 0 01-1.3-.2h-.2a5 5 0 01-1.3 0 3.4 3.4 0 01-3.3-3v-2h-.1v-.7a4.5 4.5 0 01-.1-.6 8 8 0 01.3-2 8 8 0 00.2-1 .8.8 0 000-.2l-.4-.8V57l.2-.7a5.5 5.5 0 000-.7V55v-.4a7 7 0 01.3-1.8 4.7 4.7 0 01-.4-1.6v-3.4a16 16 0 000-2l-.2-.6V45l.4-.6a2.1 2.1 0 00.2-1l-.6-1v-.2-.4a2.2 2.2 0 01.4-1.4 3.8 3.8 0 01-.2-1v-.2a9.9 9.9 0 01.2-1.6 6.2 6.2 0 000-.8v-.5a7.4 7.4 0 01-.2-1.5 4 4 0 01.2-1.4l.1-.2.2-.2A3.3 3.3 0 0195 31l1 .1h.5a7.2 7.2 0 001.3-.2 11 11 0 012.6-.5 3.8 3.8 0 012.3.9l1 .7.2.2v.3l-.2 1a8.2 8.2 0 011.7-1l.7-.4a3 3 0 012.6-1.4 8.3 8.3 0 011.5.2 4.7 4.7 0 00.6.1h.3l.4-.2H113.3a3.3 3.3 0 012 .6v-.1h.2l.5-.1a19.6 19.6 0 013.4-.3 23.4 23.4 0 014.7.4l.3.1h.1l.1.1a6.8 6.8 0 013.4-.6 4.9 4.9 0 00.9-.2 8.6 8.6 0 012.2-.4 6.2 6.2 0 013.8 1.3c2.7 1 3 2.9 3 3.7a4.1 4.1 0 01-.8 2.4l-.2.2v.1l-.3.2a6.6 6.6 0 00-1 .8 4.6 4.6 0 01.2 1.2 15.3 15.3 0 01-.1 2l-.1 1.1 1 5.3v.3l-.2.2-.8.6a4.9 4.9 0 01.2 1.2 9.8 9.8 0 01-.2 1.7 6.3 6.3 0 000 .7v1.1a3.5 3.5 0 012.5 1.1 3.8 3.8 0 011.2 2.3l2.3.2a4 4 0 01.2-.7 18.5 18.5 0 01-.1-2.2 1 1 0 000-.4l-.4-.4h-.1v-.2l-.2-1a3.7 3.7 0 010-.5 5.2 5.2 0 01.5-2l-.3-.5-.2-.2.1-.2.4-1a2 2 0 000-.7 7.8 7.8 0 000-1 12.7 12.7 0 01-.2-1.8v-.1a5.4 5.4 0 01.5-2.2 4.3 4.3 0 01-.5-1.7 4.5 4.5 0 01.3-1.5h-.1v-1.3l-.2-4.2.1-.8v-.7l.1-.2.2-.2.7-.5c.8-.7 1.9-1 3.8-1a5.4 5.4 0 00.8-.1 8.4 8.4 0 012.2-.4 6.2 6.2 0 013.9 1.3c2.7 1 3 2.9 3 3.7a4 4 0 01-.8 2.4l-.2.2v.1h-.1l-.3.2a6.8 6.8 0 00-.9.8 4.8 4.8 0 01.2 1.2 15.7 15.7 0 01-.2 2v1.1c0 .7 1 5.3 1 5.3v.3l-.3.2-.7.6a5 5 0 01.2 1.2 10 10 0 01-.2 1.7 4.8 4.8 0 000 .7v1.1a3.5 3.5 0 012.5 1.1 3.7 3.7 0 011.2 2.3h.6l1.6.2a3.7 3.7 0 01.2-.8v-2.1a.7.7 0 00-.1-.4l-.4-.4v-.2l-.2-1a3.7 3.7 0 010-.5 5.3 5.3 0 01.4-2v-.1l-.2-.5v-.4l.2-.7a3.2 3.2 0 000-.9 10.2 10.2 0 000-1.1 15.8 15.8 0 01-.1-1.7v-.1a5.4 5.4 0 01.4-2.2 4.2 4.2 0 01-.4-1.7 4.9 4.9 0 01.4-1.8l-.2-.2V38.1v-.4-1.2l-.2-2.3a3 3 0 011.2-2.4 6 6 0 013.8-.8 5.3 5.3 0 00.7-.2 8 8 0 012.2-.4 6.3 6.3 0 013.2.9l.5-.1h1.1l.6.3a13.3 13.3 0 001.3.5 7.2 7.2 0 011.7-.4 3.3 3.3 0 012.8.7l.4-.5v-.1h.3l.8-.2a25.8 25.8 0 016.3-.4 4.6 4.6 0 011.6-.4 9 9 0 012.7.6 5 5 0 001.1.2 1.3 1.3 0 00.3 0l.4-.1h.2l2.1.4.5.1h.1l.2.2 1.5.6a5.3 5.3 0 012.8 2.7 9.3 9.3 0 00.8 1.5l.1.1.2.3a4.5 4.5 0 01.3 1.7 10.8 10.8 0 01-.2 1.9 6 6 0 00-.1 1V43a3.3 3.3 0 01-1.7 2.3v.5a4.1 4.1 0 01-1.2 3l.2.2a1.4 1.4 0 011.1 1.5 1.8 1.8 0 01-.1.8 2.8 2.8 0 00.1.7 8.2 8.2 0 01.2 1.8v.3a3 3 0 011.5 2.4 1.6 1.6 0 000 .5l.2.4v.5a6.4 6.4 0 01-.3 1.6v.4l.2 1a9.4 9.4 0 01.3 2.4v.4a3 3 0 01.2 1.2zm-25-7.4a10.3 10.3 0 01.4-2.1 8.9 8.9 0 01-.5-2.6 7.3 7.3 0 01.3-1.8 5.6 5.6 0 01-1.2.5l-.2.3a5.8 5.8 0 01-4 1.8v.4a4 4 0 012.7 1.3 3.9 3.9 0 011 1.5l.2.6 1.3.1zM171.6 42h.1a10.6 10.6 0 013.7.7 7.7 7.7 0 011.5.7 33.1 33.1 0 01-.1-3.4h-.2l-.2.2-1 .4-.2.2h-1.5l-.2-.1h-.1l-.2-.1-1-.5-.5.3-.1 1.6zm-58.8 5.1a4 4 0 01.2-1v-.2a9.4 9.4 0 01-1 1.7 2.7 2.7 0 00-.4.7 2.6 2.6 0 01-.5 1.5v.4l-.2.5a6 6 0 01.6 1.2 3.3 3.3 0 01.2-.4 2.3 2.3 0 01.6-1.1 2.5 2.5 0 01.2-1.1 2.8 2.8 0 010-.8 3.1 3.1 0 01.3-1.4z"/>
  <path class="c" d="M92 41.8a1.6 1.6 0 01.3-1.2l.1-.2a3.3 3.3 0 01-.2-1v-.2a9 9 0 01.2-1.5 6.3 6.3 0 00.1-.9 3.5 3.5 0 000-.6 7.2 7.2 0 01-.3-1.4 3.7 3.7 0 01.2-1.2v-.2l.2-.2a2.8 2.8 0 012.5-1.6l1 .1h.4a6.3 6.3 0 001.5-.2 10.3 10.3 0 012.5-.4 3.3 3.3 0 012 .7l1 .7-.2 1.3a11.4 11.4 0 00-.1 1.6v2a3.4 3.4 0 00.3.4v-.4a5.7 5.7 0 01-.2-1.4c0-1.7 1.4-2.4 2.5-3l.7-.4a2.5 2.5 0 012.3-1.3 8 8 0 011.4.2 4.6 4.6 0 00.7.1 2.4 2.4 0 00.5 0l.4-.3h1.5a2.7 2.7 0 012 .8l.3-.2.5-.1a18.8 18.8 0 013.3-.3 22.4 22.4 0 014.6.4l.3.1.2.2a.4.4 0 01.1 0 5.7 5.7 0 013.4-.7 4.3 4.3 0 001-.2 8 8 0 012-.4 5.7 5.7 0 013.7 1.3c2.3.8 2.7 2.3 2.7 3.2a3.6 3.6 0 01-.7 2l-.2.3-.2.2a5.6 5.6 0 00-1.2 1v.1a4.5 4.5 0 01.2 1.3 14.6 14.6 0 01-.1 1.9l-.2 1.2 1 5.4-1 .8.1.2a4.6 4.6 0 01.2 1.2 9.4 9.4 0 01-.2 1.6 6.1 6.1 0 000 .8V55a2.8 2.8 0 00.4 0 3 3 0 012.2 1 3.6 3.6 0 011.2 2.3l3.2.4v-.2a3.3 3.3 0 01.2-1 17.6 17.6 0 01-.1-2.3 1.1 1.1 0 00-.2-.7l-.4-.4-.1-1v-.4a4.8 4.8 0 01.5-1.9v-.2l-.4-.7.3-1a2.5 2.5 0 00.2-.8 7.5 7.5 0 00-.1-1.1 12.4 12.4 0 01-.2-1.7v-.1a4.8 4.8 0 01.5-2.2 1.3 1.3 0 000-.1 4 4 0 01-.5-1.6 4.5 4.5 0 01.4-1.7l-.2-.1v-1l-.2-4.2.1-.8v-.7l.8-.5c.7-.6 1.7-.8 3.5-.8a4.3 4.3 0 001-.2 8 8 0 012-.4 5.6 5.6 0 013.6 1.3c2.4.8 2.8 2.3 2.8 3.2a3.6 3.6 0 01-.7 2l-.2.3-.3.2a5.8 5.8 0 00-1.1 1v.1a4.7 4.7 0 01.2 1.3 15 15 0 01-.2 1.9v1.2l1 5.4-1 .8v.2a4.8 4.8 0 01.2 1.2 9.2 9.2 0 01-.2 1.6 5.1 5.1 0 000 .8V55a2.9 2.9 0 00.4 0 3 3 0 012.2 1 3.6 3.6 0 011.1 2.3l3.2.4v-.2a3.2 3.2 0 01.2-1.1 21 21 0 010-2.2 1 1 0 00-.2-.7l-.4-.4-.1-1a3.1 3.1 0 010-.4 4.8 4.8 0 01.3-1.8l.2-.4-.4-.6.3-.8a3.6 3.6 0 000-1 11.7 11.7 0 000-1.2 14.4 14.4 0 01-.1-1.6v-.1a4.9 4.9 0 01.5-2.2.6.6 0 000-.1 4 4 0 01-.5-1.6 4.7 4.7 0 01.4-1.8v-.1l-.3-.4v-.8-.5-1.3l-.1-2.2a2.4 2.4 0 011-2 5.5 5.5 0 013.5-.7 4 4 0 00.9-.2 7.6 7.6 0 012-.4 5.8 5.8 0 013.1.9l.7-.1h.8l.5.3a12.6 12.6 0 001.5.5 1.8 1.8 0 01.2.1 6.5 6.5 0 011.7-.5 2.8 2.8 0 012.5.6l.3.3.2-.2.5-.7h.8a25.4 25.4 0 016.3-.5 4.2 4.2 0 011.5-.3 8.6 8.6 0 012.6.4 5 5 0 001.2.3 1.7 1.7 0 00.4 0l.4-.1 2.1.4.5.1.1.1 1.6.7a4.9 4.9 0 012.5 2.4 10 10 0 001 1.6V37.5a4 4 0 01.4 1.5 9.7 9.7 0 01-.2 1.8 6.2 6.2 0 00-.1 1V43a3 3 0 01-1.7 2.1v.8a3.6 3.6 0 01-1.4 3l.7.7c.6 0 .8.6.8 1l-.1.5v.4a3.9 3.9 0 00.1.7 7.6 7.6 0 01.2 1.7v.5a2.6 2.6 0 011.5 2.2 2 2 0 000 .7l.2.3v.4a6 6 0 01-.2 1.5l-.1.5a6.7 6.7 0 00.2 1.2 9 9 0 01.3 2.2v.5a2.5 2.5 0 01.2 1v1.6l-1.4.5a4.8 4.8 0 01-1.5.3 10.1 10.1 0 01-2-.3 6.5 6.5 0 00-1.2-.2 1 1 0 00-.5.2l-.5.3h-.6a3.9 3.9 0 01-3-1.6l-.5-.5V64a1.7 1.7 0 00-.1-.2 3.8 3.8 0 01-.9-2.1 2 2 0 010-.3v1a2.4 2.4 0 000 .8l.3.4v.5a3.7 3.7 0 01-1.3 2.6l-.6.5-1.2.2a4.6 4.6 0 01-2.5-.6 20.6 20.6 0 01-3 .2 2.8 2.8 0 01-2-1 4.3 4.3 0 01-1.3.4l-.4.1-.7.4-1.7-.3h-.5a2.7 2.7 0 00-.5.2 4.4 4.4 0 01-1.7.4h-.7l-.5-.1-.5-.5-.3-.1a.7.7 0 00-.4 0 3.7 3.7 0 01-1.8.7h-1l-.5-.5a1.1 1.1 0 00-.3 0 13.6 13.6 0 01-1.8-.2 3.3 3.3 0 00-.5.1l-.4.2-2.7-.4V66a4.2 4.2 0 01-1.3.5l-.4.1-.6.4-1.7-.3h-.5a2.6 2.6 0 00-.5.2 4.4 4.4 0 01-1.7.4h-.8l-.5-.1-.5-.5-.3-.1a1 1 0 00-.4.1 3.8 3.8 0 01-1.8.6h-1l-.5-.5a.8.8 0 00-.3 0 13.6 13.6 0 01-1.7-.2 3.1 3.1 0 00-.5.1l-.5.2-2.6-.4V66a4.3 4.3 0 01-1.3.5l-.5.1-.6.4-1.7-.3h-.5a3.4 3.4 0 00-.5.2 4.4 4.4 0 01-1.7.4h-.8l-.4-.1-.5-.5-.4-.1a.9.9 0 00-.3.1 3.8 3.8 0 01-1.9.6h-.9l-.6-.5a1 1 0 00-.2 0 13.3 13.3 0 01-1.8-.2 4 4 0 00-.5.1l-.5.2-2.6-.4V66a3 3 0 01-2.3 1h-1a5.1 5.1 0 01-1.2.2 6.1 6.1 0 01-1.3-.2h-.3l-.4.4h-1a2.6 2.6 0 01-1.8-.8l-.7.6-1.1-.1h-.3a2.6 2.6 0 00-.7 0l-1.5.4H108a3.4 3.4 0 01-3.2-2.4 3.6 3.6 0 01-.6-1.6V63a6.2 6.2 0 01-.8-2.3l-.3 1.3a7.4 7.4 0 00-.3 1.1 3.6 3.6 0 01.3 1.3l-.3 1.3-.2 1.3-2.4-.2a3.6 3.6 0 00-.6.1 7 7 0 01-2 .4 4 4 0 01-1.2-.3h-.2a5 5 0 01-1.3 0 3 3 0 01-2.8-2.5v-1.7l-.1-.4V62a3.6 3.6 0 01-.1-.6 7.6 7.6 0 01.3-2 7 7 0 00.2-1 1.1 1.1 0 00-.1-.4l-.3-.7.2-.8a4.4 4.4 0 000-.8V55v-.4a6.2 6.2 0 01.3-1.8 4.6 4.6 0 01-.4-1.6v-3.4a16.2 16.2 0 000-2l-.2-.7.3-.6a2.5 2.5 0 00.3-1.1.4.4 0 000-.3l-.7-1.1v-.3m19.7 11.5a2.6 2.6 0 01.6-1.6 1.8 1.8 0 01.6-1.2 2.4 2.4 0 010-.2 2.1 2.1 0 01.3-1v-.2a2.3 2.3 0 01-.1-.6 2.8 2.8 0 01.3-1.2 3.7 3.7 0 01.3-1.2l-.1-.6a7.2 7.2 0 01-.2-1.5 6 6 0 01.2-1.4 3.4 3.4 0 00.1-.7 1.6 1.6 0 000-.2 8.4 8.4 0 01-.6 1.5 5.6 5.6 0 01-.5.8 3.1 3.1 0 01.2 1c0 .6-.3 1-1 2.3a2.7 2.7 0 00-.6 1 2.3 2.3 0 01-.5 1.3l-.3 1.2a5.8 5.8 0 011 1.7v.1l.3.7m66 2.2a8.8 8.8 0 01-.5-2.6 6.8 6.8 0 01.3-1.7 2.9 2.9 0 000-.5V50a4.6 4.6 0 01-2 1.2l-.3.3a5.3 5.3 0 01-3.8 1.7h-.2l-.1.5v1l.2-.1a3.6 3.6 0 012.6 1.1 3.5 3.5 0 011 1.4 5.1 5.1 0 01.2.8l2.1.3V58a10.1 10.1 0 01.6-2.5m-.3-12a26 26 0 01-.1-4H176.7h-.1a.4.4 0 00-.3.1l-.2.1-.9.5-.2.1h-.4l-.9-.1H173.4l-1-.6h-.3l-.9.5v.2l-.1 1.8v.5a4 4 0 01.6-.1 10 10 0 013.5.6 6 6 0 012 1.3 4.8 4.8 0 01.2-.9m31.2 19.7c0-.7.3-1.2 1.1-2.6a2.5 2.5 0 00.5-1.2 1.5 1.5 0 00-.1-.4l-.2-.4V56.4v-.2a3.7 3.7 0 00-.4-1.7l-.2-.5v-.5-1.4a14.7 14.7 0 000-1.7 3 3 0 00-.3-1l-.3-.6v-.6a5.9 5.9 0 01.9-2.8 2.6 2.6 0 00.4-1.2 11 11 0 01.2-2 7 7 0 00.2-1.2 1.6 1.6 0 000-.2 2.9 2.9 0 00-.3-1.2l-.2-.4v-.8a12.8 12.8 0 01.2-1.6 9.7 9.7 0 000-1 1.4 1.4 0 000-.4l-1-2.5 2.7-.4a5.8 5.8 0 001-.2 6.5 6.5 0 011.8-.4 3.7 3.7 0 011.6.4l1 .1a2.6 2.6 0 00.4 0 5.5 5.5 0 011.5-.3H219.7l.6.1c.2 0 0 .1.2.2a3.8 3.8 0 011.6-.1 3.4 3.4 0 01.5.1h.6a10 10 0 011.4-.2A5.4 5.4 0 01229 34l1.2.6a4.6 4.6 0 011.8 1.9V36a5 5 0 01.2-1.2v-.4l.3-.3a3.8 3.8 0 012.4-1.6 3 3 0 012.3-1 6.1 6.1 0 011.4.1l.3.1.8-.5.9.3a2.3 2.3 0 001.2 0l1.1-.2.8.7a3.2 3.2 0 011.4-.3h1.5l.5 1.2.7 1.3a4.7 4.7 0 01.8 2.2 6.2 6.2 0 01-.4 1.8 4 4 0 00-.1.5l.6.8v.7a1.6 1.6 0 00.2.3 4.4 4.4 0 01.5 1.8 3 3 0 01-.1.6 14.1 14.1 0 01.7 4v1.6l-.4.5a6.4 6.4 0 01.7 2.8v.7l.3-.2a2 2 0 00.2-.2 2.8 2.8 0 01-.1-.8 4.7 4.7 0 01.3-1.4l-.5-.6.5-2.4a5.1 5.1 0 000-.5 7.7 7.7 0 01-.3-1.6 3.5 3.5 0 01.3-1.6V43a5 5 0 000-1 10.5 10.5 0 01-.3-1.8 4.8 4.8 0 01.2-1.3l.1-.4v-.1l-.3-1 .3-.7-.1-.3a4.1 4.1 0 01-.5-1.7 3 3 0 011.7-2.5 4 4 0 012-.7h.3l1 .3.2.1h.9l.4.3a.2.2 0 00.1 0l2.1-.4a27.4 27.4 0 014-.1 5.4 5.4 0 012.8.7l1.8.3h.1a5 5 0 012.7 2l.2.1a4.2 4.2 0 011.5 1 6.8 6.8 0 011.5-2.2v-.1a6.6 6.6 0 013.5-1.5 5.1 5.1 0 002-.5l1-.6 1 .4h.2l.8-.1a8 8 0 011.3 0 4.6 4.6 0 011-.2 4.5 4.5 0 012 .7h1.6a3.3 3.3 0 011.6.4l.4.3.2.3a12 12 0 001.4 1.2 4.6 4.6 0 011.7 2.9 3.9 3.9 0 01.4 1 4.1 4.1 0 010 .8V40l.4.5v.8a2.8 2.8 0 01-.2 1.1 7 7 0 011.2 2.6c0 .4-5.8 1-5.8 1h-.2-.1a10.5 10.5 0 01.3 1.4 7 7 0 001.3 1 18.5 18.5 0 011.9 1.6l.8.2.4.6a2.1 2.1 0 01.5 1.4 13 13 0 01-.5 2.8h.2l-.1 1v.4l1 .8-1.4 3-1.2 3.1a4.7 4.7 0 01-4.7 3h-.6a2.3 2.3 0 00-.9.1l-.7.3h-1.1a1.9 1.9 0 00-.4.1 4.6 4.6 0 01-2.1.6 3.2 3.2 0 01-1.6-.4H278.8a19.5 19.5 0 01-5.4-3l-.5-.4-.3-.6a9.4 9.4 0 01-.3-1.1 5.6 5.6 0 00-.8 1.5l-.2.4-.3.4c-1.6 1.7-3.1 2.6-4.7 2.7a4.5 4.5 0 01-1.8.2 1.2 1.2 0 00-.4 0l-.7.2-.6-.2a3.3 3.3 0 01-1.2.2h-.1a9 9 0 01-3.5-.8l-1.8.6-.3.1a5.2 5.2 0 01-1.6.3 4.7 4.7 0 01-2.7-.9 2.3 2.3 0 01-1.4.5h-.4a7.3 7.3 0 00-1 .1 10.9 10.9 0 01-1.8.2 5 5 0 01-1.5-.3 2.5 2.5 0 01-2.3-1.8l-.4-.7a7.6 7.6 0 01-1.4 0l-.7.1-.4.2-2.7-.4h-.5c-.4 1.1-1 2.8-2.7 3a5.3 5.3 0 01-2 0 4.5 4.5 0 01-1 .1h-.4l-1-.3-.3-.4a2.8 2.8 0 01-.9-2 4.4 4.4 0 01.6-1.9 1.4 1.4 0 000-.2 4.3 4.3 0 01-.1-1.2V61a4.7 4.7 0 00.2-.8v-.4l.1-.4a5.4 5.4 0 00.1-1.2 8 8 0 01.4-2V56v-.2a4.6 4.6 0 01.9-2.6v-1.6-.3a6.3 6.3 0 01-1 1.3c-.4.3-.9.6-1.2 1-.3.2-.5.7-.9.8-.4.2-1 .2-1.5.3l-1.4.5c-.5.2-1 0-1.4.2.2.5.8.7 1 1.1a2.6 2.6 0 01.6 1.6v.3a1.4 1.4 0 01-.4 1 8.7 8.7 0 01-1.6 1.6h-.2l-.6.4h-.6l-.2.1-.3.2h-.2v.3a3.8 3.8 0 01.3 1.3 2.8 2.8 0 010 .5 8 8 0 01-.8 2.3l-.7 1.4-1.7-.2a3 3 0 00-.5.1 6.3 6.3 0 01-2.1.5 3.9 3.9 0 01-1.6-.4h-.3l-1 .1h-1.3l-.4-.8-1-1a4 4 0 01-1.4-2.6m65.6-13.8a5.5 5.5 0 01-.1 1 2.8 2.8 0 01.7 0h1.2a1.8 1.8 0 00.4 0l.6-.2.6.2.8.2-.2-1.7a2 2 0 01-1.2-1.3l-3.1-1.3V48a3.9 3.9 0 01.3 1.5M90.9 41.8V42.4l.2.2.5 1a2 2 0 01-.2.6l-.3.5-.1.3v.3l.1.7a15.2 15.2 0 01.1 1.9v3.4a5 5 0 00.3 1.6 7.4 7.4 0 00-.2 1.8v1.5l-.2.7v.6l.4.8-.2.8a8.5 8.5 0 00-.3 2.2 5.1 5.1 0 000 .7v.6h.1v.2l.1.1v1.7A4 4 0 0095 68a5.8 5.8 0 001.5 0 5 5 0 001.4.2 8 8 0 002.2-.4 4.1 4.1 0 01.4-.1l2.2.2h1l.1-.9.2-1.2v-.4a4.4 4.4 0 004 3H110.9l1.6-.5a3.7 3.7 0 01.3 0h.2l1.1.1.5.1.3-.3h.1a3.7 3.7 0 001.9.4h1.3l.3-.3a6.6 6.6 0 001.3 0 6 6 0 001.4-.1h.8a4.5 4.5 0 001.9-.4h.3l2.6.4h.5l.4-.2a1.6 1.6 0 01.2 0 15 15 0 001.6 0l.3.4.3.2h1.3a4.3 4.3 0 002.1-.6l.3.2.2.3H134.8l.1.1h.7a5.4 5.4 0 002.1-.5h.3l.3-.1 1.5.3h.4l.3-.1.5-.3.3-.1H142.2l2.7.4h.4l.5-.2h.2a15 15 0 001.6 0l.3.4.3.2h1.3a4.4 4.4 0 002-.6l.3.2.3.3H152.9l.2.1h.7a5.4 5.4 0 002-.5 3.1 3.1 0 01.4 0l.3-.1 1.5.3h.4l.3-.1.5-.3.3-.1H160.4l2.6.4h.5l.4-.2h.3a15.3 15.3 0 001.5 0l.3.4.3.2h1.4a4.2 4.2 0 002-.6l.3.2.2.3H171.1l.1.1H172a5.4 5.4 0 002.1-.5h.3l.3-.1 1.6.3h.3l.3-.1.6-.3.3-.1a5.7 5.7 0 00.7-.2 3.7 3.7 0 002.4.8 24.5 24.5 0 002.8-.1 5.4 5.4 0 002.7.5l1.2-.2h.4l.3-.2.5-.6a6.2 6.2 0 001-1.1 4.9 4.9 0 003.8 1.9h.9l.2-.2.5-.3a6.4 6.4 0 011 .2 10.8 10.8 0 002.2.3 5.8 5.8 0 001.8-.3l1.5-.5.6-.3V65a3.5 3.5 0 00-.2-1.2v-.4a10 10 0 00-.3-2.5 8.3 8.3 0 01-.2-.9v-.3a6.7 6.7 0 00.3-1.7v-.7l-.2-.4a1.6 1.6 0 010-.3 3.3 3.3 0 00-1.5-2.7 8.5 8.5 0 00-.2-2 3.5 3.5 0 010-.4 2.4 2.4 0 000-.9 2 2 0 00-1-1.9 4.7 4.7 0 001-2.8v-.2a3.6 3.6 0 001.5-2.5v-1.4a5.9 5.9 0 01.2-.8 10.8 10.8 0 00.2-2 5 5 0 00-.4-2V37l-.1-.1-.1-.2a9.4 9.4 0 01-.8-1.3v-.1a5.9 5.9 0 00-3-3l-1.6-.6h-.1l-.1-.1h-.2l-.4-.2h-.1l-2.1-.4h-.4l-.5.1a6.8 6.8 0 01-1-.2 9.6 9.6 0 00-2.9-.6 4.8 4.8 0 00-1.6.3 26.7 26.7 0 00-6.4.5l-.8.1-.4.1-.2.3a4.1 4.1 0 00-2.9-.4 8 8 0 00-1.6.4l-1-.4-.6-.4-.3-.1H171l-.4.1a6.9 6.9 0 00-3.3-.8 8.5 8.5 0 00-2.3.4 3.8 3.8 0 01-.7.1 6.3 6.3 0 00-4 1 3.4 3.4 0 00-1.4 2.8 36.3 36.3 0 00.2 3.5V39l-.1.4.2.3a5 5 0 00-.3 1.7 4.3 4.3 0 00.4 1.7 5.8 5.8 0 00-.4 2.2v.1a16.6 16.6 0 000 1.7 10.3 10.3 0 01.2 1.1 2.8 2.8 0 01-.1.7l-.2.8-.1.4.1.3.2.3a5.7 5.7 0 00-.5 2.1v.5l.2 1v.3l.2.2.3.4.1 2.1-.1.4-1.2-.2h-.2a4.3 4.3 0 00-1.3-2.2 4 4 0 00-2.4-1.1v-.7l.1-.6a10.4 10.4 0 00.2-1.8 5.2 5.2 0 00-.1-1l.5-.4.4-.4v-.6l-1-5.2v-1.1a15.8 15.8 0 00.2-2 4.8 4.8 0 00-.1-1l.6-.6.3-.1.1-.1.1-.2.2-.2a4.5 4.5 0 00.9-2.7c0-1-.4-3-3.3-4.1a6.6 6.6 0 00-4-1.4 8.7 8.7 0 00-2.4.4 4.4 4.4 0 01-.7.1c-2 0-3.2.3-4.2 1l-.7.6-.3.3v.4l-.1.7V40a4.5 4.5 0 000 1.3 4.3 4.3 0 00.3 1.7 5.8 5.8 0 00-.4 2.2v.2a13.8 13.8 0 00.2 1.7 7.7 7.7 0 010 1 1.4 1.4 0 010 .5l-.4 1-.1.5.2.4.2.2a5.4 5.4 0 00-.4 2 3.6 3.6 0 000 .5l.1 1v.3l.3.2.3.4v.1a20.9 20.9 0 000 2.2v.2h-.2l-1.3-.2a4.3 4.3 0 00-1.3-2.2 4 4 0 00-2.3-1.1v-.7-.6a10.2 10.2 0 00.2-1.8 4.7 4.7 0 00-.1-1l.5-.4.5-.4-.2-.6-1-5.2.2-1.1a15.2 15.2 0 00.1-2 4.7 4.7 0 000-1 8 8 0 01.6-.6l.2-.1.1-.1.1-.2.2-.2a4.6 4.6 0 001-2.7c0-1-.4-3-3.3-4.1a6.6 6.6 0 00-4.1-1.4 8.8 8.8 0 00-2.4.4 4.4 4.4 0 01-.7.1 7.6 7.6 0 00-3.4.6h-.3a24 24 0 00-4.9-.5 19.6 19.6 0 00-3.5.3h-.5a3.8 3.8 0 00-2-.5h-1.8l-.2.1-.3.2h-.7a8.8 8.8 0 00-1.6-.3 3.5 3.5 0 00-3 1.5l-.5.3-.8.4v-.4l-.4-.4-1-.7a4.3 4.3 0 00-2.6-1 11.2 11.2 0 00-2.8.5 6.6 6.6 0 01-1.2.2h-.3l-1-.1H95a3.8 3.8 0 00-3.4 2.1v.2h-.1v.2l-.1.2a4.6 4.6 0 00-.3 1.5 7.8 7.8 0 00.2 1.6v1.1a10.4 10.4 0 00-.2 1.7v.1a4 4 0 00.1 1 2.8 2.8 0 00-.4 1.5zm20.6 8.9V50a3.6 3.6 0 00.5-1v.1a3 3 0 00-.2 1 3 3 0 00-.3.5zm64.8-8.2a9 9 0 00-.8-.3 11.4 11.4 0 00-3.3-.7v-.8l.8.3.2.1H173.5l.1.1 1 .1h.8l.3-.2.6-.3v1.7zM174.5 55a4.4 4.4 0 00-1.5-1 6.5 6.5 0 002.9-1.8l.1-.2h.2a6 6 0 00-.1.8 9 9 0 00.5 2.7 10.7 10.7 0 00-.3 1.6h-.5l-.1-.4a4.4 4.4 0 00-1.2-1.7zm33.1 8.2a4.9 4.9 0 001.7 3.4l.6.6.3.2.4.7.2.4h.5l1.2.1h.2l1.1-.1a4.6 4.6 0 001.8.4 7.1 7.1 0 002.5-.5l.2-.1 1.4.2.8.2.3-.7.7-1.5a9 9 0 00.9-2.5 3.8 3.8 0 000-.7 4.2 4.2 0 000-.9h.3l.2-.1.6-.3.2-.2a7 7 0 001.5-1.3l.3-.3a2.4 2.4 0 00.7-1.8V58a3.7 3.7 0 00-.6-1.9l1.2-.4a3.4 3.4 0 01.6-.1 4.8 4.8 0 00.8-.2 2.2 2.2 0 001-.8 5 5 0 00-.1 1.2v.2a9.3 9.3 0 00-.4 2.1 6.4 6.4 0 010 1l-.2.4v.7l-.1.5-.1.3V61.6a4.8 4.8 0 000 1.1 5 5 0 00-.5 2.2 3.8 3.8 0 001.2 2.8l.3.3.2.2h.2l1 .4h.6a5.2 5.2 0 001-.1 6.6 6.6 0 002.3 0 4.3 4.3 0 003.2-3l2.3.4h.5l.5-.2.4-.2h.7v.2a3.5 3.5 0 003.1 2.4 6 6 0 001.7.3 11.5 11.5 0 002-.2 7 7 0 01.8-.1h.4a3.2 3.2 0 001.3-.3 5.6 5.6 0 002.8.7 6 6 0 002-.3l.3-.1 1.3-.5a11 11 0 003.4.7H261.6a4.3 4.3 0 001.2-.1h.2l.4.2.3-.1.6-.2a5.8 5.8 0 002.2-.2c1.8-.1 3.5-1.1 5.3-3l.3-.4v-.1h.2l.5.4a20.4 20.4 0 005.7 3.1l.3.1h1.2a4.1 4.1 0 001.8.5 5.5 5.5 0 002.5-.8h1.5l.7-.3a2.8 2.8 0 01.6-.1h.5a5.8 5.8 0 005.6-3.6l1.3-3 1.3-3 .4-.8-.7-.5-.6-.5V55l.1-.7a10.4 10.4 0 00.3-2.1 3 3 0 00-.7-2l-.4-.6-.2-.3-.4-.1-.5-.1a21.4 21.4 0 00-1.8-1.5 9.6 9.6 0 01-.8-.6c5.5-.7 5.6-1 5.7-1.7a1.4 1.4 0 000-.3 6.9 6.9 0 00-1-2.7 3.6 3.6 0 000-1V40l-.2-.2-.2-.2V39v-.5a5 5 0 000-.9 4.7 4.7 0 00-.5-1.2 5.7 5.7 0 00-1.9-3.3V33l-1.3-1-.1-.3-.1-.1-.2-.1-.5-.4a4.3 4.3 0 00-2.1-.5H287a5.3 5.3 0 00-2.6-.7 5 5 0 00-1 0 8 8 0 00-1.3.1h-.1l-.6.2-.9-.4-.4-.1-.5.2-.9.6a4.6 4.6 0 01-1.6.4 7.5 7.5 0 00-4 1.8h-.1a7 7 0 00-1.1 1.5 10 10 0 00-.7-.4 6 6 0 00-3-2.2H267.8l-1.7-.3a6.5 6.5 0 00-3.1-.7 27 27 0 00-4.2 0l-1.8.4h-.1l-.3-.2h-.7l-.3-.1-1.1-.3h-.4a5 5 0 00-2.7.8 3.9 3.9 0 00-2.1 3.4 5 5 0 00.5 2l-.1.4-.1.3v.3l.3.8v.2l-.3.8v-.3l-.2-.3-.3-.3a7 7 0 00.4-2.1 5.6 5.6 0 00-.9-2.7 1 1 0 01.1.3 12.2 12.2 0 00-.8-1.6l-.5-1.2-.3-.5H245a3.7 3.7 0 00-1.2.2l-.3-.3-.4-.4-.5.1-1.1.3a1.3 1.3 0 01-.7 0l-1-.3-.4-.2-.4.3-.4.2a7 7 0 00-1.5-.2 4 4 0 00-2.9 1.2 5 5 0 00-2.6 1.8l-.2.4-.2.2-.4-.3h-.2l-.1-.1-1-.5a6.5 6.5 0 00-5-2 11.4 11.4 0 00-1.6.1h-.2a3.6 3.6 0 00-.6 0 4.3 4.3 0 00-1.5 0h-.3l-.6-.1-.3-.1h-.4a6.4 6.4 0 00-1.8.3h-.8a4.8 4.8 0 00-2-.5 7.4 7.4 0 00-2 .4 7.6 7.6 0 01-.8.2l-2.8.4-1.3.1.5 1.2 1 2.5v1a13.7 13.7 0 00-.2 1.7v1l.1.2.2.4a1.9 1.9 0 01.2.8 1 1 0 010 .1v.1a7.3 7.3 0 01-.2 1 11.8 11.8 0 00-.3 2.2 1.7 1.7 0 01-.2.7 6.8 6.8 0 00-1 3.3v1l.1.1.3.5a2.4 2.4 0 01.2.7 15.8 15.8 0 010 1.6v2.1l.1.3.2.4a2.7 2.7 0 01.3 1.3V59l.2.3a.5.5 0 010 .1 2.2 2.2 0 01-.3.7 5.8 5.8 0 00-1.2 3zm67.6-13.9a4.7 4.7 0 00-.3-1.5l1.3.6a3 3 0 00.6.8l-.6.2a1.2 1.2 0 01-.1 0h-1z"/>
  <path class="a" d="M88.2 32.4a.8.8 0 01-.1.5l-1.2 1.9-.1 2v.4a1 1 0 01-.1.4l-.2.3-.4.7v1.5l-.1.1V40.6a4.2 4.2 0 01-.4.8 18.2 18.2 0 01-.4 2.4 1.8 1.8 0 000 .2l.3.5a.9.9 0 010 .4v.8l-.1.3v.2l-.1.2-.1.2-.9 1.8v.1l.1.5a.8.8 0 010 .5l-.3.4a4.3 4.3 0 00-.4.9l-.3 2.6v.1a6.9 6.9 0 01-1 2.3 5.5 5.5 0 01.3 1.2v.5a.8.8 0 01-.1.5l-.3.4a9.4 9.4 0 00-.5 1 .8.8 0 010 .2v.7l-.7 4.1v.4a3.3 3.3 0 01-.9 1.4v.1H80l-.2.2a6.5 6.5 0 01-3.8.8 4.5 4.5 0 00-.9.2 8.6 8.6 0 01-2.2.3 5.4 5.4 0 01-3.7-1.4 4 4 0 01-2-1.5 3.2 3.2 0 01-.5-1.7 3.6 3.6 0 010-.7 4 4 0 011.4-2.3V60h.2v-.1l1.4-.9a1.4 1.4 0 00.2-.2 12.2 12.2 0 01.1-1.2l.6-2.6a19.2 19.2 0 01.8-2.2A12.2 12.2 0 0072 51a11.4 11.4 0 00.1-1.8 18.5 18.5 0 01.3-2.6v-.2a18.2 18.2 0 01.6-1.8 2.1 2.1 0 00.2-.7v-.3a.8.8 0 010-.3l.2-.4-.2-1-.1-.5a3.9 3.9 0 01-.6-.2 4 4 0 01-1-.8 10.3 10.3 0 01-1.6-.3l-1-.1a4.6 4.6 0 01-3.2 1.6 3.8 3.8 0 01-2.6-1 3.6 3.6 0 01-1.3-2.8 5.8 5.8 0 011-2.9 5.6 5.6 0 00.4-.5l-.7-1.4a.8.8 0 010-.3.9.9 0 010-.4.8.8 0 01.5-.4l1.8-.7h.3l.3-.1a1 1 0 01.2 0H72l.5.1h.5a25.5 25.5 0 003.2-.2 29.3 29.3 0 013.6-.4h.8a.8.8 0 01.5.2l.2.2h.7a4.5 4.5 0 011.4.2l.5-.2a.8.8 0 01.4 0h.5l.3.1 2.5.4a.8.8 0 01.6.5.8.8 0 01.1.3zm-26.4 4.8a3.5 3.5 0 01-.8 2 4.6 4.6 0 01.3 1.4 3.3 3.3 0 01-.4 1.5v.2a2.8 2.8 0 01.4 1.4A2.9 2.9 0 0161 45a3.8 3.8 0 01.1.9 7.2 7.2 0 01-1 3.5l.6.7.6.2a.8.8 0 01.5.8v.8a1.6 1.6 0 010 .4 3.5 3.5 0 01-.8 2.1 4.6 4.6 0 01.3 1.4 3.9 3.9 0 01-.6 2 1.3 1.3 0 000 .2v1a3.3 3.3 0 01.6 2v.4l-.1.3-.1.7a.8.8 0 01-.3.4 5.3 5.3 0 01-.7 1.7l-.2.5a.8.8 0 01-.3.3l-.5.2a1.9 1.9 0 00-.1.2 5.8 5.8 0 01-1.5 1.4l-.3.2a1 1 0 01-.3.1h-.3l-1.3.3a9.1 9.1 0 01-1.7.3 3.9 3.9 0 01-1.4.2 11 11 0 01-1.4 0l-.4-.1a6 6 0 01-1.8.3h-.2a5.6 5.6 0 01-.6-.1 19.9 19.9 0 01-5-.8 6.8 6.8 0 01-3.3-1.2l-1.7-1.3a2.9 2.9 0 01-1.2-2 .8.8 0 01-.3-.7v-1a4.1 4.1 0 01.4-1.7 3.3 3.3 0 01-.1-1v-4a4.1 4.1 0 01-.3-1.5 3 3 0 01.3-1.2 4.2 4.2 0 011-2.2 2.9 2.9 0 01-1-2.2 2.8 2.8 0 010-.5V46.6a5.5 5.5 0 01.3-1.7v-.1a3 3 0 01-.1-1 3 3 0 010-.5 2.8 2.8 0 010-.6 2.7 2.7 0 01.1-1l-.2-2.2a3.6 3.6 0 01-.4-1.6 3 3 0 01.3-1.2 4.2 4.2 0 011.2-2.5 16.3 16.3 0 011.7-1.4c.6-.5 1.4-.8 4-1.4L45 31H45.3l.6-.2c2-.3 2.2-.3 6 0l.2.1a7 7 0 012.4.5 2.9 2.9 0 001 .3h.5a3.3 3.3 0 011.5.8 4.8 4.8 0 012.6 1.7l.6.7h.3a.9.9 0 01.4.6l.2.6v.1h.1v.5l.1.5zM33.4 51.8a5.3 5.3 0 01-.4 1.8l.3.5a.8.8 0 010 .4v.5a9.7 9.7 0 01-.3 2.6l.2.5v.7a5.4 5.4 0 01-.6 2.5l-.2.2.1.4A6.9 6.9 0 0133 64v2.2a.8.8 0 01-.6.8l-1.4.2a14.3 14.3 0 01-2.5.3 6.7 6.7 0 01-1-.1 3.9 3.9 0 00-.7 0 1.1 1.1 0 00-.1 0h-1-.1l-.3.3a.8.8 0 01-.5.2H24a3 3 0 01-2.2-1 3.6 3.6 0 01-1-2.6v-1.2-.4a1.9 1.9 0 000-.2v-.4a.9.9 0 010-.4l.2-.4a5 5 0 01-.1-.6 8.8 8.8 0 01-.2-1.6 4.3 4.3 0 01.2-1.5.8.8 0 01-.2-.5V56.2v-.4a5.5 5.5 0 01-.4-1.8 3.6 3.6 0 01.6-1.8 5.5 5.5 0 01-.4-1.9 3.2 3.2 0 01.2-1v-.4a9.7 9.7 0 01-.3-2 5.1 5.1 0 01.4-2V44.7a8.7 8.7 0 01-.4-2.2 7 7 0 01.4-2V40a7 7 0 00-.4-.6 5.8 5.8 0 01-1.7-3.7 4.4 4.4 0 011.7-3.7l.3-.3a.9.9 0 01.4-.1h.4a31.3 31.3 0 015.3-.4 13.4 13.4 0 013.6.5h.2a.8.8 0 01.3.2l.2.1a6.1 6.1 0 011.3 1.2 3.2 3.2 0 01.8 2l-.3 5-.3 4.5v.4a8 8 0 00.2 2l.3.6a.9.9 0 010 .4v.2l-.2.8a8.4 8.4 0 00-.2.8 3.4 3.4 0 01.6 2z"/>
  <path class="c" d="M19.3 35.7a4 4 0 011.5-3.3l.3-.2a.3.3 0 01.2-.1h.4a31.3 31.3 0 015.2-.4 12.8 12.8 0 013.4.5h.3l.3.2a5.6 5.6 0 011.2 1.1 2.7 2.7 0 01.7 1.7l-.3 5-.3 4.5v.4a8.2 8.2 0 00.2 2.1v.1l.3.6a.3.3 0 010 .2l-.1.8a10.8 10.8 0 00-.3 1.1 3 3 0 01.6 1.8 4.8 4.8 0 01-.4 1.7v.2l.1.2.2.4a.3.3 0 010 .2v.5a9 9 0 01-.3 2.6l.2.7v.5a4.8 4.8 0 01-.6 2.2 2.8 2.8 0 00-.2.5 4.7 4.7 0 00.2.6 6.4 6.4 0 01.3 2v2a.3.3 0 01-.2.4l-1.4.2a14.3 14.3 0 01-2.4.3l-1.7-.2a1.4 1.4 0 00-.2 0l-1 .2h-.3l-.3.3a.3.3 0 01-.2 0H24a2.6 2.6 0 01-1.9-.7 3.2 3.2 0 01-.8-2.3v-1.1-.5a2.3 2.3 0 000-.2V62a.3.3 0 010-.1l.1-.4a1 1 0 000-.2 4.5 4.5 0 000-.7 8.5 8.5 0 01-.2-1.5 3.7 3.7 0 01.3-1.6l-.2-.2a.3.3 0 010-.2V56.2 56a2.6 2.6 0 00-.2-.4A5 5 0 0121 54a3.3 3.3 0 01.6-1.8V52a5.1 5.1 0 01-.4-1.7 2.8 2.8 0 01.2-1v-.5A9.6 9.6 0 0121 47a4.6 4.6 0 01.4-2v-.5a8 8 0 01-.4-2 6.5 6.5 0 01.4-2 5.8 5.8 0 00.1-.6 5.9 5.9 0 00-.6-.8 5.3 5.3 0 01-1.6-3.4M36.8 38a2.5 2.5 0 01.3-1 3.7 3.7 0 011-2.4h.1a17.5 17.5 0 011.6-1.3c.5-.4 1.3-.8 3.8-1.3l1.6-.4H45.5l.3-.1c2.2-.4 2.1-.4 6.3 0a6.7 6.7 0 012.2.5 3.4 3.4 0 001.2.3h.4a3 3 0 011.3.8 4.2 4.2 0 012.5 1.5l.7.8.4.1a.3.3 0 01.1.2l.2.7v.1l.1.2v.2a2.1 2.1 0 010 .3 3 3 0 01-.7 2 4.5 4.5 0 01.3 1.5 3 3 0 01-.3 1.3l-.1.5a2.3 2.3 0 01.4 1.3 2.5 2.5 0 01-.3 1.2 3.4 3.4 0 01.1.9 6.8 6.8 0 01-1 3.3l-.1.2.2.3.7.8.7.3a.3.3 0 01.1.3v.8a.2.2 0 010 .1 2.2 2.2 0 010 .3 3.1 3.1 0 01-.7 2 4.5 4.5 0 01.3 1.5 3.4 3.4 0 01-.5 1.7 1.2 1.2 0 00-.1.4v.3a7.5 7.5 0 000 1 2.8 2.8 0 01.6 1.8v.4l-.1.2-.1.7a.3.3 0 01-.1.2h-.2a4.3 4.3 0 01-.6 1.8l-.3.4a.4.4 0 010 .2l-.5.2a1 1 0 00-.3.3 5.1 5.1 0 01-1.4 1.3l-.3.2h-.4l-1.4.4a8.8 8.8 0 01-1.6.2 3.4 3.4 0 01-1.3.2 10.5 10.5 0 01-1.3 0l-.5-.2a5.5 5.5 0 01-1.8.4 6.5 6.5 0 01-.7-.1 19.5 19.5 0 01-5-.8 6.3 6.3 0 01-3-1.1L38 64.5a2.4 2.4 0 01-1-2H37a.3.3 0 01-.2-.3v-1a3.7 3.7 0 01.5-1.7 2.8 2.8 0 01-.2-1v-4.2a3.8 3.8 0 01-.3-1.3 2.5 2.5 0 01.3-1 3.8 3.8 0 011-2.3 1.5 1.5 0 01.2-.2 2.4 2.4 0 01-1.2-2v-.1a2.4 2.4 0 010-.4v-.1l.1-.3a5.2 5.2 0 01.2-1.6v-.3a2.5 2.5 0 01-.1-1 2.7 2.7 0 010-.3v-.1a2.2 2.2 0 010-.6 2.1 2.1 0 01.2-.9l-.3-2.4a3.2 3.2 0 01-.4-1.5m25.6 0a5.4 5.4 0 011-2.6 4.4 4.4 0 00.3-.9L63 33a.3.3 0 010-.1.3.3 0 010-.2.3.3 0 01.2-.2l1.9-.6h.3l.2-.2a.4.4 0 01.1 0h6.2l.5.2h.6a26.9 26.9 0 003.3-.2 29.4 29.4 0 013.5-.4h.8a.3.3 0 01.2.1l.3.3h1a4 4 0 011.3.3l.2-.1.5-.2a.3.3 0 01.2 0h.4l.3.1 2.5.4a.3.3 0 01.3.2.3.3 0 010 .1.3.3 0 010 .2l-1.3 2v.2l-.1 2v.4a.4.4 0 010 .1l-.3.3a7.8 7.8 0 00-.4 1V40h-.1v.2a3.8 3.8 0 01-.4.9 17 17 0 01-.4 2.4 1.7 1.7 0 000 .3.4.4 0 000 .2l.3.6a.3.3 0 010 .1v.7l-.1.3v.2l-.2.3a31.5 31.5 0 00-.9 2.2v.5a.3.3 0 010 .2l-.2.4a4.4 4.4 0 00-.4 1l-.3 2.6v.1a6.3 6.3 0 01-1 2.3v.1a5.4 5.4 0 01.3 1.2v.5a.3.3 0 010 .2l-.3.4a11.3 11.3 0 00-.7 1.3h.1a.3.3 0 010 .2v.7l-.7 4v.4a2.8 2.8 0 01-.7 1.1l-.1.1-.2.2a6.1 6.1 0 01-3.5.7 4.7 4.7 0 00-1 .2 8.2 8.2 0 01-2 .3 4.8 4.8 0 01-3.5-1.3 3.6 3.6 0 01-1.8-1.3 2.7 2.7 0 01-.5-1.5 3 3 0 010-.6 3.5 3.5 0 011.2-2l.1-.1.2-.1 1.3-.9a1.7 1.7 0 00.4-.4 11 11 0 01.1-1.3l.6-2.6A17.5 17.5 0 0172 53a12.2 12.2 0 00.6-1.8 12 12 0 00.2-1.9 17.6 17.6 0 01.2-2.5v-.1a16.8 16.8 0 01.6-1.8 2.6 2.6 0 00.2-1v-.2a.4.4 0 010-.2l.2-.3v-.1a16.6 16.6 0 00-.4-2 3.4 3.4 0 01-.7-.3 3.4 3.4 0 01-1-.7 10 10 0 01-1.8-.4l-1.2-.1h-.2-.1a4.2 4.2 0 01-2.8 1.6 3.3 3.3 0 01-2.2-1 3.1 3.1 0 01-1.1-2.3m-44.1-2.2a6.2 6.2 0 001.8 4l.3.4v.1a7.3 7.3 0 00-.4 2.2 9.2 9.2 0 00.3 2.3v.2a5.6 5.6 0 00-.3 2 10.3 10.3 0 00.2 2v.3a3.7 3.7 0 00-.1 1.1 5.7 5.7 0 00.3 1.8 3.9 3.9 0 00-.5 2 5.8 5.8 0 00.4 2v1a1.4 1.4 0 00.2.6 4.9 4.9 0 00-.2 1.4 9.3 9.3 0 00.2 1.7 4.7 4.7 0 010 .4v.3a1.4 1.4 0 00-.2.5v2.3a4.2 4.2 0 001.2 3 3.6 3.6 0 002.6 1.1h.6a1.3 1.3 0 00.8-.3l.2-.1 1-.2a3.5 3.5 0 01.6 0 6.5 6.5 0 001 .2h.1a15.4 15.4 0 002.6-.3l1.4-.2a1.3 1.3 0 001-1.3V64a7.4 7.4 0 00-.4-2.3v-.1a5.8 5.8 0 00.8-2.8v-.5l-.2-.3v-.4a10.2 10.2 0 00.3-2.6v-.5a1.4 1.4 0 00-.2-.7l-.1-.2a5.4 5.4 0 00.3-1.8 4 4 0 00-.5-2 5.4 5.4 0 01.1-.5v-.1l.2-.7a1.4 1.4 0 000-1l-.3-.6a8 8 0 01-.2-1.8v-.4l.3-4.4.3-5a3.8 3.8 0 00-.9-2.4 6.7 6.7 0 00-1.4-1.3l-.2-.2a1.2 1.2 0 00-.4-.1l-.3-.1a14 14 0 00-3.7-.5 31.8 31.8 0 00-5.4.3l-.4.1a1.2 1.2 0 00-.6.2l-.3.3a5 5 0 00-2 4.1zM35.8 38a4 4 0 00.4 1.7l.2 2a3.2 3.2 0 00-.2 1.1 3.6 3.6 0 000 .6 3.7 3.7 0 000 .5 3.5 3.5 0 00.2 1 6.2 6.2 0 00-.2 1.7v.4a3.2 3.2 0 00-.1.5 3.4 3.4 0 00.8 2.2 4.6 4.6 0 00-.8 2 3.5 3.5 0 00-.3 1.4 4.5 4.5 0 00.3 1.5v4a3.9 3.9 0 000 1 4.4 4.4 0 00-.3 1.7v1a1.3 1.3 0 00.3.9 3.4 3.4 0 001.4 2.2l1.7 1.3a7.3 7.3 0 003.5 1.3 20.9 20.9 0 005 .8H48.7a6.5 6.5 0 001.9-.2h.2a11 11 0 001.5.1 4.5 4.5 0 001.5-.2 10.4 10.4 0 001.6-.2l1.4-.3.3-.1a1.3 1.3 0 00.5-.2l.3-.2a6.2 6.2 0 001.6-1.5l.4-.3a1.3 1.3 0 00.5-.5l.3-.4a6 6 0 00.7-1.7 1.3 1.3 0 00.3-.6l.1-.7v-.4l.1-.1V60.8a3.8 3.8 0 00-.6-2.2v-.1a6.5 6.5 0 010-.7 4.3 4.3 0 00.6-2.2 4.9 4.9 0 00-.2-1.3 3.8 3.8 0 00.7-2.2 3 3 0 000-.4 1 1 0 000-.1V51a1.3 1.3 0 00-.8-1.2l-.5-.2-.3-.4a7.5 7.5 0 001-3.4 4.7 4.7 0 00-.1-.8 3.4 3.4 0 00.2-1.3 3.3 3.3 0 00-.4-1.5 3.8 3.8 0 00.4-1.6 4.9 4.9 0 00-.2-1.3 4.3 4.3 0 001.2 1.7 4.3 4.3 0 002.9 1.2 5 5 0 003.3-1.6h.8a10.3 10.3 0 001.5.4 4.5 4.5 0 001 .7 4 4 0 00.3.2l.1.3.2.8v.2a1.3 1.3 0 00-.2.5v.3a2 2 0 01-.1.5 18.1 18.1 0 00-.7 2 18.5 18.5 0 00-.3 2.8 10.8 10.8 0 010 1.7 11.5 11.5 0 01-.6 1.6 19.6 19.6 0 00-.8 2.2 46.3 46.3 0 00-.7 3.8l-1.3.8-.1.1H68v.1l-.2.1a4.4 4.4 0 00-1.4 2.6 4 4 0 000 .8 3.8 3.8 0 00.5 2 4.4 4.4 0 002.1 1.7 5.9 5.9 0 004 1.4 9.2 9.2 0 002.4-.4 5.5 5.5 0 01.7-.1 7 7 0 004-.9h.2v-.1h.1v-.1l.2-.1a3.8 3.8 0 001-1.6v-.5l.7-4V59.4a1.2 1.2 0 000-.2 6.8 6.8 0 01.4-.7l.3-.4a1.3 1.3 0 00.2-.8V57a5 5 0 00-.2-1.2 7.4 7.4 0 00.9-2.1v-.2l.3-2.7a3.5 3.5 0 01.3-.6l.3-.5a1.3 1.3 0 00.1-.6v-.6l.7-1.6.1-.2v-.1l.1-.2V46l.1-.3.2-.6a1.4 1.4 0 000-.3 1.3 1.3 0 00-.2-.7l-.2-.3a19.6 19.6 0 00.4-2.3 4.6 4.6 0 00.3-1v-.1l.1-.1v-.1l.2-1.5a5.9 5.9 0 01.2-.6l.2-.3a1.4 1.4 0 00.2-.5V37l.1-2 1.1-1.8a1.3 1.3 0 00.2-.7 1.3 1.3 0 00-1.1-1.3l-2.5-.4h-.3l-.5-.1a1.4 1.4 0 00-.7 0l-.3.2a5.4 5.4 0 00-1.4-.2h-.5a1.3 1.3 0 00-1-.4h-.7a30 30 0 00-3.7.4 24.4 24.4 0 01-3 .2h-.6a7 7 0 00-.4 0l-.2-.1h-6.2a1.3 1.3 0 00-.4 0H65l-.2.2-1.9.6a1.3 1.3 0 00-.8 1.9l.6 1-.1.4-.5.8-.1-.3a1.4 1.4 0 00-.7-.8H61c0-.2-.3-.4-.5-.7a5.2 5.2 0 00-2.8-1.8 3.8 3.8 0 00-1.7-.8h-.5a2.5 2.5 0 01-.8-.2 7.7 7.7 0 00-2.6-.6H52c-3.5-.3-4-.4-5.6-.1l-1 .1h-.2l-.2.1-1.6.4c-2.4.5-3.5 1-4.2 1.5a18.5 18.5 0 00-1.7 1.4 4.8 4.8 0 00-1.4 2.8 3.5 3.5 0 00-.3 1.3z"/>
  <path class="b" d="M30.9 55a6.7 6.7 0 01-.5 2.5l.3 1.3a3.1 3.1 0 01-.4 1.3 3.2 3.2 0 00-.4 1.4 4.5 4.5 0 00.2 1.2 4.6 4.6 0 01.3 1.3v.7a16.8 16.8 0 01-2.4.3 14.3 14.3 0 01-1.6 0h-.7a2.6 2.6 0 00-1.6.4q-.7 0-.7-1v-1.1a5.8 5.8 0 000-1 2.4 2.4 0 00.2-1 6.3 6.3 0 00-.2-1.1 6.7 6.7 0 01-.1-1.1 1.6 1.6 0 01.4-1.2v-.3a1.7 1.7 0 00-.3-1V56A3.6 3.6 0 0023 55a3.6 3.6 0 01-.2-1 1.6 1.6 0 01.3-.7 1.7 1.7 0 00.4-1 3.3 3.3 0 00-.3-1 3.3 3.3 0 01-.2-1 1.1 1.1 0 01.3-.6 8 8 0 00-.2-1.3A7.5 7.5 0 0123 47a2.5 2.5 0 01.6-1.6 10.8 10.8 0 00-.3-1.4 6.2 6.2 0 01-.3-1.6 5 5 0 01.3-1.3 5 5 0 00.3-1.3 3.8 3.8 0 00-1.2-2 3.8 3.8 0 01-1-2A2 2 0 0122 34a30.2 30.2 0 014.9-.3 10.6 10.6 0 012.9.4c.6.5 1 .8 1 1.1l-.3 4.8q-.3 3.1-.3 4.7a8.3 8.3 0 00.4 3.6 15.4 15.4 0 00-.4 1.8 2 2 0 00.2 1 1 1 0 01.5.7 3 3 0 01-.3 1 3 3 0 00-.2 1A2.6 2.6 0 0031 55zM59.2 52.2c0 .2 0 .5-.4.8a1.5 1.5 0 00-.5.9 2.9 2.9 0 00.2 1 3 3 0 01.3.8 1.7 1.7 0 01-.3.7 3.1 3.1 0 00-.4 1.2 7.3 7.3 0 000 1.2V60a.8.8 0 01.7.9v.2a1.8 1.8 0 00-.7.8.4.4 0 01.2.4 2.7 2.7 0 01-.4.9 3.1 3.1 0 00-1 .9 3.4 3.4 0 01-.8.8l-1.5.3a6.3 6.3 0 01-1.6.1 1.7 1.7 0 01-.8.3 8.9 8.9 0 01-1-.1 9.2 9.2 0 00-1.1 0 3.8 3.8 0 01-1.6.2 3 3 0 01-.4 0 17 17 0 01-4.8-.8A4.3 4.3 0 0141 64l-1.7-1.3a.4.4 0 01-.2-.4l.2-.5a.8.8 0 00-.5-.6v-.1a2.3 2.3 0 01.4-1 3 3 0 00.4-1 1.1 1.1 0 01-.5-.7v-4.3a2 2 0 00-.1-.6 1.9 1.9 0 01-.2-.6.6.6 0 01.3-.4v-.3a1.6 1.6 0 01.5-1.3l1.4-1.2c.2 0 .6-.2.6-.4l-.4-.3-.7-.5-1.2-.8a.4.4 0 01-.2-.5l.1-.4.1-1.2a4.8 4.8 0 00.3-1.5.5.5 0 01-.3-.5l.3-.5a2.2 2.2 0 00-.3-.4c0-.1 0-.2.3-.3l-.4-3.4a1.5 1.5 0 00-.2-.6 1.4 1.4 0 01-.2-.6.6.6 0 01.3-.4v-.3a1.6 1.6 0 01.6-1.3l1.3-1.1a10.9 10.9 0 013-1l1.8-.4a19.7 19.7 0 015.5-.2 5.7 5.7 0 00.8.2 4.9 4.9 0 011.5.4 5.4 5.4 0 001.9.4 2.9 2.9 0 01.9.7 2.2 2.2 0 011.8 1 13 13 0 001 1v.2c0 .2 0 .5-.4.8a1.5 1.5 0 00-.5.9 2.9 2.9 0 00.2.9 3 3 0 01.3 1 2.1 2.1 0 01-.3.6l-.2 1.6v.4c.3.1.5.3.5.4a1 1 0 01-.3.6 1 1 0 00-.3.6.9.9 0 01.4.9 5 5 0 01-.7 2.3 3.2 3.2 0 00-1 .8 4.3 4.3 0 01-.7.8l.1.3a2.2 2.2 0 011.9 1 12.4 12.4 0 001 1zm-7.7.5a3 3 0 00-.5-1.2 3.1 3.1 0 00-1.1-1.1 3.3 3.3 0 01-1.3.2H48a5.2 5.2 0 00-1.3 1.2 1.7 1.7 0 00-.5 1v4a1.5 1.5 0 00.3.7v1.2a1 1 0 01-.5.7 10.3 10.3 0 01.4 2.8q0 1.2 2.3 1.2a7.2 7.2 0 001.7-.2 1.8 1.8 0 00.8-1.3 8.2 8.2 0 00-.1-1 2.4 2.4 0 010-1 .8.8 0 01-.2-.7 1 1 0 000-.8 1.5 1.5 0 00.5-1 71.4 71.4 0 00-.2-4v-.1a1 1 0 00.2-.6zm0-12.9a3.7 3.7 0 00-.1-.7 2 2 0 01-.1-.8v-.2a1.1 1.1 0 00.2-.6 3 3 0 00-.7-1.4q-.8-1-1.4-1a3 3 0 00-2.1 1q-1 1-1 1.6a.9.9 0 00.3.7 4.2 4.2 0 00-.3 1.7v1.5a1.4 1.4 0 00.3.8 10.7 10.7 0 00-.2 2.4V47q0 1.2 2.4 1.2a7.3 7.3 0 001.7-.2 1.8 1.8 0 00.8-1.4 8.1 8.1 0 00-.1-1 2.4 2.4 0 010-.9.9.9 0 01-.2-.8 1.1 1.1 0 00-.1-.8 1.5 1.5 0 00.6-1 2.5 2.5 0 00-.6-1.3 1.3 1.3 0 00.6-1zM84.6 33.7a1.3 1.3 0 00-.2.7 16.7 16.7 0 01-.1 2.3 13 13 0 00-.7 1.4 16.3 16.3 0 01-.1 1.7 2 2 0 01-.4.8 9 9 0 01-.4 2.5 2.7 2.7 0 00.3 2v.3c-.4.5-.7 1.3-1.2 2.3a5.3 5.3 0 000 1 6.3 6.3 0 00-.5 1.5l-.4 2.7a4.1 4.1 0 01-.9 1.8v.4a2.4 2.4 0 000 1.1 6.9 6.9 0 01.2.7 16.5 16.5 0 00-1 2 1.2 1.2 0 000 1q-.1 1.4-.6 4a1 1 0 01-.1.4 4.9 4.9 0 01-2.4.3 6.5 6.5 0 00-1.5.3 6.6 6.6 0 01-1.6.3 2.8 2.8 0 01-2.3-1q-1.6-.5-1.3-1.3a1.4 1.4 0 01.4-.9 17.2 17.2 0 001.6-1 2.9 2.9 0 001-1.6 7.8 7.8 0 01.2-1.4l.6-2.4a16 16 0 01.6-2 14 14 0 00.7-2 13.6 13.6 0 00.2-2.2 16 16 0 01.2-2.3l.5-1.5a4.5 4.5 0 00.4-1.6 3.6 3.6 0 00.2-.7 7.7 7.7 0 00-.4-1.9 12.6 12.6 0 00-.6-2.1 1.8 1.8 0 01-1.2-.2 1.1 1.1 0 01-.6-.8 2.4 2.4 0 00-1.1-.2 6 6 0 01-1.6-.4l-1.6-.1-.2-.3a3 3 0 00-1.6 1c-.6.5-1.1.8-1.4.8a1.3 1.3 0 01-.9-.4 1.2 1.2 0 01-.4-.8 4.3 4.3 0 01.7-1.6 4.2 4.2 0 00.7-2 1.4 1.4 0 00-.2-.6h5.7a2.7 2.7 0 01.5.1h1.1a27.8 27.8 0 003.5-.2 28.6 28.6 0 013.3-.3h.1a1.7 1.7 0 001 .4h1.1a1.3 1.3 0 01.9.2v.1a4.5 4.5 0 001.5-.3z"/>
  <path class="a" d="M165.5 32.6z"/>
  <path class="b" d="M101.5 55.3c0-1-.9-4-.9-4.6V50a19 19 0 01.3-2.7c0-.6 1.2-4 1.1-4.4a7.5 7.5 0 00.2-1.5v-1.6c0-.4-1.2-1.1-1.2-2.2v-2.2a13.8 13.8 0 010-2 1.2 1.2 0 00-.7-.2 8.5 8.5 0 00-1.9.3 8.6 8.6 0 01-2 .4 5.1 5.1 0 01-.8-.1 5.2 5.2 0 00-.7 0c-.2 0-.4.1-.6.5a1.6 1.6 0 000 .5 4.9 4.9 0 000 1 5.4 5.4 0 01.2 1 8.3 8.3 0 01-.1 1.2 7.2 7.2 0 00-.2 1.2 1.6 1.6 0 00.3 1 2.7 2.7 0 01-.2.8 1.6 1.6 0 00-.1.8H94a2.5 2.5 0 01.5 1.7 4.7 4.7 0 01-.5 2 18.3 18.3 0 01.1 2.4v3.3a3 3 0 00.3 1 2.9 2.9 0 01.2.8 3.7 3.7 0 00-.3 2 7.3 7.3 0 01-.2 2 3.2 3.2 0 01.3 1.3 7.3 7.3 0 01-.3 1.6 4.5 4.5 0 00-.2 1.7v.3a2.2 2.2 0 01.2 1v1.3a.8.8 0 001 .8 2.8 2.8 0 00.7 0 6.6 6.6 0 01.7-.1 2.2 2.2 0 001 .2A5.6 5.6 0 0099 65a4 4 0 011.4-.3h.5a.8.8 0 000-.2 1.7 1.7 0 00-.1-.6 2 2 0 01-.1-.6 7.5 7.5 0 01.3-1.8 7.5 7.5 0 00.3-1.9 6.8 6.8 0 00-.2-1.8 2.3 2.3 0 01.2-.2c-.4-1 .2-1.2.2-2.2zM112.7 61.5a1.8 1.8 0 00-.4-.8 1.3 1.3 0 01-.5-.9v-1.7c0-.6-1.3-1.2-1.6-1.7a9 9 0 00-1-2.7 4.9 4.9 0 00-1.4-2.3l.5-2.3c-.3-.5.6-1 .6-1.6a4.7 4.7 0 011-2.3 6.4 6.4 0 00.9-1.7 2.4 2.4 0 00-.2-.6 2.4 2.4 0 01-.1-.7 1.5 1.5 0 01.1-.7 4.7 4.7 0 00.9-1.4l.5-1.6a2.4 2.4 0 01-.1-.7 3.4 3.4 0 011-2 3.3 3.3 0 00.9-1.7c0-.4-.2-.7-.6-.7h-1a4.1 4.1 0 01-1.4.3 6 6 0 01-1.1-.1 6.4 6.4 0 00-1-.2c-.6 0-.3.3-1 1-1 .5-2.4 1-2.4 1.5a3.8 3.8 0 00.1 1 4.2 4.2 0 01.2.9 8 8 0 01-.4 2 5.5 5.5 0 01-.7 1.6l-.1 1.3c0 .6.5 1.3.3 1.8a3 3 0 00-.3.9c0 .2-1 .6-.8 1.1.3.6-.7 4.9-1 4.9h-.7c0 1.3-.4 1.4.5 4.3.3-.2.4 1.4.6 1.4l.7.5a2.8 2.8 0 011.7 2.3 3.6 3.6 0 00.8 2.2 9.9 9.9 0 00.1 1 1.3 1.3 0 00.4 1c0 .7.5 1.1 1.3 1.2h2.1l1.3-.3a4.7 4.7 0 011.2-.2 4.3 4.3 0 01.8 0 1.2 1.2 0 00.3-.8 3.6 3.6 0 01-.4-1.3 2 2 0 00-.6-1.2zM122.7 38.5v3a6.8 6.8 0 01.4 4.5 1.9 1.9 0 00-.5 1.2 1.6 1.6 0 00.4.9 3.2 3.2 0 01-.2.9 3 3 0 00-.2.9 4.8 4.8 0 00.1.9 1.2 1.2 0 01.4.8 2.7 2.7 0 01-.3 1 2.6 2.6 0 00-.2 1 1.3 1.3 0 00.5 1 9.5 9.5 0 00-.5 2.2 3.3 3.3 0 00.2 1 3.4 3.4 0 01.2.9 3.2 3.2 0 01-.4 1.3 3.3 3.3 0 00-.4 1.3 5.6 5.6 0 00.2 1.2 5.4 5.4 0 01.2 1.3 4.2 4.2 0 010 .7l-.8.2h-.8a3 3 0 00-.7.1 3 3 0 01-.8.1 4 4 0 01-.8-.1 4 4 0 00-.8-.1 1.7 1.7 0 00-1.3.5c-.3 0-.5-.4-.6-1v-1a5.5 5.5 0 000-1.1 3.2 3.2 0 00.1-1V60l-.1-1.1a1.9 1.9 0 01.3-1.1v-.4a2.8 2.8 0 00-.2-1V56c0-.3-1.7-.7-2-1.2a2.7 2.7 0 01-.3-1 1.6 1.6 0 01.3-.7 1.8 1.8 0 00.4-1c0-.2 1-.6.9-1a3.3 3.3 0 01-.2-1 1 1 0 01.4-.6 6.8 6.8 0 00-.2-1.3c-.2-.6.3-1 .3-1.4a2.7 2.7 0 01.4-1.6l-.2-1.4a7.5 7.5 0 01-.2-1.5 6.2 6.2 0 01.2-1.3 6.5 6.5 0 00.2-1.4 14.9 14.9 0 00-.2-2 14.3 14.3 0 01-.2-2 2.2 2.2 0 01.7-1.7 16.7 16.7 0 012.9-.3 19.8 19.8 0 014 .3c.6.5 1 .8 1 1.2a7.1 7.1 0 01-.3 1.6 1 1 0 00-.2.5c0 .3-.6.2-1 1.3zM133.6 48a2 2 0 00-.8 1.5 3 3 0 00.1.8 3.2 3.2 0 01.2.7 7.7 7.7 0 01-.2 1.2 7.3 7.3 0 00-.1 1.2V55c0 1.4.9 2 2.6 2a.8.8 0 01.7.4q.5.3.5 1.3a1.7 1.7 0 001 1.5l3.5.4.2.4-.5 1.8a1.6 1.6 0 00.5 1.1c-.1.2-.4.3-.8.4a3.4 3.4 0 00-1 .3l-1.4-.3a1.2 1.2 0 00-.7.2 4 4 0 00-1 .3 3 3 0 01-1 .3.8.8 0 00-.3 0 2.6 2.6 0 00-1.7-.8 2.9 2.9 0 00-1.3.4 3.3 3.3 0 01-.9.4 2.4 2.4 0 00-1.7-.6 7.7 7.7 0 01-1.7-.2 4.7 4.7 0 00-1.3.3h-.3V64a7.7 7.7 0 00-.1-1.2 6.7 6.7 0 01-.2-1.2 2.7 2.7 0 01.2-.7 3 3 0 00.1-.7 4.2 4.2 0 00-.1-.9 3.7 3.7 0 01-.2-.8 1.8 1.8 0 01.3-.8 9 9 0 01-.2-2.5 3 3 0 00-.6-2v-.4a2.6 2.6 0 01.2-1.1 3 3 0 00.3-1.1 1.7 1.7 0 00-.2-1 4.5 4.5 0 00.2-1.5 10.4 10.4 0 00-.1-1.4 11.3 11.3 0 01-.1-1.4 2.7 2.7 0 01.5-1.8V43a3 3 0 00-.3-1 3.8 3.8 0 01-.2-.8 3 3 0 01.2-1 2.9 2.9 0 00.3-1 1 1 0 00-.4-1l-.1-4a1.6 1.6 0 010-.4 4.2 4.2 0 012.2-.3 6.2 6.2 0 001.5-.3 6.2 6.2 0 011.5-.3 3.5 3.5 0 012.6 1c1.1.3 1.6.8 1.6 1.3a1.4 1.4 0 01-.2.9q-2.1 1.5-2.1 2.7a2.7 2.7 0 00.1.7 3 3 0 01.2.7 13.3 13.3 0 01-.2 1.6 16 16 0 00-.1 1.7zM151.8 48a2 2 0 00-.9 1.5 3.2 3.2 0 00.2.8 3 3 0 01.1.7 7 7 0 01-.1 1.2 8 8 0 00-.2 1.2V55c0 1.4 1 2 2.6 2a.8.8 0 01.8.4c.3.2.4.6.5 1.3a1.7 1.7 0 00.9 1.5l3.5.4.2.4a30 30 0 00-.4 1.8 1.6 1.6 0 00.4 1.1 1.3 1.3 0 01-.8.4 3.5 3.5 0 00-.9.3l-1.4-.3a1.1 1.1 0 00-.7.2 4 4 0 00-1 .3 3 3 0 01-1 .3h-.1a.8.8 0 00-.2 0 2.6 2.6 0 00-1.7-.8 3 3 0 00-1.4.4 3.4 3.4 0 01-.8.4h-.1a2.4 2.4 0 00-1.6-.6 7.5 7.5 0 01-1.7-.2 4.6 4.6 0 00-1.3.3h-.3V64a7.1 7.1 0 00-.2-1.2 7 7 0 01-.1-1.2 2.8 2.8 0 01.1-.7 2.8 2.8 0 00.2-.7 3.9 3.9 0 00-.2-.9 3.8 3.8 0 01-.1-.8 1.9 1.9 0 01.3-.8 9 9 0 01-.2-2.5 3 3 0 00-.7-2v-.4a2.4 2.4 0 01.3-1.1 3 3 0 00.3-1.1 1.6 1.6 0 00-.3-1 4.4 4.4 0 00.3-1.5 9.6 9.6 0 00-.1-1.4 10.9 10.9 0 01-.2-1.4 2.7 2.7 0 01.6-1.8V43a2.8 2.8 0 00-.3-1 3.7 3.7 0 01-.3-.8 3 3 0 01.3-1 2.8 2.8 0 00.3-1 1 1 0 00-.5-1v-4a2 2 0 010-.4 4.2 4.2 0 012.2-.3 6.1 6.1 0 001.5-.3 6.2 6.2 0 011.5-.3 3.5 3.5 0 012.6 1c1 .3 1.6.8 1.6 1.3a1.4 1.4 0 01-.3.9q-2 1.5-2 2.7a3 3 0 000 .7 2.7 2.7 0 01.2.7 12.3 12.3 0 01-.1 1.6l-.2 1.7zM177.6 61l-.5 2a1.6 1.6 0 00.5 1 1.4 1.4 0 01-.8.4 3.6 3.6 0 00-1 .3l-1.4-.3a1.1 1.1 0 00-.7.2 4 4 0 00-1 .3 3 3 0 01-1 .3.7.7 0 00-.2 0 2.6 2.6 0 00-1.8-.8 2.8 2.8 0 00-1.3.4 3.2 3.2 0 01-.8.4h-.2a2.3 2.3 0 00-1.5-.6 7.6 7.6 0 01-1.7-.2 4.7 4.7 0 00-1.4.3h-.3V64a5.8 5.8 0 00-.1-1.2 5.8 5.8 0 01-.2-1.2 2.3 2.3 0 01.2-.7 2.3 2.3 0 00.1-.7 3.2 3.2 0 00-.1-.9 3.2 3.2 0 01-.2-.8 1.6 1.6 0 01.3-.8 9 9 0 01-.2-2.6 3 3 0 00-.6-2v-.3a2.6 2.6 0 01.2-1.1 3.5 3.5 0 00.3-1.1 2 2 0 00-.2-1 6 6 0 00.2-1.5 13.9 13.9 0 00-.1-1.4l-.1-1.4a2.7 2.7 0 01.5-1.8V43a2.9 2.9 0 00-.2-1.1 4 4 0 01-.3-.7 2.8 2.8 0 01.3-1 2.9 2.9 0 00.2-1 1.6 1.6 0 00-.3-1 16.3 16.3 0 000-2l-.2-2.1a.3.3 0 01.1-.3 4.2 4.2 0 012.2-.3 6 6 0 001.5-.3 6 6 0 011.5-.3 3.5 3.5 0 012.5 1l1.5-.2a10.9 10.9 0 002.2.8c.2 0 .6.9 1 .3.2-.6 2.1-.8 2.3-.7l.5 2.8c-.1.2-1.2 0-2.3.8-.8.7-.6-.4-1.2-.4-.7 0-2.2-2.3-2.2-.4l-.4.6-2 1.5a7 7 0 01.1 1.3V42c-.2.7-.2 1.3-.2 1.6 0 1.2.5 1.8 1.6 1.8a3.3 3.3 0 00.8-.1 3.5 3.5 0 01.8-.1 6.8 6.8 0 012.4.4c1 .4 1.5 1 1.5 1.6a3.4 3.4 0 01-.4 1.1 2.2 2.2 0 01-1.5.6s-1 2.1-2.8 1.8a4.1 4.1 0 00-1.6-.6 2 2 0 00-.5 1.7 6.8 6.8 0 01-.3 1.6V55c0 1.4.9 2 2.6 2a.8.8 0 01.8.4c.2.2.4.6.5 1.3a1.7 1.7 0 00.9 1.5l3.5.4zM191.4 43.1c-1.3-1 .3-2.8.3-3a2.6 2.6 0 00-.6-1.4 3 3 0 01-1.2-.6 2.5 2.5 0 00-1.3-.5 1.4 1.4 0 00-.9.3 3.2 3.2 0 00-.7 2.1c0 .2-1.6 1.4-.3 2.4l-.4 3.7a10.2 10.2 0 00-.3 2c0 .5-.2 2.3.2 2.7.4.5 1.2-.6 1.8-.6a1.8 1.8 0 001.5-.9 10 10 0 011-1.4 3.7 3.7 0 00.2-1 2.7 2.7 0 00-.2-.8 2.7 2.7 0 01-.2-.7 5.3 5.3 0 01.4-1c0-.3.9.3.7-1.3zM199 65a2.7 2.7 0 01-.9.1 8.6 8.6 0 01-1.5-.2 9 9 0 00-1.6-.2 3.2 3.2 0 00-1.6.4 1.7 1.7 0 01-1.4-.7V64a2.3 2.3 0 00-.5-1.3 2.5 2.5 0 01-.5-1 1 1 0 01.3-.6 8.2 8.2 0 00.4-2.4 5 5 0 00-.2-1 5 5 0 01-.2-1.1 3.1 3.1 0 00-2.1-1.5 1.4 1.4 0 00-1.6 1.2l-.2 2.1c.2.5-.2 1.1-.2 1.5a1.5 1.5 0 01-.5 1 15.8 15.8 0 000 1.7 4.4 4.4 0 00.3 1.5 1.7 1.7 0 01-.6 1.2h-.5a3 3 0 01-2-.6 13.1 13.1 0 01-3.3.3c-.2 0-.4-.2-.6-.5v-.2a4.2 4.2 0 01.2-1 4.1 4.1 0 00.1-.9 1.9 1.9 0 00-.6-1.5l.2-2.7a7 7 0 01.7-2.6 10.7 10.7 0 01-.7-2.7 4.4 4.4 0 01.1-1 4.5 4.5 0 00.2-1 11.9 11.9 0 000-1.4 10.4 10.4 0 01-.2-1.3 2.5 2.5 0 01.3-1.2 14.6 14.6 0 01-.3-2 2 2 0 01.3-1 35 35 0 01-.3-6.2 1.7 1.7 0 01.6-1.4 6.5 6.5 0 01-.4-1.7 1 1 0 01.2-.6 21.6 21.6 0 016.3-.4 2.3 2.3 0 011.2-.3 6.8 6.8 0 011.9.4 6.6 6.6 0 001.9.4 3.9 3.9 0 00.8-.1l1.7.3 1.7.7a2.6 2.6 0 011.5 1.4 13 13 0 001 1.8 1.7 1.7 0 01.1.7 8.7 8.7 0 01-.1 1.4 8 8 0 00-.2 1.4v1c0 .3-1.7.9-1.7 1.5v1.5a1.5 1.5 0 01-1 1.5 1.3 1.3 0 00-1 1.3l.8 1.3a2.8 2.8 0 001.2 1v.6a5.3 5.3 0 00.2 1.2 6 6 0 01.2 1.2 12 12 0 01-.1 1.3c0 .6 1.5 1 1.5 1.4a4 4 0 00.2 1.4 4.3 4.3 0 01-.1 1 4.1 4.1 0 00-.2 1 7.8 7.8 0 00.3 1.7 6.4 6.4 0 01.2 1.8.5.5 0 00-.2.4 1 1 0 00.3.6 1.2 1.2 0 01.2.5zM231.2 43.3a1.8 1.8 0 01-.4 1l.2 2.2a2.5 2.5 0 01-1.2 2.3 3 3 0 01-1 1.9l-1.8 1.5a6.4 6.4 0 00-1.6.3 6.4 6.4 0 01-1.7.4 1.8 1.8 0 01-.7-.2 1.2 1.2 0 01-.2-.7 3.2 3.2 0 010-.8v-.8a3.2 3.2 0 000-1 4.9 4.9 0 01.5-2 5.2 5.2 0 00.7-2.3 23.8 23.8 0 000-2.2 3.2 3.2 0 01.2-1 2 2 0 00-.8-1.4l-1.3-.9a8 8 0 01-.7-.7 1.1 1.1 0 00-.8-.5 1.3 1.3 0 00-1.2.6 2.3 2.3 0 00-.4 1.4v3.1l.1 2.3.2 2.4a1.8 1.8 0 01.2.9 3.8 3.8 0 01-.1.8 4 4 0 00-.2 1 1.5 1.5 0 00.3.8 2 2 0 00-.2.8c0 .2.5.7.5 1a1.2 1.2 0 01-.5.7 2.7 2.7 0 000 .9c0 .5 0 .3.3.7a2.2 2.2 0 00.8.2c.2 0 0 1 .5.8a2.6 2.6 0 01.8-.3.9.9 0 01.7.4c.2.4 1 .7 1 1-.1.4-.9.8-1.3 1a2.6 2.6 0 00-1.6.6l-2.1.7a5.8 5.8 0 01.8 1.6 2.3 2.3 0 00.2.6 1.3 1.3 0 010 .7 6 6 0 01-.5 1.7h-.3a3.4 3.4 0 00-1.4.3 4.3 4.3 0 01-1.4.3 1.9 1.9 0 01-.7-.2 2 2 0 00-.8-.2 4.4 4.4 0 00-.7 0 4.7 4.7 0 01-.8.1l-1-1.1c-.6-.5-.8-1-.8-1.2a6.8 6.8 0 01.7-1.4 4.6 4.6 0 00.8-2.3 3.4 3.4 0 00-.2-1.2v-1.5a6.4 6.4 0 00-.6-3.1v-2.4a5.6 5.6 0 00-.7-3 4.1 4.1 0 01.7-1.8 4.7 4.7 0 00.6-2.3 9.2 9.2 0 01.2-1.6 9.7 9.7 0 00.2-1.5 5.2 5.2 0 00-.4-2.3V38a11.1 11.1 0 010-1.3c.2-.5.2-1 .2-1.2a3.1 3.1 0 00-.2-1.2 8.7 8.7 0 001.2-.4 4.4 4.4 0 011.3-.2 1.8 1.8 0 011 .4l1.5.1a4 4 0 001-.2 4.1 4.1 0 011-.1h.2a.7.7 0 00.2 0 1.4 1.4 0 00.8.3 3 3 0 00.7-.1 1.9 1.9 0 01.7-.1 5.3 5.3 0 01.6.2 8.9 8.9 0 001.2-.1 9 9 0 011.1-.1 3.2 3.2 0 013 1.4l1.5.7a1.4 1.4 0 01.6 1.3c.6.3.8.6.8.9v.7a6.6 6.6 0 00-.1.9 2 2 0 00.4 1.1l-.2.2a4.5 4.5 0 00.2 1 5.1 5.1 0 01.2 1.1zM243.2 56.6c0-.6-.3.3-1-.6-.6-.8-.7-1.3-.3-2a4.6 4.6 0 00.6-2.3 13.4 13.4 0 00-.3-2.5 21.3 21.3 0 01-.4-2.3 1 1 0 00-1-1c-1 0-1.4.6-1.4 1.7a3.6 3.6 0 00.4 1.4 4.1 4.1 0 01.3 1 1.7 1.7 0 01-.5 1 6.2 6.2 0 00-1 1.4 3 3 0 00-.4 2 2.3 2.3 0 01-.3.9 2.3 2.3 0 00-.3 1c0 .2.3.1 0 .5a5.2 5.2 0 00-.3.9l.2.6a1.1 1.1 0 00.6.6h.6a5.3 5.3 0 011.4.3 5.1 5.1 0 001.3.2 1.6 1.6 0 001.6-.8 5.9 5.9 0 00.2-2zm7.3 7.9a.1.1 0 01-.1 0h-.4a9 9 0 00-1.4.3 9 9 0 01-1.4.1 2.9 2.9 0 01-1.2-.3h-.4c-.2 0-.8-2.7-2-2.6a6 6 0 01-2 0 6.7 6.7 0 00-1.3.4 23.4 23.4 0 01-2.8-.5 3.3 3.3 0 00-1.6.5c-.3-.2-.9 2.6-1.6 2.7a2.5 2.5 0 01-1.5-.2 2.8 2.8 0 00-.6.1 2.8 2.8 0 01-.7.1.7.7 0 01-.3-.5 2.7 2.7 0 01.3-1 2.8 2.8 0 00.3-1.1 2.7 2.7 0 000-.6 2.5 2.5 0 01-.2-.7 4 4 0 00.2-1.5 7.4 7.4 0 00.3-1.7 5.3 5.3 0 01.3-1.8v-.5a2.7 2.7 0 01.8-2l.1-2.4a3.2 3.2 0 01.6-2v-.5a2 2 0 01.2-1l.3-1a2.1 2.1 0 000-.9l-.1-1a8.9 8.9 0 01.8-3.1c.5-1.3-.6-1.5-.6-2a5.3 5.3 0 00-.4-2.1c-.2 0 .1-.6.2-1a3 3 0 000-1 2.7 2.7 0 01.1-.6 1.6 1.6 0 011.3-.8 1.5 1.5 0 01.8.2 4 4 0 000-.7.9.9 0 01.9-.5 4.4 4.4 0 01.9.1 4 4 0 00.8.2 2 2 0 001-.3 4.4 4.4 0 002.4 0 1.9 1.9 0 001.3.7 1.5 1.5 0 00.8-.2 1.2 1.2 0 01.7-.2h.2l.6 1.3a5.2 5.2 0 01.6 1.2 4.2 4.2 0 01-.3 1.2 4.6 4.6 0 00-.3 1.3 2.1 2.1 0 00.8 1.5 2.7 2.7 0 00.3 1 2.7 2.7 0 01.2 1 1.3 1.3 0 01-.1.6 12 12 0 01.8 4.2v.7a2.4 2.4 0 00-.5 1.2 1.2 1.2 0 00.2.7 4.2 4.2 0 01.6 2.1 9.1 9.1 0 00.2 2.2 1.6 1.6 0 00-.1.7 3.1 3.1 0 00.2 1 5.5 5.5 0 01.3 1 1.2 1.2 0 010 .5v.4a2.4 2.4 0 00.7 1.3 2.2 2.2 0 00-.2.8 7.5 7.5 0 00.3 1.8 7.8 7.8 0 01.3 1.8 2.3 2.3 0 00.2.7 2.6 2.6 0 01.2.7zM271.8 49.3a5 5 0 01-.1 1 5.3 5.3 0 00-.2 1.2 1.9 1.9 0 00.1.7 7.8 7.8 0 000 2.6 20.8 20.8 0 01-.6 3.5 1.6 1.6 0 000 .5 1.4 1.4 0 000 .5.7.7 0 01.1.4v.1a7.6 7.6 0 00-1.5 2.6c-1.3 1.4-2.5 2.1-3.5 2a2 2 0 01-1.2.2 2.6 2.6 0 00-1.2 0c-.2 0-.2 0-.2-.2a16 16 0 000-1.6 6.1 6.1 0 011.1-2.4c0-.3.6-.1.9-1.1.2-.8-.8-1.5-.8-2a4.4 4.4 0 00-.5-1.8 3.9 3.9 0 01.3-1.2 4 4 0 00.4-1.3 1.5 1.5 0 00-.3-.8 4.6 4.6 0 00.3-1.6 20.6 20.6 0 00-.7-3.5v-.5a2.2 2.2 0 00-.1-1c-.4-.2-.2-3.3 0-3.4a2.4 2.4 0 00.8-1 5.3 5.3 0 00-1-2.5 2.6 2.6 0 00-2.2-1.3c-1.2 0-1.8 1-1.8 3v4a2.5 2.5 0 00.3 1.3v3.2a5.3 5.3 0 01-.3 1.7 2 2 0 01.6 1.3 4.6 4.6 0 01-.3 1.4 4.6 4.6 0 00-.3 1.4v1.2s0 2-.6 2.2c-.6 0 1 1.5 1.2 1.7 0 .4 1.2.2 1.4.8l.5.8a2.7 2.7 0 00.3 1.3 3.1 3.1 0 01.4 1 1 1 0 01-.4.8 1.4 1.4 0 01-1 .3c-.4 0-2.4-.2-2.8-.6-.1-.7-3 .5-3.5.6a3.3 3.3 0 01-.9.2 2.7 2.7 0 01-1.5-.5 2.2 2.2 0 01-1-1.3 3 3 0 01.7-1.4 3.4 3.4 0 00.7-2 7 7 0 00-.1-1 8.2 8.2 0 01-.1-1 3 3 0 01.1-1v-.6a2.3 2.3 0 00-.2-1.5 4 4 0 00-1-1 3.1 3.1 0 001.3-1.9 1.2 1.2 0 01-.4-.7 3 3 0 01.2-.8 2.6 2.6 0 00.2-.8 1.6 1.6 0 00-.4-1l.4-1.7a5.2 5.2 0 00-.2-1.2 5.8 5.8 0 01-.2-1 1.2 1.2 0 01.3-1 2.7 2.7 0 000-.8 5.7 5.7 0 000-1.5 9.1 9.1 0 01-.3-1.5 7.4 7.4 0 01.2-.7 3.8 3.8 0 00.2-1 2.3 2.3 0 00-.2-.9 2 2 0 00.2-.8 3 3 0 00-.3-1.2 3 3 0 01-.3-.9c0-.1.2-.4.6-.6a2.2 2.2 0 011-.4h.2a2.4 2.4 0 001.6.4 2.4 2.4 0 001.1.3l2.4-.5a34.5 34.5 0 013.6 0 3 3 0 012 .5l2.1.4a3 3 0 011.7 1.3 2 2 0 001 .7 2 2 0 01.7.5 9.3 9.3 0 01.5 2.7 7.2 7.2 0 00.5 3 11.5 11.5 0 00-.2 2.7l-.1 2.9a2 2 0 01.3 1zM292 54.6a5.7 5.7 0 010 .7 6 6 0 00-.1.8 1.6 1.6 0 00.6 1.4l-.7 1.6-1.3 3a2.6 2.6 0 01-2.7 1.8h-.6a4.4 4.4 0 00-1.9.4 5.8 5.8 0 00-.8-.1 3.3 3.3 0 00-1.4.4 3.1 3.1 0 01-1.1.4 1.5 1.5 0 01-1-.4h-1.4a17.7 17.7 0 01-4.8-2.7 18 18 0 01-.5-2.4 5.9 5.9 0 00-.9-2.4l.4-1a2.1 2.1 0 00.1-1 2.6 2.6 0 00.4-1.4l-.2-1.2a.6.6 0 01.5-.2h1a3.4 3.4 0 001.2 0 6.9 6.9 0 001.7.3c1.3 0 2 0 2-1l-.1-.5a5.5 5.5 0 001.1.4l.1.5v.6a2 2 0 00.1.8 2 2 0 01.2.6 2.7 2.7 0 01-.6 1.2 3 3 0 00-.7 1.8 5.5 5.5 0 00.5 2c.3 1 .8 1.4 1.3 1.4h.5A8.7 8.7 0 00285 59l.3-1.2a5 5 0 00.2-1.1 2.4 2.4 0 00-.5-1.5 1.7 1.7 0 01-.8-1.4v-1.8a5.2 5.2 0 00-.2-1 5.1 5.1 0 01-.1-1 9 9 0 01.2-1.5c.2-.8-5.3-1.3-5.3-1.8v-.6a45.5 45.5 0 00-4.5-2 3.3 3.3 0 01-.4-1.1 4 4 0 00-.3-1.1 7.7 7.7 0 01.3-1 3 3 0 00.2-1.1 1.9 1.9 0 00-.4-1.1 8 8 0 011.7-4.1 4.6 4.6 0 012.4-1 7.2 7.2 0 002.9-.8 5.3 5.3 0 00.9.2 8.3 8.3 0 001.1-.2 3.9 3.9 0 011.2 0 2 2 0 01.7-.2 2.7 2.7 0 011.1.4 8.6 8.6 0 00.8.4h.9a8.5 8.5 0 01.9-.1 1 1 0 01.5.1 11.3 11.3 0 001.7 1.6 2.5 2.5 0 011 2 1.8 1.8 0 01.4.8 3.2 3.2 0 010 .8v.9a2 2 0 00.4 1.3 1.7 1.7 0 01-.3.7 1.6 1.6 0 00-.2.8c0 .3.1.3.5.7l-3 .6c-.6 0-.3-1.5-.9-2.2-.9.2-2.1-.7-2.8-.7-1.5 0 .3 1.7-.3 2.6l.1.1a1.7 1.7 0 001 1.7c.8.3 1.2 2.3 1.2 2.7a7.9 7.9 0 002 1.8 12 12 0 012 1.8 3.4 3.4 0 00.7.2c.3 0-.4 2.9-.4 2.9"/>
</svg>
