<svg xmlns="http://www.w3.org/2000/svg" viewBox="0 0 709 236.3">
  <defs>
    <style>
      .a{fill:#d2232a}.b{fill:#231f20}.c{fill:none}
    </style>
  </defs>
  <path class="a" d="M339 181l4-1a16 16 0 016 1 25 25 0 015 2 33 33 0 015 4 56 56 0 014 4v1a5 5 0 01-1 3 10 10 0 01-3 3 23 23 0 01-4 1l-3 1a18 18 0 00-3 2 3 3 0 00-2 2l1 1v3a2 2 0 01-2 2 4 4 0 01-3-1 14 14 0 01-2-4 34 34 0 01-2-5l-1-6-1-4v-4q0-3 2-5zm4 10a17 17 0 000 3 12 12 0 001 2 5 5 0 002 2l3-1a25 25 0 003-1 14 14 0 003-2 3 3 0 001-2 4 4 0 00-1-3 12 12 0 00-3-2 18 18 0 00-4-1 14 14 0 00-3-1 9 9 0 00-1 0 1 1 0 00-1 1 2 2 0 000 1 7 7 0 000 1 25 25 0 000 3zM364 197a46 46 0 010-6 31 31 0 012-5 14 14 0 012-5 12 12 0 014-3 14 14 0 016-1 20 20 0 014 1 10 10 0 014 1 7 7 0 012 2 8 8 0 011 4 11 11 0 01-1 5 15 15 0 01-2 4 23 23 0 01-3 2l-3 3a18 18 0 00-3 2 4 4 0 000 3h23l-3 2a5 5 0 01-1 0h-2l-2 1h-3a84 84 0 01-5 1h-1l-3 1h-5a97 97 0 01-4 0 9 9 0 01-1 1 4 4 0 01-1 1 4 4 0 01-1 0 9 9 0 01-1 0 3 3 0 01-2-1 5 5 0 01-1-2 11 11 0 01-1-3v-2l1-6zm12-15a9 9 0 00-2 1 6 6 0 00-2 2 5 5 0 00-1 2v13a2 2 0 001 0h1a30 30 0 003-2 5 5 0 001-1l2-1 2-2a147 147 0 003-4l1-1a63 63 0 000-3 1 1 0 010-1l-1-2a5 5 0 00-2-1 3 3 0 00-1 0h-2a14 14 0 00-3 0z"/>
  <path class="a" d="M396 197a15 15 0 013-3 20 20 0 014-2 11 11 0 014-1 20 20 0 019 2 12 12 0 014 3 7 7 0 011 5 5 5 0 010 2 8 8 0 01-2 2 13 13 0 01-2 2 18 18 0 01-3 1 21 21 0 01-3 1 14 14 0 01-2 0h-3a26 26 0 01-3 0 22 22 0 01-3-1 11 11 0 01-3-2 8 8 0 01-2-2 6 6 0 01-1-3 6 6 0 012-4zm4 7a6 6 0 003 1 17 17 0 002 1h3l2-1a13 13 0 003 0 7 7 0 003-1 3 3 0 001-3 3 3 0 000-1 9 9 0 00-1-1 6 6 0 00-1-1 2 2 0 00-1-1 48 48 0 00-2 1 2 2 0 01-1 0h-1l-1-1-2-1v-1h-1a6 6 0 00-2 1 8 8 0 00-2 2 8 8 0 00-2 2 6 6 0 00-1 2 2 2 0 001 2zM452 202l3 1 4 1a11 11 0 003 1 18 18 0 002 0 6 6 0 00-3-4 17 17 0 00-3-2l-5-1a37 37 0 01-4-2 11 11 0 01-3-2 4 4 0 01-1-3 4 4 0 011-3 16 16 0 013-2 35 35 0 014-3l4-2a35 35 0 014-1 10 10 0 012-1 3 3 0 012 1 2 2 0 011 1 12 12 0 01-1 2 3 3 0 010 2l-3 1-3 2-4 1a13 13 0 01-3 1l1 2a24 24 0 004 2l4 2a25 25 0 014 2 13 13 0 014 3 7 7 0 011 4 3 3 0 01-1 2 7 7 0 01-1 2 8 8 0 01-3 1 8 8 0 01-2 0 17 17 0 01-2 0 26 26 0 01-4-1 21 21 0 01-3-1 15 15 0 01-2-2 9 9 0 01-2-2 5 5 0 01-1-2 11 11 0 013 0zM471 197a10 10 0 010-1 6 6 0 010-1 3 3 0 011-1l10-10a2 2 0 010-1 8 8 0 011 0h1a3 3 0 011 0 4 4 0 011 0 5 5 0 012 1 5 5 0 011 1 3 3 0 010 2 3 3 0 010 1 5 5 0 01-1 1 4 4 0 010 1 1 1 0 01-1 0 1 1 0 01-1 0 4 4 0 00-1-1 5 5 0 00-3 1 15 15 0 00-2 2 22 22 0 00-2 2l-2 1a14 14 0 010 2v1a6 6 0 001 3 4 4 0 001 2 6 6 0 003 1 24 24 0 003 0 16 16 0 003-1h3l3-1a16 16 0 014 0 3 3 0 01-1 2 7 7 0 01-3 1 16 16 0 01-3 2 33 33 0 01-3 0h-6a17 17 0 01-4 0 9 9 0 01-3-2 7 7 0 01-2-2 10 10 0 01-1-4v-2z"/>
  <path class="a" d="M496 199a14 14 0 012-5 11 11 0 014-3 10 10 0 015-1 7 7 0 013 1 14 14 0 014 3 16 16 0 012 4 9 9 0 011 3 7 7 0 01-1 5 9 9 0 01-4 2 15 15 0 01-4 2 26 26 0 01-5 0 15 15 0 01-2 0h-1a2 2 0 01-1 0l-3-4v-1-1-1a16 16 0 010-4zm5 5a4 4 0 001 2 5 5 0 002 0 9 9 0 001 1 17 17 0 003-1 8 8 0 002 0 4 4 0 002-2 3 3 0 000-2 4 4 0 000-2 9 9 0 00-2-2 10 10 0 00-3-1 7 7 0 00-2-1 3 3 0 00-2 1 6 6 0 00-2 1 8 8 0 000 2 7 7 0 00-1 2 4 4 0 001 2z"/>
  <path class="a" d="M518 199a14 14 0 012-5 11 11 0 014-3 10 10 0 015-1 7 7 0 013 1 14 14 0 013 3 16 16 0 013 4 9 9 0 011 3 7 7 0 01-2 5 9 9 0 01-3 2 15 15 0 01-4 2 26 26 0 01-5 0 15 15 0 01-2 0h-1a2 2 0 01-1 0l-3-4v-1l-1-1v-1a16 16 0 011-4zm5 5a4 4 0 001 2 5 5 0 001 0 9 9 0 002 1 17 17 0 003-1 8 8 0 002 0 4 4 0 001-2 3 3 0 001-2 4 4 0 00-1-2 9 9 0 00-2-2 10 10 0 00-2-1 7 7 0 00-2-1 3 3 0 00-2 1 6 6 0 00-2 1 8 8 0 00-1 2 7 7 0 000 2 4 4 0 001 2zM540 193a6 6 0 01-1-1 5 5 0 010-1l1-1 15-3a112 112 0 0115-1h4l1 1-1 1a5 5 0 01-2 1 32 32 0 01-4 1l-4 1a33 33 0 00-4 0 9 9 0 00-3 1 2 2 0 00-1 2 10 10 0 000 4l2 3 1 3a10 10 0 011 3 5 5 0 01-1 2l-2 1a4 4 0 01-2-1 6 6 0 01-2-2 15 15 0 01-1-3l-1-3a20 20 0 00-1-3 7 7 0 00-2-2 7 7 0 00-3-2 13 13 0 00-5 1 4 4 0 010-2z"/>
  <path class="a" d="M571 189a5 5 0 011-1 11 11 0 012-1h4a52 52 0 013-1h2l3-1h8a5 5 0 011 1 5 5 0 01-1 1v1a134 134 0 00-12 3h-1a4 4 0 00-1 0 13 13 0 00-1 1 7 7 0 00-1 1 2 2 0 00-1 1 2 2 0 001 1h15a1 1 0 010 1 6 6 0 011 0 2 2 0 011 0v1a4 4 0 01-1 1h-2l-2 1h-5l-3 1h-1a4 4 0 00-2 1 2 2 0 00-1 2 3 3 0 001 2 7 7 0 003 1 15 15 0 003 0h3a9 9 0 002 0h2l2-1a9 9 0 013 0h1a1 1 0 011 1 11 11 0 01-3 2 15 15 0 01-3 2 19 19 0 01-4 1 25 25 0 01-4 0 27 27 0 01-6-1 11 11 0 01-4-2 7 7 0 01-3-2 16 16 0 01-1-4v-5l-1-6a2 2 0 010-1 2 2 0 011-1z"/>
  <path class="a" d="M598 198a33 33 0 011-5 27 27 0 012-5 15 15 0 013-3 12 12 0 018-4 18 18 0 014 0 16 16 0 015 2 11 11 0 013 3 6 6 0 011 4 9 9 0 01-1 3 18 18 0 01-1 3 32 32 0 01-3 3l-2 3v1a4 4 0 001 1l3-1h5l4 1a15 15 0 014 1 6 6 0 011 0 2 2 0 010 1 1 1 0 010 1 3 3 0 01-1 0 7 7 0 01-1 1h-1l-4 1h-13a9 9 0 01-2 0 94 94 0 01-5-2 4 4 0 00-2 0 3 3 0 00-1 1l-1 1-1 1a17 17 0 01-1 0l-1 1a3 3 0 01-2-1 10 10 0 01-1-3 15 15 0 01-1-2 14 14 0 010-2 41 41 0 010-5zm7-1v2a14 14 0 001 2 9 9 0 000 2h1a9 9 0 004-1 23 23 0 004-3 19 19 0 003-4 7 7 0 002-4 4 4 0 00-1-3 5 5 0 00-2-1 8 8 0 00-2-1h-3-1a15 15 0 01-1 0 6 6 0 00-1 1l-2 1-1 2a6 6 0 00-1 1v1a43 43 0 010 2v3z"/>
  <path class="a" d="M636 203a1 1 0 011-1 1 1 0 011 0l2 1 2 1 3 1a16 16 0 001 1 2 2 0 001 0h1a3 3 0 001-1 1 1 0 001 0 1 1 0 000-1 3 3 0 00-1-2 21 21 0 00-4-2l-4-2-4-2a15 15 0 01-3-2 4 4 0 01-1-3v-1a26 26 0 013-4 17 17 0 014-2 18 18 0 015-1 37 37 0 015 0h5a4 4 0 011 1 3 3 0 010 1v1l-1 2a25 25 0 01-1 1 15 15 0 01-2 2 4 4 0 01-3 1 2 2 0 01-1-1 5 5 0 01-1-1 9 9 0 000-1 1 1 0 00-1-1 8 8 0 00-4 1 5 5 0 00-2 2 8 8 0 003 3 23 23 0 003 1l4 2a19 19 0 013 2 9 9 0 012 2 6 6 0 011 4 4 4 0 010 3 6 6 0 01-3 1 10 10 0 01-3 1h-3a25 25 0 01-3 0 17 17 0 01-4-1 9 9 0 01-3-2 4 4 0 01-1-3v-1z"/>
  <path class="b" d="M634 137a27 27 0 00-5 6 78 78 0 00-4 9 52 52 0 01-5 8 28 28 0 01-5 6 12 12 0 01-8 3 15 15 0 01-8-2q-3-2-3-7a30 30 0 013-12 69 69 0 015-10l7-11 7-10a67 67 0 006-11 31 31 0 002-11l-2-10a122 122 0 00-7-11l-8-13-8-11-6-8-3-4a23 23 0 017-10 15 15 0 0110-3 15 15 0 019 3 25 25 0 017 7 65 65 0 014 9l4 9a28 28 0 005 8 9 9 0 007 2 8 8 0 001 0h1l33-34a7 7 0 012 0h3a18 18 0 019 1q3 2 3 8a25 25 0 01-3 12 57 57 0 01-7 10l-9 10a114 114 0 00-9 10 57 57 0 00-8 11 29 29 0 00-2 13v3a10 10 0 000 2l38 76a13 13 0 010 3v3q0 6-2 9-3 2-9 2-4 0-7-5a98 98 0 01-6-12l-7-17a168 168 0 00-7-16 60 60 0 00-9-12q-4-6-10-6a9 9 0 00-6 3M467 71a23 23 0 017-4 49 49 0 019-4l9-2 8-1 6-1 8-1 12-2 13-1 14-2 12-2h8l4 3a23 23 0 010 5 24 24 0 010 5l-4 3-7 2-11 2-12 2-12 3-10 3-7 1a20 20 0 00-4 2 56 56 0 00-5 3 34 34 0 00-5 4 9 9 0 00-2 4 6 6 0 000 2 11 11 0 001 3 12 12 0 001 2 2 2 0 002 1h67a6 6 0 011 1l3 1 2 1a9 9 0 012 1 18 18 0 010 2 11 11 0 010 1v1a17 17 0 01-2 3 23 23 0 01-2 2h-7l-11 2-12 2-12 1-10 2-7 1a20 20 0 00-8 5 11 11 0 00-4 8q0 7 5 11a33 33 0 0012 5 70 70 0 0014 1h12a43 43 0 0011-1l10-4 10-3a41 41 0 0111-1h6q4 1 5 4a51 51 0 01-14 14 69 69 0 01-16 8 85 85 0 01-18 3 113 113 0 01-19 1q-17-1-28-4-10-3-17-9a34 34 0 01-10-12 74 74 0 01-6-18l-3-22-3-28v-1a10 10 0 010-1 9 9 0 013-7m-77 8a108 108 0 002 13 49 49 0 005 12q3 6 7 6a24 24 0 009-3 54 54 0 0011-6 50 50 0 008-8q4-4 4-9t-5-10a45 45 0 00-11-8 74 74 0 00-13-5 41 41 0 00-11-2 6 6 0 00-4 1 5 5 0 00-2 2 11 11 0 00-1 4v3l1 10m-29-3l3-42q1-4 5-5h6a90 90 0 0115 2 125 125 0 0119 5 148 148 0 0119 8 88 88 0 0116 11 55 55 0 0112 13 31 31 0 015 16 26 26 0 01-4 15 38 38 0 01-10 10 73 73 0 01-12 7l-12 6a44 44 0 00-9 7 13 13 0 00-4 10v2a4 4 0 000 2 16 16 0 001 3l2 6 1 5a8 8 0 010 3 9 9 0 01-2 4 33 33 0 01-5 4 33 33 0 01-6 4 14 14 0 01-5 1q-3 0-7-4a56 56 0 01-7-8l-8-12c-3-4-13-59-13-73m-94 14a13 13 0 002 6 8 8 0 005 4 32 32 0 009 1h5a17 17 0 005-1 9 9 0 004-2 7 7 0 001-5 14 14 0 000-2v-1l-4-6-6-9-6-9-4-6a10 10 0 01-1 0 11 11 0 00-1-1q-5 0-6 3a13 13 0 00-3 5 31 31 0 000 7v16m16 38a48 48 0 00-14 7 45 45 0 00-9 9l-7 9a31 31 0 01-8 6q-5 3-12 3h-4a24 24 0 01-5 0 13 13 0 01-4-2 5 5 0 01-3-3v-4-5-6l16-47a89 89 0 002-10l4-16 5-17a91 91 0 016-16 42 42 0 0110-12 19 19 0 0113-5 22 22 0 0114 5 54 54 0 0111 12 133 133 0 0110 16l9 18a117 117 0 0010 15 34 34 0 0012 10 13 13 0 004 1 57 57 0 018 2 41 41 0 018 3 9 9 0 015 5 53 53 0 00-8 4 22 22 0 00-5 5 15 15 0 00-2 6 37 37 0 00-1 7 20 20 0 002 9 67 67 0 004 7 68 68 0 014 7 19 19 0 011 8q0 8-4 11-5 2-12 2a12 12 0 01-9-3 28 28 0 01-5-9 87 87 0 01-5-11 89 89 0 00-4-11 29 29 0 00-5-9 12 12 0 00-9-3q-14 0-23 2"/>
  <path class="c" d="M0 0h709v236H0z"/>
  <path d="M113 28l52 159M112 25L66 185m47 17a87 87 0 10-87-87 87 87 0 0087 87z" stroke="#231f20" stroke-width="14.4" fill="none"/>
  <path class="a" d="M110 208a94 94 0 1194-94 94 94 0 01-94 94zm-39-25a79 79 0 0082-2L109 47zM98 35a79 79 0 00-40 139zm23 0l44 136a79 79 0 00-44-136z"/>
  <path class="c" d="M16 20h188v188H16z"/>
  <g>
    <path d="M204 141a417 417 0 00-44-3c-10 0-78 4-95 9h-2a176 176 0 00-28 8l-11 5 5-1-8 4c-8 4-3 2 0 2 2 0 0 2 3 1a61 61 0 00-5 2l5-2c-2 1-4 3-7 3 1 1 8-3 8-2l-7 3a19 19 0 004-1c-7 3-11 5-4 3l-8 3 5-1-4 1 4-1-3 1h2l9-2a270 270 0 0142-12l1-1 11-1v-1l9-1 18-2s-1 0 0 0l9-1h2a1 1 0 000-1h5a467 467 0 0154-4h12l18 2c0-2 13 0 11-3" fill="#a7a9ac"/>
    <path class="b" d="M197 138a418 418 0 00-45-3c-10 0-78 4-95 9h-2a176 176 0 00-28 8l-11 5 5-1-8 4c-8 4-3 3 0 2 3 0 0 2 3 1a60 60 0 00-5 2c0 1 7-3 5-1l-7 3 8-3-7 3a19 19 0 004-1c-7 3-11 5-4 3l-8 4 5-2-4 2h1l3-2-3 2 3-1 8-2a269 269 0 0143-12v-1l11-1v-1h9l18-3 9-1h2a1 1 0 000-1h5a467 467 0 0154-4h12l18 2c0-2 13 0 11-2l10 1"/>
  </g>
</svg>
