<svg xmlns="http://www.w3.org/2000/svg" viewBox="0 0 123.4 45.3">
  <path class="logo-fill" d="M123.4 45.3H0V0h123.4v45.3zM2 43.3h119.4V2H2v41.3z"/>
  <path class="logo-fill" d="M118.9 6.4l-1.4 7.2h-6l-4.7 24.6h-8.1l4.7-24.6H99l-4.8 24.6H87l-9.3-18-3.5 18h-8l6-31.2.1-.6h7.3l9.3 18 3.4-17.6v-.4h8z"/>
  <path class="logo-fill" d="M114.8 30.5l-1.4 7.7h-5.8l1.5-7.7zm-98.4.6c2.4 0 4.1-.3 4.8-.8a3 3 0 001.5-2.1v-.7c0-.6-.1-1-.4-1.3l-.4-.4c-.5-.4-1.7-.8-3.6-.9h-1.4L15.7 31h.5l.2.1c-.1 0-.1 0 0 0zm2.1-12.9l1.1-.1c.8-.1 1.4-.3 1.9-.6.7-.5 1.1-1.1 1.2-1.9v-.7c0-.4-.2-.6-.4-.8l-.1-.1h-.1l-.1-.1h-.1l-.1-.1H19l-.5 2.6-.4 2.2.4-.4zM71.3 6.4l-3.6 19c-.6 3.1-1.2 5.2-1.8 6.5a14.4 14.4 0 01-7.4 6.3c-1.6.6-3.3.8-5.2.8a11 11 0 01-6.4-1.7 8.5 8.5 0 01-2.2-2l-.7 2.9H26.9l.8-4.2a12.5 12.5 0 01-4.4 3.1 17 17 0 01-6.8 1.1H6.4l6.1-31.8h5.9c3 0 5.2.2 6.7.6a8 8 0 014.7 3 6 6 0 011.1 3.7l-.1 1.5a9 9 0 01-1.5 3.5c-.6.8-1.3 1.5-2.2 2.1a9 9 0 012.8 2.7l1.6-8.2L32.9 7l.1-.6h8l-4.7 24.7h6.8v-.6c0-1.5.2-3.3.6-5.5l3.5-18 .1-.7h8l-3.9 20.5-.3 2.5.1.8c.1.5.4.9.9 1.2.5.3 1.1.5 2 .5 1 0 1.8-.2 2.5-.6.8-.4 1.3-.9 1.7-1.5.3-.5.8-1.9 1.1-3.9l3.7-19.5h8.2z"/>
</svg>
