<svg xmlns="http://www.w3.org/2000/svg" viewBox="0 0 777.3 373">
  <defs>
    <style>
      .a{fill:#231f20}
    </style>
  </defs>
  <path class="a" d="M117 233l.1 52c.1 26-11.3 35.4-29.5 35.5-18.2 0-29.7-9.3-29.7-35.3l-.7-196.5c-.1-26 11.3-36 29.5-36s29.7 9.8 29.8 35.8l.1 39 25.6-.1 28.4-28.6v-6.9C170.4 33.7 141 .5 85 .7 28.8.9-.2 34.3 0 92.5l.6 189.3C.8 340 30.1 373.2 86.2 373c56.2-.2 85.2-33.6 85-91.8v-11.4l-37-36.8zM287.2 0c-56.1.2-86.7 33.6-86.5 91.8v4.4l57.4 57L258 88c0-26 11.3-36 29.5-36s29.7 9.8 29.8 35.8l.7 196.5c0 26-11.4 36-29.6 36-18.2 0-29.6-9.8-29.7-35.8l-.3-84-57 57.3v23.3c.3 58.2 31 91.4 87.2 91.2 56.2-.2 86.7-33.6 86.5-91.8l-.6-189.3C374.2 33 343.4-.2 287.2 0zM583.5 266.8c-.1-38-9.6-65-38.2-76.8v-1c25.4-12.1 37.3-36 37.2-73.5l-.1-28.6c-.2-56.2-25.8-83.7-85-83.5l-86.4.3 1.3 364 57.2-.2-.5-148.2-.1-52h-.1l-.4-111.8H496c20.2-.1 29.1 11.3 29.2 37.3l.1 35.9c.1 23.8-8.6 34.4-23.4 37.5l.2 54.5c16.6 4 24.1 17.4 24.2 44.7l.2 57.2c.1 29.7 2.2 35.4 5.4 44.7l58.2-.2c-5.8-13.5-6.3-26.5-6.4-44.2zM776.2 54.5l-.1-52L620 3l1.2 364 156-.5-.2-52-98.8.3-.3-106.6 78.5-.2-.2-52-78.5.2-.4-101.4 98.8-.3z"/>
</svg>
