<svg xmlns="http://www.w3.org/2000/svg" viewBox="0 0 1243.2 808.9">
  <path d="M1122.9 698.6l-.4-.7-.4-.5-.7-.5-.6-.3-.8-.3-.7-.1h-76.5l-.8.1-.7.3-.7.4-.6.4-.5.6-.3.7-.2.7-.1.8v4.1l.1 1 .2.6.4.7.4.5.7.6.6.3.7.2H1070.4a.1.1 0 010 .1l.9.1.8.2a.3.3 0 01.1 0l.7.4.8.6.5.7.5.8.2.9.1.8V805l.1.8.6 1.4.5.6.6.5.7.3.7.2H1084.1l.6-.2.7-.4.5-.4.6-.7.3-.6.2-.7v-93l.2-.8.2-.8a.3.3 0 010-.1l.4-.7.6-.8.7-.5.8-.5.9-.2.8-.1h27.7l.8-.1.7-.2.7-.4.6-.5.5-.6.3-.6.2-.7v-5.8zM445 435.7l-.4-.5-.6-.5-1.5-.6-.7-.1H378l-.8-.1-.8-.2a.3.3 0 01-.1 0l-.7-.4-.8-.6-.5-.7-.5-.8-.3-.8a.4.4 0 010-.2v-95.7l-.1-.8-.3-.7-.4-.7-.4-.6-.6-.5-.7-.3-.7-.3h-32.7l-.7.3-.7.4-.6.4-.5.7-.3.6-.2.7-.1.8v95l-.1.8-.2.8a.4.4 0 010 .1l-.4.7-.7.8-.6.5-.8.5-.9.2-1 .1h-63.7l-.8.1-1.4.6-.6.5-.5.6-.3.7-.2.7-.1.8V469l.1.8.2.7.4.7.4.6.7.5.6.3.7.2h64.5v.1l1 .1.8.2a.3.3 0 01.1 0l.7.4a.4.4 0 01.1.1l1.2 1.2.5.8.2.9.1.9V737l.1 1 .2.6.4.7.4.5.7.6.6.3.7.2h32.7l.8-.2.6-.3.6-.6.5-.6.3-.6.3-.8v-261a.4.4 0 01.1 0l.3-.9.4-.7.6-.7.7-.6.8-.5.9-.2.8-.1h63.8l.8-.1.8-.2.7-.4.5-.4.5-.7.3-.6.3-.7v-32.7l-.3-.7zM1029.9 741.1l-2.1-7.5-3-7-4-6.6-5-6-5.5-5.2-6.3-4.4-6.8-3.5-7.3-2.6-7.5-1.5-7.7-.6H945l-1 .1-1 .4-1 .5-.8.6-.7.9-.4.8-.3 1-.1 1v102.1l.1 1.1.3 1 .5.9.6.8.9.7.9.4 1 .3h30.7l7.7-.4 7.6-1.6 7.2-2.6 6.9-3.5 6.2-4.4 5.6-5.3 4.9-6 4-6.5 3-7 2.1-7.4 1.1-7.7v-7.7zm-11.4 18.4l-1.6 6.7-2.6 6.5-3.7 6-4.5 5.2-5.3 4.5-5.9 3.6-6.4 2.7-6.8 1.6-7 .6h-18.4l-.8-.1-.9-.3-.8-.4-.7-.6-.6-.6a.4.4 0 010-.1l-.7-1.6-.1-.9v-79.4a.1.1 0 010-.1v-.8l.7-1.6.7-.8.6-.5.9-.5.9-.2.8-.1h18.5l6.9.5 6.7 1.6 6.5 2.7 5.8 3.6 5.4 4.6 4.5 5.2 3.6 6 2.7 6.3 1.6 6.9.5 6.8zM853.2 261.4l-.4-.6-.7-.5-.6-.3-.7-.2-.8-.1H819l-.8.1-.8.2-.7.4-.5.4-.5.7-.3.6-.3.7v42.7l.3.7.4.7.4.6.6.5.7.3.7.2h32.7l.7-.2.7-.4.6-.4.5-.7.3-.6.3-.7v-42.7l-.3-.7-.4-.7zM741.4 457l-2.6-10.8-3.5-10.4-4.4-10.1-5.4-9.7-6.2-9.2-7-8.4-7.8-7.9-8.5-7-9-6.4-9.7-5.3-10.1-4.5-10.5-3.6L646 361l-11-1.6-11-.6-11 .5-11 1.4-10.8 2.5-10.4 3.4-10.2 4.4-9.7 5.3-9.2 6.1-1.4.8-1.6.4-1.7-.1-1.6-.5-1.3-1-1-1.2-.8-1.5a.4.4 0 010-.1l-.2-1.6V263.6l-.1-.8-.2-.7-.4-.7-.4-.6-.7-.5-.6-.3-.7-.2-.8-.1h-31.1l-.8.1-.8.2-.7.4-.5.4-.5.7-.3.6-.3.8-.1.7V666l.1.8.3.7.4.7.4.6.6.5.7.3.7.2H539l.7-.2.7-.4.6-.4.5-.7.3-.6.2-.7V479l.7-9.5 1.6-9.2 2.7-9 3.7-8.8 4.7-8.1 5.7-7.6 6.5-6.9 7.2-6 7.8-5.2 8.5-4.3 8.8-3.2 9.3-2.2 9.3-1.1h9.4l9.4 1.1 9.2 2.2 8.9 3.2 8.4 4.2 8 5.3 7.2 6 6.4 7 5.6 7.4 4.8 8.2 3.7 8.7 2.7 9 1.7 9.3.5 9.4v187.1l.1.8.2.7.4.7.4.6.7.5.6.3.7.2h32.9l.6-.2.7-.4.5-.4.6-.7.3-.6.2-.7V479L743 468zM853.2 360.6l-.4-.5-.7-.6-.6-.3-.7-.2-.8-.1H819l-.8.1-.8.2-.6.3-.6.6-.5.6-.3.6-.3.7V667l.3.7.4.7.4.6.6.5.7.3.7.2h32.7l.7-.2.7-.4.6-.4.5-.7.3-.6.3-.7V362l-.3-.7-.4-.7zM944.4 373l6.6-6.5 7-6.1 7.3-5.8 7.5-5.4 7.9-5.1 8-4.7 38.5-184.6 1-2.6 1.3-2.2a.3.3 0 01.1-.1l2-1.7 2.4-1.4 2.5-.7a.4.4 0 01.1 0h2.6a.3.3 0 01.1 0l2.6.7 2.4 1.2 7.5 4.6 8 3.5 8.3 2.3 8.6 1.2h8.7l8.6-1.2 8.4-2.3 8-3.5 7.4-4.6 2.3-1.2 2.7-.7h2.6a.4.4 0 01.1 0l2.5.7 2.5 1.3 2 1.8 1.4 2.3 1 2.5 38.6 184.7 8 4.6 7.7 5.2 7.6 5.4 7.3 5.8 7 6 6.7 6.6 6.3 6.8 5.2 6.2-4.2-27.9-3.4-29.1-2.4-29.3-1.4-29.3-.4-29.4.6-29.4 1.7-29.4 2.6-29.2-.4-12.7-1.5-12.7-2.3-12.5-3.3-12.3-4.2-11.8-5-11.5-6-11-6.7-10.4-7.4-9.8-8.2-9-8.8-8.4-9.4-7.5-9.9-6.6-10.3-5.6-10.8-4.8-11-3.7-11-2.7v96.3l-.5 5.3-1.6 5-2.6 4.5-3.6 3.9-4.2 3.1-4.8 2.2-5.2 1-5.3.1-5.1-1.1-4.8-2.1-4.3-3.2-3.5-3.8-2.6-4.6-1.7-5-.5-5.2V0L1045 2.7 1034 6.4l-10.8 4.8-10.4 5.7-9.9 6.5-9.3 7.5-8.8 8.4-8.2 9-7.5 9.9-6.7 10.3-5.8 11-5.1 11.5-4.2 11.9-3.3 12.2-2.3 12.5-1.4 12.7-.5 12.7 2.6 29.2 1.7 29.4.6 29.3-.4 29.5-1.4 29.3-2.4 29.3-3.4 29-4.2 28 5.2-6.2zM1233.3 803.3l-2.6 2.2-2.7 2.1-1.8 1.3h17l-7.8-7.8-2.1 2.2zM1225.2 792.7v-.8l-.3-.8-.4-.7-.4-.6-3-3-1.3-.9-.7-.2-.7-.1-1.3.2-1.4.7-5.5 4-6.2 3.2-6.7 2-6.8 1.1-6.9-.1-6.8-1.1-6.6-2.2-6.1-3.1-5.7-4.2-4.8-4.8-4-5.6-3.2-6.2-2-6.6-1.2-6.8v-7l1.1-6.8 2.1-6.6 3.1-6.1 4-5.7 4.9-4.9 5.6-4 6.2-3.3 6.5-2 6.9-1.3h6.8l6.9 1 6.7 2.1 6.1 3.1 5.6 4 .8.5.6.2.6.2h.7l.8-.1.7-.2 1.2-.8 3-3 .5-.7.3-.7.3-.7v-.9l-.1-.8-.3-.7-.4-.6-.6-.7-6.3-4.6-6.7-3.6-7.3-2.8-7.6-1.7-7.8-.7-7.7.5-7.6 1.5-7.3 2.5-7 3.5-6.4 4.4-5.6 5.2-5 6-4 6.6-3.1 7.2-2.2 7.4-1.1 7.7v7.7l1.1 7.8 2.2 7.4 3 7.1 4.1 6.7 5 6 5.7 5.2 6.3 4.4 7 3.5 7.4 2.5 7.5 1.5 7.8.4 7.7-.6 7.7-1.8 7.2-2.7 6.8-3.7 6.2-4.6.6-.6.4-.6.3-.9v-.7zM211.6 262l-.4-.6-.5-.6-.6-.5-.6-.3-.7-.2-.9-.1H5.4l-1.1.1-1 .3-1 .6-.7.6-.8.8-.4 1-.3 1-.1 1v399.6l.1 1.1.3 1 .4.8.8 1 .7.6 1 .4 1 .3H209l.6-.2.7-.4.5-.4.6-.7.3-.6.2-.7v-32.7l-.2-.8-.3-.6-.6-.6-.6-.5-.6-.3-.8-.3-.8-.1H42.7l-.9-.3-.7-.4-.8-.6-.5-.7-.5-.8-.2-.9-.1-.8V476.6l.3-.8a.3.3 0 010-.1l.4-.7.6-.7.7-.6.8-.5.9-.2.8-.1H201l.8-.1.7-.2.7-.4.6-.4.5-.7.3-.6.2-.7v-32.7l-.2-.8-.4-.7-.4-.5-.6-.5-1.5-.6-.7-.1H43.5l-.8-.1-.8-.2a.3.3 0 01-.1 0l-.7-.4-.8-.6-.5-.7-.5-.8-.2-.9-.1-.8V303.2a.4.4 0 010-.1v-.8l.3-.8a.4.4 0 010-.1l.4-.7.6-.8.7-.5.8-.5.9-.2.8-.1H208l1-.1.6-.2.6-.3 1.2-1.2.3-.6.2-.7v-32.8z"/>
  <path d="M1164 647.2l11-7 10.1-7.8 9.7-8.7 8.9-9.4 8-10 .4-.8.3-.8v-1.5l-.5-1.4-.5-.6-.6-.6-25.5-17.8-.7-.3-.6-.3-.9-.1h-.8l-.6.2-.7.4-.5.4-.6.6-7.3 8.8-8 8.1-8.8 7.3-9.4 6.4-10 5.7-10.4 4.6-10.8 3.7-11.2 2.6-11.3 1.6-11.4.5-11.5-.5-11.3-1.5-11.1-2.6-10.9-3.6-10.4-4.6-10-5.6-9.5-6.5-8.8-7.3-8.1-8-7.2-8.8-6.5-9.5-5.6-10-4.7-10.4-3.6-10.8-2.6-11.2-1.6-11.3-.5-11.4.5-11.5 1.6-11.3 2.6-11 3.6-11 4.7-10.4 5.5-10 6.6-9.4 7.2-8.8 8-8.1 9-7.2 9.3-6.5 10-5.6 10.5-4.6 10.8-3.6 11.2-2.6 11.3-1.6 11.4-.5 11.5.6 11.3 1.6 11.1 2.6 10.9 3.6 10.4 4.7 10 5.5 9.3 6.6 8.9 7.3 8 8.1 7.3 8.8.6.6.5.4.7.3.7.2.8.1.8-.1.6-.3.7-.4 25.5-17.8.6-.5.5-.6.6-1.5v-.8l-.1-.8-.3-.7-.3-.7-8.1-10-9-9.4-9.6-8.7-10.2-7.9-10.8-7-11.4-6.1-11.8-5.2-12.3-4.3-12.4-3.3-12.7-2.3-12.9-1.3-13-.2-12.8.8-12.8 1.8-12.7 2.8-12.3 3.8-12 4.8-11.6 5.7-11 6.6-10.6 7.4-10 8.3-9.2 9.1-8.5 9.8-7.7 10.4-6.8 11-6 11.4-5 12-4 12.3-3 12.5-2 12.7-1.1 13v12.8l1.1 13 2 12.7 3 12.6 4 12.2 5 12 6 11.4 6.8 11 7.7 10.4 8.5 9.7 9.3 9.1 9.9 8.3 10.6 7.5 11 6.5 11.6 5.8 12 4.8 12.3 3.8 12.7 2.8 12.8 1.8 12.9.8 13-.3 12.8-1.2 12.7-2.3 12.5-3.3 12.2-4.3 11.8-5.2 11.4-6.2z"/>
</svg>
