<svg xmlns="http://www.w3.org/2000/svg" viewBox="0 0 591 170.5">
  <defs>
    <style>
      .a{fill:#231f20}.b{fill:#fff}
    </style>
  </defs>
  <path class="a" d="M0 2.9h166.9v166.9H0z"/>
  <path class="b" d="M122.5 155h20.7L83.4 95.3l-59.8 59.9h20.8l34.7-34.8a6 6 0 018.6 0zM44.4 17.6H23.6l59.8 59.8 59.8-59.8h-20.7L87.7 52.3a6 6 0 01-8.6 0z"/>
  <g>
    <path class="b" d="M14.7 125.3v20.8l59.8-59.8-59.8-59.8v20.8L49.4 82a6 6 0 010 8.6zM152.2 47.3V26.5L92.3 86.3l59.9 59.8v-20.8l-34.8-34.7a6 6 0 010-8.6z"/>
  </g>
  <g>
    <path class="a" d="M192.5 140.1h13.3c7.4 0 10.3 4.7 10.3 9.5s-2.9 9.5-10.3 9.5H199v10.6h-6.5zm6.5 14h5c3 0 5.8-.7 5.8-4.5 0-3.7-2.8-4.4-5.8-4.4h-5zM234.7 140.1h16c5.3 0 8.6 3.7 8.6 8.2 0 3.5-1.4 6.1-4.7 7.4v.1c3.2.9 4.1 4 4.3 7 .2 1.8 0 5.3 1.3 7h-6.5c-.8-2-.7-4.8-1-7.1-.5-3.2-1.7-4.5-5-4.5h-6.5v11.5h-6.5zm6.5 13.4h7.1c3 0 4.5-1.2 4.5-4.2 0-2.9-1.5-4.1-4.5-4.1h-7.1zM292.4 139.4c9.1 0 14.6 6.9 14.6 15.7 0 8.5-5.5 15.4-14.6 15.4S278 163.6 278 155c0-8.8 5.4-15.7 14.5-15.7m0 25.6c5.9 0 8-5 8-10 0-5.1-2.1-10.1-8-10.1-5.8 0-8 5-8 10.2 0 4.9 2.2 9.9 8 9.9M332.5 145.6h-8.9v-5.5H348v5.5H339v24.1h-6.5v-24zM365.8 140.1H388v5.5h-15.7v6.4h14.4v5h-14.4v7.3h16v5.4h-22.5v-29.6zM427 150a6.5 6.5 0 00-6.5-5.1c-5.8 0-8 5-8 10.2 0 4.9 2.2 9.9 8 9.9 4 0 6.3-2.7 6.8-6.7h6.3c-.7 7.5-5.8 12.1-13 12.1-9.2 0-14.6-6.8-14.6-15.3 0-8.8 5.4-15.7 14.5-15.7 6.5 0 12 3.8 12.8 10.7zM459 145.6h-8.8v-5.5h24.3v5.5h-8.9v24.1h-6.5v-24zM492.4 140.1h6.5v29.6h-6.5zM532.5 139.4c9 0 14.5 6.9 14.5 15.7 0 8.5-5.4 15.4-14.5 15.4-9.2 0-14.6-6.9-14.6-15.4 0-8.8 5.4-15.7 14.6-15.7m0 25.6c5.8 0 8-5 8-10 0-5.1-2.2-10.1-8-10.1-6 0-8.1 5-8.1 10.2 0 4.9 2.2 9.9 8 9.9M566 140.1h6.5l12.3 19.9h.1V140h6v29.6h-6.4L572.2 150h-.1v19.8H566v-29.6z"/>
    <g>
      <path class="a" d="M582 54.5a7.3 7.3 0 11-7.4 7.3 7.2 7.2 0 017.4-7.3m0 13a5.7 5.7 0 10-5.5-5.7 5.5 5.5 0 005.5 5.8m-2.9-9.9h3.1c2 0 3.2.6 3.2 2.4a2 2 0 01-2.1 2.2l2.2 3.6h-1.7l-2-3.5h-1v3.5H579zm1.7 3.4h1.4c1 0 1.6-.1 1.6-1.1 0-.9-1-1-1.7-1h-1.3zM192.5 2.9h99.4l-22.7 22.5h-50v28h50v20.8h-50v50.2h-26.7V2.9z"/>
      <path class="a" d="M380.8 78.5c0 32.8-19.3 48.8-51.9 48.8-32.8 0-51.7-15.7-51.7-48.8V31l26.7-26.6v74c0 13.3 3.4 26.4 25 26.4 19.1 0 25.2-8.1 25.2-26.3V2.9h26.7zM414.5 84c0 16.2 12.6 22.5 26.9 22.5 9.3 0 23.6-2.7 23.6-15.1 0-13.3-18.4-15.2-36-20-18.1-4.5-36.3-12.2-36.3-34.6 0-25 23.5-36.8 45.4-36.8 25.4 0 48.7 11 48.7 39.1h-25.9c-.8-14.4-11-18.3-24-18.3-8.5 0-18.3 3.5-18.3 13.7 0 9.4 5.7 10.8 36.2 18.4 9 2 36 8 36 35.4 0 22.3-17.3 39-50.5 39-26.8 0-52.2-13.3-51.7-43.2zM498.8 2.9h90.8v22.5h-64.1v26h41.2v20.8h-41.2v29.7H591v22.5h-92.2V2.9z"/>
    </g>
  </g>
</svg>
