<svg xmlns="http://www.w3.org/2000/svg" viewBox="0 0 653.4 217.1">
  <defs>
    <style>
      .a{fill:#1d1d1b}
    </style>
  </defs>
  <path class="a" d="M2 192.5h10.3a12 12 0 012.2.2 6 6 0 012.3 1 5.6 5.6 0 011.8 2 7.4 7.4 0 01.7 3.5 6.2 6.2 0 01-2 5 8.2 8.2 0 01-5.6 1.6H3.5v10.8H2zm1.5 12H12a6.9 6.9 0 002.7-.4 5 5 0 001.8-1.3 4.9 4.9 0 001-1.7 6 6 0 00.3-2 7.7 7.7 0 00-.2-1.5 4.9 4.9 0 00-.8-1.8 4.8 4.8 0 00-1.7-1.5 6.2 6.2 0 00-3-.5H3.6zM49 192.5h10a13 13 0 013 .3 7 7 0 012.4 1 5 5 0 011.7 2 6.5 6.5 0 01.5 2.9 6.3 6.3 0 01-1.3 4 6 6 0 01-3.8 2.2 5.7 5.7 0 012.6 1 4.3 4.3 0 011.4 1.6 6.6 6.6 0 01.6 2.1 21 21 0 01.2 2.4v1.4a11 11 0 000 1.2 6.3 6.3 0 00.3 1.1 2.4 2.4 0 00.4.9h-1.7a4.4 4.4 0 01-.5-2 54.7 54.7 0 01-.1-4.8 5.2 5.2 0 00-.7-2.1 3.9 3.9 0 00-1.7-1.5 7.6 7.6 0 00-3.3-.6h-8.6v11H49zm10 11.8a8.9 8.9 0 002.5-.3 5.2 5.2 0 002-1 4.7 4.7 0 001.2-1.7 6 6 0 00.5-2.5 5 5 0 00-.5-2.3 4.5 4.5 0 00-1.4-1.6 5.6 5.6 0 00-2-.9 9.8 9.8 0 00-2.3-.2h-8.6v10.5zM119 204.5a15.4 15.4 0 01-.7 5 11.9 11.9 0 01-2.3 4 10.4 10.4 0 01-3.5 2.7 12.4 12.4 0 01-9.7 0 10.4 10.4 0 01-3.6-2.7 11.9 11.9 0 01-2.3-4 16 16 0 010-10 11.9 11.9 0 012.3-4 10.4 10.4 0 013.6-2.6 12.4 12.4 0 019.7 0 10.5 10.5 0 013.5 2.7 11.9 11.9 0 012.3 4 15.4 15.4 0 01.8 5zm-21.4 0a14 14 0 00.7 4.4 10.9 10.9 0 002 3.6 9.3 9.3 0 007.3 3.4 9.4 9.4 0 004.2-1 9.6 9.6 0 003.2-2.4 10.8 10.8 0 002-3.6 14.6 14.6 0 000-8.8 10.8 10.8 0 00-2-3.6 9.6 9.6 0 00-3.2-2.4 9.4 9.4 0 00-4.2-1 9.3 9.3 0 00-7.3 3.4 10.9 10.9 0 00-2 3.6 14 14 0 00-.7 4.4zM201.4 199.4a6.5 6.5 0 00-.7-2.7 5.7 5.7 0 00-1.6-2 7 7 0 00-2.4-1.1 11.4 11.4 0 00-3-.4 10.9 10.9 0 00-2.2.2 6.9 6.9 0 00-2.2.8 4.9 4.9 0 00-1.6 1.6 4.5 4.5 0 00-.7 2.5 3.7 3.7 0 00.7 2.4 5.2 5.2 0 001.9 1.4 12.1 12.1 0 002.6 1l3 .6 3 .7a10.3 10.3 0 012.7 1.2 5.6 5.6 0 011.8 1.8 5.5 5.5 0 01.8 3 5.8 5.8 0 01-.9 3.1 6.8 6.8 0 01-2 2.1 8.5 8.5 0 01-2.7 1.2 12.7 12.7 0 01-3 .3 16.6 16.6 0 01-3.9-.4 8.9 8.9 0 01-3.2-1.5 7.2 7.2 0 01-2.2-2.6 8.6 8.6 0 01-.8-4h1.5a6.8 6.8 0 00.6 3.4 6 6 0 001.9 2.2 7.8 7.8 0 002.8 1.3 14.6 14.6 0 003.4.4 10.8 10.8 0 002.3-.3 7.1 7.1 0 002.3-1 5.6 5.6 0 001.7-1.6 4.7 4.7 0 00.7-2.6 4 4 0 00-.7-2.5 5.2 5.2 0 00-2-1.6 12.1 12.1 0 00-2.5-1l-3-.6-3-.7a10.3 10.3 0 01-2.7-1 5.6 5.6 0 01-1.9-1.9 5.1 5.1 0 01-.7-2.8 5.7 5.7 0 01.8-3 6 6 0 011.8-2 8.4 8.4 0 012.7-1 12.2 12.2 0 012.8-.4 14.2 14.2 0 013.6.4 8.4 8.4 0 012.8 1.3 6.6 6.6 0 012 2.3 8.2 8.2 0 01.9 3.5zM233 204.5a15.4 15.4 0 01.8-5 11.8 11.8 0 012.2-4 10.4 10.4 0 013.6-2.6 11.5 11.5 0 014.9-1 11 11 0 013.6.6 9.5 9.5 0 012.7 1.3 8.2 8.2 0 011.7 1.8 10 10 0 011 1.9 9.1 9.1 0 01.5 1.5l.2.7h-1.5a7.3 7.3 0 00-1-2.8 7.5 7.5 0 00-1.9-2 8.2 8.2 0 00-2.4-1.3 9.3 9.3 0 00-3-.4 9.3 9.3 0 00-7.3 3.3 10.8 10.8 0 00-2 3.6 14.6 14.6 0 000 8.8 10.8 10.8 0 002 3.6 9.3 9.3 0 007.4 3.4 7.6 7.6 0 003.3-.8 9 9 0 002.6-1.9 9.6 9.6 0 002.7-6h1.5a11.8 11.8 0 01-1.1 4 11.2 11.2 0 01-2.2 3.1 9.7 9.7 0 01-3 2.1 9.6 9.6 0 01-3.8.7 11.5 11.5 0 01-4.9-1 10.4 10.4 0 01-3.6-2.6 11.8 11.8 0 01-2.2-4 15.4 15.4 0 01-.8-5zM306.5 204.5a15.4 15.4 0 01-.8 5 11.9 11.9 0 01-2.2 4 10.4 10.4 0 01-3.6 2.7 12.4 12.4 0 01-9.7 0 10.4 10.4 0 01-3.6-2.7 11.9 11.9 0 01-2.2-4 16 16 0 010-10 11.9 11.9 0 012.2-4 10.4 10.4 0 013.6-2.6 12.4 12.4 0 019.7 0 10.5 10.5 0 013.6 2.7 11.9 11.9 0 012.2 4 15.4 15.4 0 01.8 5zm-21.4 0a14 14 0 00.7 4.4 10.9 10.9 0 002 3.6 9.3 9.3 0 007.3 3.4 9.4 9.4 0 004.2-1 9.6 9.6 0 003-2.4 10.8 10.8 0 002-3.6 14.6 14.6 0 000-8.8 10.8 10.8 0 00-2-3.6 9.6 9.6 0 00-3-2.4 9.4 9.4 0 00-4.2-1 9.3 9.3 0 00-7.4 3.4 10.9 10.9 0 00-2 3.6 14 14 0 00-.6 4.4zM358.5 204.5a15.4 15.4 0 01-.7 5 11.9 11.9 0 01-2.3 4 10.4 10.4 0 01-3.6 2.7 12.4 12.4 0 01-9.7 0 10.4 10.4 0 01-3.6-2.7 11.9 11.9 0 01-2.2-4 16 16 0 010-10 11.9 11.9 0 012.2-4 10.4 10.4 0 013.6-2.6 12.4 12.4 0 019.7 0 10.5 10.5 0 013.6 2.7 11.9 11.9 0 012.3 4 15.4 15.4 0 01.7 5zm-21.4 0a14 14 0 00.7 4.4 10.9 10.9 0 002 3.6 9.3 9.3 0 007.3 3.4 9.4 9.4 0 004.2-1 9.6 9.6 0 003.1-2.4 10.8 10.8 0 002-3.6 14.6 14.6 0 000-8.8 10.8 10.8 0 00-2-3.6 9.6 9.6 0 00-3.1-2.4 9.4 9.4 0 00-4.2-1 9.3 9.3 0 00-7.4 3.4 10.9 10.9 0 00-2 3.6 14 14 0 00-.6 4.4zM384.7 193.8v-1.3h18.5v1.3h-8.6v22.8h-1.4v-22.8zM431.8 192.5H448v1.3h-14.7v9.6h13.8v1.3h-13.8v10.6h14.9v1.3h-16.4zM477.7 192.5h10a13 13 0 013 .3 7 7 0 012.5 1 5 5 0 011.6 2 6.5 6.5 0 01.6 2.9 6.3 6.3 0 01-1.4 4 6 6 0 01-3.8 2.2 5.7 5.7 0 012.7 1 4.3 4.3 0 011.4 1.6 6.6 6.6 0 01.6 2.1 21 21 0 01.1 2.4v1.4a11 11 0 00.1 1.2 6.3 6.3 0 00.2 1.1 2.4 2.4 0 00.4.9h-1.6a4.4 4.4 0 01-.5-2 54.7 54.7 0 01-.2-4.8 5.2 5.2 0 00-.6-2.1 3.9 3.9 0 00-1.7-1.5 7.6 7.6 0 00-3.3-.6h-8.6v11h-1.5zm10 11.8a8.9 8.9 0 002.5-.3 5.2 5.2 0 002-1 4.7 4.7 0 001.2-1.7 6 6 0 00.5-2.5 5 5 0 00-.5-2.3 4.5 4.5 0 00-1.3-1.6 5.6 5.6 0 00-2-.9 9.8 9.8 0 00-2.3-.2h-8.6v10.5zM541.7 199.4a6.5 6.5 0 00-.6-2.7 5.7 5.7 0 00-1.6-2 7 7 0 00-2.5-1.1 11.4 11.4 0 00-3-.4 10.9 10.9 0 00-2.2.2 6.9 6.9 0 00-2.2.8 4.9 4.9 0 00-1.6 1.6 4.5 4.5 0 00-.6 2.5 3.7 3.7 0 00.7 2.4 5.2 5.2 0 001.8 1.4 12.1 12.1 0 002.7 1l3 .6 3 .7a10.3 10.3 0 012.6 1.2 5.6 5.6 0 011.9 1.8 5.5 5.5 0 01.7 3 5.8 5.8 0 01-.8 3.1 6.8 6.8 0 01-2 2.1 8.5 8.5 0 01-2.8 1.2 12.7 12.7 0 01-2.9.3 16.6 16.6 0 01-4-.4 8.9 8.9 0 01-3.2-1.5 7.2 7.2 0 01-2.2-2.6 8.6 8.6 0 01-.7-4h1.5a6.8 6.8 0 00.5 3.4 6 6 0 002 2.2 7.8 7.8 0 002.7 1.3 14.6 14.6 0 003.4.4 10.8 10.8 0 002.3-.3 7.1 7.1 0 002.3-1 5.6 5.6 0 001.7-1.6 4.7 4.7 0 00.7-2.6 4 4 0 00-.7-2.5 5.2 5.2 0 00-1.9-1.6 12.1 12.1 0 00-2.6-1l-3-.6-3-.7a10.3 10.3 0 01-2.6-1 5.6 5.6 0 01-2-1.9 5.1 5.1 0 01-.6-2.8 5.7 5.7 0 01.7-3 6 6 0 011.9-2 8.4 8.4 0 012.6-1 12.2 12.2 0 012.9-.4 14.2 14.2 0 013.5.4 8.4 8.4 0 012.9 1.3 6.6 6.6 0 012 2.3 8.2 8.2 0 01.8 3.5z"/>
  <path d="M642 94.6a24.3 24.3 0 0111.2 24c-1.8 15.1-14.6 14.1-23.3 23.3a33.2 33.2 0 00-4.2 5.7l-.3.5c-3 5.2-6.1 10.8-12.4 13.8l-.5.3-.7.3-1.4.6-2.2.5c-6.2 1.3-12.4-1-17.7-5v-.1l-1.8-1.3-.8-.8-1.3-1.2-.3-.4-.3-.3-.8-.7-.3-.4-.6-.7-2-2.5-1.1-1.6-.3-.4-1-1.5v-.1a37.1 37.1 0 01-2-3.9l-.3.2c-2.4 15.2-8.9 25.4-11.8 31-2.9 5.7-7.7 10.4-13.9 10-9.1-.4-8.5-1.7-8.8-3.5-.3-2 7-6.1 11.6-10.7a60 60 0 0014.8-21.3 63.1 63.1 0 001.6-13.2l-.1-.4a30.5 30.5 0 01-.8 3.7 29.9 29.9 0 01-1.1 3 65.3 65.3 0 01-1.7 3.5l-.3.6-1 1.7a3 3 0 00-.2.3l-.7 1.1-1 1.3-.6.8-1.2 1.5-.5.7-1.4 1.5-.6.5-1.5 1.5-.5.4-1.7 1.4-.5.4-1.8 1.3c-.2 0-.4.2-.5.3l-2 1-.4.3-.8.4c-.8.4-2.8 1-2.8 1a18.4 18.4 0 01-9.2.6 21.1 21.1 0 01-2-.6h-.4a20 20 0 01-2-.8l-.2-.1a19.2 19.2 0 01-5-3.4l-1.1-1.1a2.7 2.7 0 01-.3-.3l-.8-1-1.4-1.9c-3-4.3-5.2-9-8.5-12.5-4-4.3-9-6.4-13.3-9a30.6 30.6 0 01-2.9-1.8 19.2 19.2 0 01-2-1.8l-.8-.7a16.5 16.5 0 01-1.4-1.8l-.8-1.3c0-.2-.2-.4-.4-.6l-.2-.6a20.4 20.4 0 01-1.5-5.7l-.2-2.5v-.4l.1-1.8.1-1a23 23 0 01.7-3.9c0-.2 0-.4.2-.7a23.3 23.3 0 011.5-4 33 33 0 0118.5-14.7c13.3-5 23.1-2 23.2-5.7a.9.9 0 000-.2 1.6 1.6 0 00-.4-.8l-.2-.2c-2.3-1.8-11.2.1-22.5-4.2a40.8 40.8 0 01-13-7.5 23.8 23.8 0 01-8-21.5c1.8-15.2 14.6-14.2 23.3-23.3 2.7-2.8 4.6-6.6 6.8-10.2l.3-.4c3.1-5 7-9.6 14.6-11.2l.7-.1h.3a17.2 17.2 0 015.3 0l1.8.3a19.4 19.4 0 011.9.6l1.1.4a28.6 28.6 0 015 2.7 38.8 38.8 0 015.3 4.4l.3.3c.7.6 1.2 1.3 1.7 2l1 1.1q1.4 1.6 2.5 3.3l1.3 2 1 1.5a33.7 33.7 0 012.8 6.6 34 34 0 01.9 4 1.2 1.2 0 010 .2l.4 3.3v4.8l-.6 5.7V49a1.7 1.7 0 00.2 1 2.8 2.8 0 004.2 0 1.5 1.5 0 00.3-.8c.1-2-1-6.4-.7-12.2a33.8 33.8 0 011.3-7.6l.4-1.2.7-1.8.5-1c0-.3.2-.6.3-.8l.3-.6a43.7 43.7 0 019.3-12.3l.5-.4c5.8-5.2 12.9-8.5 20-7 13.3 2.7 15.2 15 21.7 21.8 3.8 4 8.5 6 12.7 8.4l.6.4c5 2.9 9 6.3 10 14.5l.1 2.7a24 24 0 01-.3 4.7v.5a23 23 0 01-1 3.2c0 .5-.2.9-.4 1.3l-.8 1.7a23.6 23.6 0 01-1.3 2.4l-.8 1a24 24 0 01-2 2.5l-.6.6a39.6 39.6 0 01-13.9 8.4c-11.5 4.4-20.5 2.8-22.6 4.6a1.3 1.3 0 00-.5 1c0 4.8 10 .5 23.2 5.5a46.7 46.7 0 016.8 3.3 1.6 1.6 0 01.3.1l2.3 1.4z" fill="#6abf4b"/>
  <g>
    <path class="a" d="M484.6 48.5c1.6-14.2 10.8-19.2 17.5-22.8a34.7 34.7 0 007.4-4.9L515 3.4a2.1 2.1 0 00-2-3h-41.8c-1.4 0-2.4 1.5-2.8 3.2l-11 49c0 1.2-.8 2-1.3 2a2.5 2.5 0 01-1.2-2L443.4 2.9c-.5-1.7-1.5-2.4-2.7-2.4h-75a3 3 0 00-2.6 2.1l-9.4 42c-.5 1.3-1 1.7-1.4 1.7-.5 0-.7-.7-.7-1.6V2.9c0-1.5-1.2-2.4-3.2-2.4h-40.8a2.4 2.4 0 00-2.2 2.4V177c0 2 1.5 3.6 3 3.6h40a3.4 3.4 0 003.2-3.1V131c0-1.2.2-1.9.7-1.9.5 0 1 .5 1.2 1.7l9.1 47.8c.2 1.2 1 1.9 2 1.9h44.1c1.5 0 2-1 1.5-2.4l-31.5-89.1a12.5 12.5 0 01-.5-2.6 9.4 9.4 0 01.7-3.2l23-59.8L426 105c1.7 5.3 2.2 8.2 2.2 11.8v61c.2 1.2 1.4 2.9 2.8 2.9H478a3.4 3.4 0 003.3-3.1v-60.3a66.9 66.9 0 012.2-12.7l9.3-29.8a32.2 32.2 0 01-8.2-26.2zM188.4.5h-40.6a2.6 2.6 0 00-2.6 2.4v122.5c0 2.8-1.2 5-4.1 5-3 0-4.1-2.2-4.1-5.3V3.1a2.5 2.5 0 00-2.7-2.6H93.5A2.3 2.3 0 0091.1 3v129.7a2.5 2.5 0 00-2.5-2h-41a1.6 1.6 0 01-1.5-1.6V3.2A2.5 2.5 0 0043.7.4H3.1C1.4.5 0 2.4 0 3.8v173.7a3 3 0 002.6 3.1h86a2.7 2.7 0 002.7-2.6v-43.1a47.7 47.7 0 0049.8 45.7 48 48 0 0050-49V3a2.4 2.4 0 00-2.7-2.4zM248.1 0c-32.9 0-53.3 25.5-53.3 69.2V117c0 34.3 18.7 64.3 52.1 64.3 30.3 0 54-20 54-77.8a1.9 1.9 0 00-1.9-2l-45.4-1.6c-1.9-.2-2.8 2-2.8 3.4v24.2c0 2.4-1.5 4.3-3.9 4.3a3.9 3.9 0 01-3.8-4V53a4 4 0 013.8-4.3c2 0 3.9 1.2 3.9 4.5v15.1a4.6 4.6 0 004.3 4.8l44.4-1.6c2.2 0 2.2-.8 2.2-7.2C301.7 29.8 283.2 0 248 0z"/>
  </g>
</svg>
