<svg xmlns="http://www.w3.org/2000/svg" viewBox="0 0 283.5 283.5">
  <defs>
    <style>
      .b{fill:#0d181c}
    </style>
  </defs>
  <path fill="none" d="M0 0h283.5v283.5H0z"/>
  <path class="b" d="M62 183.9V98.5a91.8 91.8 0 00-.3 85.7zM133.8 50.3l9 9 9-9c-2.9-.3-5.8-.5-8.7-.5a92.3 92.3 0 00-9.3.5zM223.4 183.8l.9.8a91.7 91.7 0 00-.9-87.3z"/>
  <path class="b" d="M252.5 207.3a127.2 127.2 0 0018.1-65.6c0-70.4-57.2-127.6-127.5-127.6A127.8 127.8 0 0015.5 141.7a127.2 127.2 0 0018.2 65.6l-2.4 2.3a11 11 0 007.7 18.8h10.5a127.3 127.3 0 00187.2 0H247a11 11 0 007.6-18.8zm1.7 13a7.6 7.6 0 01-7 4.7h-12A124 124 0 0151 225H39a7.6 7.6 0 01-5.3-13l4.2-4.2a123.6 123.6 0 01-19-66C18.9 73.1 74.6 17.3 143 17.3s124.2 55.8 124.2 124.3a123.6 123.6 0 01-19 66.2l4.1 4a7.6 7.6 0 011.8 8.4z"/>
  <path class="b" d="M181.8 225h-77.4a91.6 91.6 0 0077.4 0zM78 176.3l31.1-31.5v-86L78.1 90zM80.4 91l26.3-26.3v79.1l-26.3 26.6zM166.6 57.9L143 81.5 119.4 58v33.3l23.6 23.7 23.6-23.7zm-2.4 32.3L143 111.4l-21.2-21.2V63.8L143 85l21.2-21.2zM176.8 145.7l31.2 31.5V90l-31.2-31.1zm2.5-81L205.5 91v80.2l-26.2-26.5zM100.7 193.4l40-39h15.6l6.3-6.3-21.6-21-81.3 82H176l-16.2-15.7zm-35.1 13.2l75.5-76 18 17.6-3.8 3.8h-15.6l-45 43.9h64.1l11.2 10.7zM241.1 193.5a1.8 1.8 0 101 1 1.7 1.7 0 00-1-1zm.4 2.2a1 1 0 01-.5.5.6.6 0 01-.5 0 .6.6 0 01-.3-.3 1 1 0 010-.6.7.7 0 01-.2.2 1.1 1.1 0 01-.4 0l-.7.1.2-.6a5.3 5.3 0 001-.1.3.3 0 00.2-.2l-.8-.4.2-.6 2.2 1zM241.1 189.7l3-6.6 1 .4-3 6.6zM224.1 68.2l-5-5.2-.8.7 5 5.2.8-.7z"/>
  <path class="b" d="M240.7 195.6a.3.3 0 00.2 0 .6.6 0 00.3-.3v-.2l-.5-.3v.3a.6.6 0 00-.2.3.3.3 0 00.2.2zM247.8 172l1.8-7.1 1 .2-1.8 7.1z"/>
  <path class="b" d="M215.8 175.8V86.6l-1.7-1.7-35.6-35.6-7.6-7.6-2.1 2.3-7.7 7.7L142.8 70l-18.4-18.4-7.4-7.4-2.5-2.5-7.5 7.5L71.4 85l-1.7 1.7V187L39 217.4h208.1L215.8 187zM174.6 53.5L210.2 89v93.5l-35.6-36zm-57.5-1L143 78.4l25.9-26v39.7l-26 26-25.8-26zM75.8 89l35.6-35.6v92.2l-35.6 36zM54.4 211.3L141 124l24.8 24.1-8.5 8.5h-15.7l-1.5 1.5-24.6 24-9.3 9.1h54.5l20.9 20zm177.2 0h-42.3L162.9 186h-43.7l24.5-24h37z"/>
  <path class="b" d="M144.7 164.2l-20 19.5h39l26.5 25.4H226l-46.3-45zm46.5 42.5l-26.5-25.5h-34l15-14.6h33.1l41.3 40zM85.2 48.5a.3.3 0 000-.3.3.3 0 00-.2 0 .6.6 0 00-.3 0l-.3.2.4.5.2-.1a.6.6 0 00.2-.3zM60.9 69.2l5-5.2.8.7-5.1 5.2zM35.7 166.5l1-.2 1.8 7-1 .3zM74.8 56.1l6-4.2.5.8-6 4.3z"/>
  <path class="b" d="M59 187a95.4 95.4 0 013-95.7v-4.7a7.6 7.6 0 012.3-5.3l1.7-1.8 43.1-43.1a7.6 7.6 0 015.4-2.3 7.6 7.6 0 015.4 2.3l2.5 2.5.4.4 7.7 7.7a95.6 95.6 0 0124.6 0l8.2-8.3 2-2.2a7.6 7.6 0 0111-.2l44.9 45a7.6 7.6 0 012.2 5.3v3.6a95.3 95.3 0 013.6 97l18.5 18a120 120 0 0018.2-63.5c0-66.5-54.1-120.6-120.6-120.6A120.8 120.8 0 0022.5 141.7a120 120 0 0018 63.5zm183.4 9a2.2 2.2 0 11.2-1.1 2.2 2.2 0 01-.2 1.1zm.7-3l-4.8-2.3 1-2.2-3.8.9 1-2.4 3.9-.8 1.8-4-2.9-1.3.9-2 7.7 3.5zm7.3-18.2l-8.1-2 .5-2.2 3 .8 1.8-7-3-.8.5-2 8.2 2zm4-19.1l-2-.2.6-9.3-1-.1-.7 9.4-2.1-.2.7-9.4h-1l-.7 9.3-2.2-.1.9-11.5 8.4.6zm.7-19.5l-2.1.2-1-9.4-4 .4.6 7.3h1l-.4-4.8 2.1-.2.7 6.8-5.3.5-1.1-11.5 8.3-.8zM240.8 94l-2.9 1.3 3 6.7 3.8-1.7-3.9-8.6 2-.9 4.7 10.5-7.7 3.5-4.7-10.5 4.8-2.2zm-11.1-17.9l1.2 1.8-2.6 1.7 4 6 3.5-2.3-5.3-7.8 1.8-1.2 6.5 9.6-7 4.7-6.5-9.5zM219 59.9l8 8.3-6 5.9-1.5-1.6 2.3-2.1-5.1-5.3-2.3 2.2-1.5-1.5zM203.6 48l1.7 1.3-.7 7.2 6.6-3 1.7 1.3-4.9 6.8-1.7-1.2 2.5-3.5-4.6 2-1.8-1.3.5-5-2.5 3.5-1.8-1.2zm-120.4-.2a2.2 2.2 0 11-.2 1.1 2.2 2.2 0 01.2-1.1zm-2 1l3.1 4.4-2 1.4 3.8 1.2-2.1 1.5-3.8-1.2-3.5 2.6 1.8 2.5-1.7 1.3-5-6.9zM65.8 61l6.1 5.8-1.5 1.6-2.2-2.2-5.1 5.2 2.3 2.2-1.5 1.5-6-5.8zm-13 14.6l1.8 1.2-5.2 7.8.8.6 5.2-7.9 1.8 1.2-5.2 7.8.8.6 5.2-7.8 1.8 1.1-6.4 9.7-7-4.7zM42.6 92.2l2 .8-3.9 8.6 3.8 1.7 3-6.7-1-.4-1.9 4.3-2-.8 2.9-6.3 4.8 2.2-4.7 10.5-7.7-3.4zm-10.7 34l8.3.8-1 11.5-5.3-.5.2-2.2 3.1.3.7-7.2-4.1-.4-1 9.4-2-.3zm-1.1 19.5l8.4-.7.9 11.5-5.3.4-.2-2.1 3.2-.2-.6-7.3-4.1.3.7 9.4-2.1.2zM33 165l8.1-2 .6 2-3 .8 1.8 7 3-.7.5 2-8.1 2.1zm5.6 18.7l7.7-3.4.9 1.9-4 1.8 5 .5 1 2-2.9 4.1 3.9-1.8.9 2-7.7 3.5-.9-2 4.2-6-7.1-.6z"/>
  <path class="b" d="M84.8 50.6a1.8 1.8 0 10-1.1-.8 1.7 1.7 0 001.1.8zm-.2-2.8a1 1 0 01.7-.2.6.6 0 01.4.3.6.6 0 010 .4 1 1 0 01-.2.5.6.6 0 01.2 0 1.2 1.2 0 01.3 0l.7.4-.5.4a5.4 5.4 0 00-.9-.4.3.3 0 00-.3 0l.5.9-.5.3-1.3-2zM196.4 242a1.8 1.8 0 101 1 1.8 1.8 0 00-1-1zm0 2.7a5.3 5.3 0 00-.7-.6.3.3 0 00-.3 0l.3 1-.5.1-1-2.2 1-.4a1 1 0 01.7 0 .6.6 0 01.4.3.6.6 0 010 .4 1 1 0 01-.3.5.7.7 0 01.2 0 1.2 1.2 0 01.3.1l.6.5z"/>
  <path class="b" d="M195.6 243a.6.6 0 00-.4 0l-.2.2.2.5h.2a.6.6 0 00.4-.3.3.3 0 000-.2.3.3 0 00-.2-.2zM177.4 240.6l11.6-5 .6 1.2-11.7 5z"/>
  <path class="b" d="M189.8 225a95.2 95.2 0 01-93.4 0H55.9a120.3 120.3 0 00174.3 0zm-82.3 27.3l-4-1.7 2.7-6.6-6.6 5-4-1.7-1-8.1-2.8 6.5-4-1.6 6-14.5 4 1.6 1.6 12.7 10.1-7.8 4 1.7zm24.4 5.3v-15.7l21.3-.1v4.3h-17v7H149v-1.3h-8.6v-4.3h12.8v10zm46-4.8l-6.3-14.5 19.7-8.4 4 9.2-15.7 6.7 2.2 5.2zm20-8.8a2.2 2.2 0 01-4.5-.6 2.2 2.2 0 014.3-.5 2.2 2.2 0 01.2 1.1z"/>
</svg>
