<svg xmlns="http://www.w3.org/2000/svg" viewBox="0 0 192.2 157.2">
  <defs>
    <style>
      .a{fill:#231f20}
    </style>
  </defs>
  <path class="a" d="M137.3 27.4l-31 18a2 2 0 01-2.7-.7 2 2 0 01.7-2.6l29.4-17L97 4 66 22a1.9 1.9 0 01-2.6-.8 1.9 1.9 0 01.7-2.6L95.4.6a2.6 2.6 0 013.2 0l39.8 22.9a2 2 0 01.7 2.6c-.5.7-1 .9-1.8 1.3zM56.5 70.2l31.1-18a1.8 1.8 0 012.6.7 2 2 0 01-.7 2.6l-29.3 17 36.6 21.1 31-17.9a1.9 1.9 0 012.6.7 1.9 1.9 0 01-.7 2.6L98.4 97a2.6 2.6 0 01-3.1 0L55.5 74a1.8 1.8 0 01-.7-2.5c.4-.7.9-.9 1.7-1.3z"/>
  <path class="a" d="M54.6 24.5a1.8 1.8 0 012.6-.7L135.6 69V33.8a1.9 1.9 0 012-1.8 2 2 0 011.8 1.8v38a2.4 2.4 0 01-.3 1.4 2 2 0 01-2.5.7c-20-11.5-57-32.8-78.4-45.3V63a1.9 1.9 0 01-1.9 1.9 1.9 1.9 0 01-1.9-1.9V26a3.1 3.1 0 01.2-1.5z"/>
  <g>
    <path class="a" d="M15.9 149.5V127a1.6 1.6 0 013.2 0v28.6a1.4 1.4 0 01-1.6 1.6 1.5 1.5 0 01-1.4-.8L3 133.1v22.5a1.6 1.6 0 01-3.1 0V127a1.4 1.4 0 011.6-1.6 1.6 1.6 0 011.5 1zM55.6 155.6a1.4 1.4 0 01-1.6 1.6 1.5 1.5 0 01-1.5-1l-2.3-7H38.8l-2.3 7a1.5 1.5 0 01-1.5 1 1.4 1.4 0 01-1.6-1.6 1.6 1.6 0 010-.5l9.5-28.4a1.6 1.6 0 011.6-1.3 1.6 1.6 0 011.6 1.3l9.4 28.4a1.6 1.6 0 01.1.5zm-11.1-23.5l-4.7 14h9.4zM70 127a1.4 1.4 0 011.5-1.6h15.9a1.6 1.6 0 110 3.2H81v27a1.6 1.6 0 01-3.1 0v-27h-6.4a1.4 1.4 0 01-1.6-1.6zM114.4 157.2a1.4 1.4 0 01-1.6-1.6V127a1.6 1.6 0 013.2 0v28.6a1.4 1.4 0 01-1.6 1.6zM149.3 157.2a1.6 1.6 0 01-1.5-1.2l-9.5-28.5a1.6 1.6 0 010-.5 1.4 1.4 0 011.5-1.6 1.5 1.5 0 011.5 1.1l8 24 8-24a1.5 1.5 0 011.6-1 1.4 1.4 0 011.6 1.5 1.6 1.6 0 01-.1.5l-9.5 28.5a1.6 1.6 0 01-1.6 1.2zM176.4 155.6V127a1.4 1.4 0 011.5-1.6h12.8a1.6 1.6 0 010 3.2h-11.2v9.5h8a1.6 1.6 0 010 3.2h-8V154h11.2a1.6 1.6 0 010 3.2h-12.8a1.4 1.4 0 01-1.5-1.6z"/>
  </g>
</svg>
