<svg xmlns="http://www.w3.org/2000/svg" viewBox="0 0 600.1 487.6">
  <path d="M296.3 5a216.2 216.2 0 01-38.1 35l-9.9 6.5.6 4.5c.3 2.5.6 9.5.6 15.4v11h13V64.7c0-10.8.2-12.7 1.8-14.3l11.2-9.7a231.6 231.6 0 0017.3-17 120.4 120.4 0 018.8-9.3c.4-.2 1.1.7 1.5 2a17.5 17.5 0 002.6 4.8l8.7 11.8a55.4 55.4 0 009.9 11.2c3.5 2.1 3.5 2.3 5.2 20.8 1.3 13.8 2.6 21 6.9 36.2 5.6 20.3 23.2 56.5 33.9 69.7l3.4 4.3h17.9l-2.3-4a91.8 91.8 0 00-7.8-10.7c-8.6-10.2-13.8-19.3-23.5-40.8l-3.6-7.7a10 10 0 01-.9-3.7 3.2 3.2 0 00-.9-2.5c-.5-.3-1.1-1.8-1.4-3.3l-1.6-6.8a240.4 240.4 0 01-6.6-39l-.7-9-5.2-5.5A466.7 466.7 0 01301.9.8c-.9-1.6-1.5-1.2-5.6 4.2z"/>
  <path d="M317.8 112.3c.4 0 .7 1.2.6 2.7 0 2.5-3.3 5.1-32.1 24.8a9509.7 9509.7 0 00-46.6 32.2c-15.9 11.1-16.7 11.3-19.1 4.7-.8-2-3.3-7.9-5.6-12.9l-6.7-14.5-5.1-11c-8.3-18-9.7-21.5-9.7-23.5 0-1.3.4-2.5 1-2.7.7-.2 111.4 0 123.3.2zm-2.6-21.8a44.5 44.5 0 015.3 14.4c0 1-1.1 1-3.7.3-2.1-.5-29.8-.9-61.6-.9-63.7 0-61.1-.3-66.1 6.3-3.8 5-3.5 7 3.8 23.2l11.6 26c7 15.6 9.3 19.7 13.2 23.7 6.9 7 9.2 6.6 26.5-5.4l21.3-14.7 27-18.6c22.2-15.4 25.8-18 28-20.8 4.2-5.3 7.3-2.7 10.7 8.7a93.1 93.1 0 004.9 12.1c5.6 11.6 5.6 12.2-1.5 20-6.8 7.5-7.6 10.6-4 15.6 5.3 7.5 7.5 7.6 80.4 4.6 4.1-.2 5 .1 5.3 1.6.4 2-4.2 13.2-11.9 29.6-2.7 5.6-4.9 10.5-4.9 10.7l-5.1 11.1c-7 14.8-18.8 41-26.4 58.3-3.4 8-7.8 18-9.8 22l-5.7 12.5-5.6 12.3-3.4 7.7-3.9 8.7c-4.4 9.5-9.6 20.7-13.2 28.8-5 11.5-12.4 25.3-13.4 25.2-1.4-.3-1.9-63.4-.6-68.8a93.6 93.6 0 015-12.5l13.1-28.9a17784 17784 0 0126.7-59c6.9-14.9 8.1-18.7 7.3-22.5a14.4 14.4 0 00-2.7-5.7c-4.4-4.9-3.6-4.8-62.4-4.8h-55.2l-4.5 4.5c-6.5 6.5-6.5 6.6 9.8 42l15.5 34 13.8 30c.9 1.6 3.4 7.1 5.6 12.2l4.1 9.1v35.6c0 19.8-.4 35.6-.9 35.6-.7 0-13.1-24-13.1-25.5 0-.3-2.5-5.7-5.5-12l-5.5-12c0-.3-2.2-5.3-5-11l-5-11c0-.3-2.4-5.6-5.4-11.8-2.9-6.2-5.9-13-6.6-15.3-.7-2-3.5-8.6-6.1-14.3l-4.9-10.7-5.5-12-5.5-11.9-8-16.9c-4.4-9-8-16.8-8-17 0-.3-2.6-5.8-5.8-12.3s-6.9-14.5-8.2-17.8-5.9-13.4-10.3-22.5a2633 2633 0 01-18.2-38.5l-5.9-12.8c-2.5-5.4-5.4-12.3-6.5-15.5-1-3-3.3-8.8-5-12.7-5.1-11.3-5.6-10.9 14.9-11.5 9.6-.3 48.4-.6 86.3-.6 66 0 68.8 0 70.4 1.8zM304.1 44a70.9 70.9 0 004.7 5.6 13.6 13.6 0 012.7 4.3c1.4 3.6 1.2 14.8-.2 16.2-.8.8-5.6 1.2-14.8 1.2s-14-.4-14.8-1.2c-1.5-1.5-1.6-11.3 0-14a30.1 30.1 0 015.2-5.9l7.6-6.7c1.9-1.7 4.2-3.2 5.1-3.2s2.9 1.7 4.5 3.7zM297 29.4a121.5 121.5 0 01-20.7 19.7c-3.5 2.1-3.6 2.3-4 16.5l-.3 11.8 24 .2c23.3.2 24 .3 24 2.2 0 2-.6 2-94.6 2-70.6-.2-95.1-.5-96.7-1.4-3.1-1.7-4 1-1.5 4.6a41.4 41.4 0 013 5.3c1.8 4.2 9.9 20.3 12.2 24.3 1.1 2.1 2.1 4.4 2.1 5.2s.5 1.5 1 1.5c.6 0 1 .6 1 1.4a18 18 0 001.9 5.3c2.4 4.8 7.8 16.5 10.1 21.8l4.8 10.5c4.5 9.8 7.2 16 7.2 16.5s4.1 9.5 11.5 25c5.4 11.4 8.5 18.3 8.5 19.1 0 .3 2 4.7 4.4 9.7a282 282 0 019.6 21.2c0 .3 4.5 10.3 9.9 22.3 10 21.8 14.2 31 24.3 52.2l7.3 15.5 4.7 10.5 5.4 11.7a1068.6 1068.6 0 0010.4 22.8l5.7 12.5 4.4 9.5a785 785 0 017.9 18.5l7.6 17.4a14.4 14.4 0 011.4 5.3c0 1.2.5 2.3 1 2.3.6 0 .8 1.1.4 2.7l-.7 2.8 2.3-2.8c1.4-1.8 1.9-3.4 1.5-4.5-.4-.9-.6-25-.6-53.8l.2-52-4.2-9-10.9-23.9-6.6-14.3-4.4-9.7-3.9-8.7-9.1-19.8c-10-22-11.2-24.5-14.2-30.8-1.7-3.4-2.8-6.9-2.4-7.7.5-1.3 8-1.5 58.6-1.5h58v2.3a25 25 0 01-2.4 7.3l-3.9 8.4-5.6 12.3-4.1 9.2-4.4 9.7-11.1 24.3-9.5 21-7.9 17.2-5.1 11.2-.5 53.3c-.3 29.3-.6 54.6-.8 56.2-.3 3.8 2 4.6 2.8 1l1.4-4.9 7.7-18 6.1-14.5 3.9-8.8 4.8-10.5 5.4-11.7 5.2-11.5 5.1-11.3a7636.9 7636.9 0 0016.3-35.5c6.5-14 12.1-26.3 21.7-46.6a367 367 0 009.9-21.5c2.2-4.7 4-8.7 4-9l4.4-9.8 10.7-23.6 5.4-11.7c3.6-7.4 11.5-24.6 11.5-24.8 0 0-21-.3-46.6-.4-46.5-.3-49.4-.5-49.4-3.7a43 43 0 019-7c5-3.2 9-6 9-6.4 0-1.8-7.6-19.3-9.9-22.6-1.5-2.3-2.5-4.9-2.3-5.9a10.6 10.6 0 00-1.1-5A251.3 251.3 0 01324 86.8c-2.2-9.6-2.4-11.4-3.1-24.5l-.7-11.5-5.9-6.2a53.4 53.4 0 01-8.9-12.7 47 47 0 00-3.8-7c-.4-.3-2.5 1.7-4.6 4.5z"/>
  <path d="M234.2 57.3c1.8 3.5 1.6 10.5-.3 12.4-2.2 2.2-34.4 2.4-34.4.2a4.4 4.4 0 011.5-2.6c3.9-3.2 27.7-13 30.5-12.7.8.1 2 1.3 2.7 2.7zm-7.2-9.9a223.2 223.2 0 00-23.1 9.4c-10.9 5.3-33 19.2-32 20.2.2.3 16.4.5 36 .6l35.6.2v-7c0-10-2.2-27.5-3.4-27.5L227 47.4zM366.6 57c8.6 2.4 21.9 9.4 21.9 11.3 0 1.5-1.7 1.8-12.3 2.4-6.7.4-13 .4-13.9.1-3.8-1.5-5.5-15.5-1.8-15.5.3 0 3.1.7 6.1 1.6zm-17.1-12.7a2 2 0 00-.7 2.4c.4 1 1.1 6.7 1.7 13l1.6 14.6.6 3.5 32-.2c17.6 0 32.2-.3 32.4-.6.8-.7-20-14.4-29.6-19.5-14.2-7.5-35.4-14.8-38-13.2zM417.3 89c22.2.7 23.6 1.1 19.1 6a851.8 851.8 0 01-48.2 33c-5.8 3.4-7.8 3-10.8-2l-7.7-12.5a40.5 40.5 0 01-6.3-15.4c-1.2-6.6-1.1-7.2.6-8.4 2.2-1.6 19.6-1.8 53.3-.7zm47.1-8.7c-.9.5-24.7 1.1-56.8 1.2-54.7.3-55.2.3-54.6 2.3a72.7 72.7 0 011.4 7.6 67.2 67.2 0 009.5 27.2 139 139 0 017.7 13 81.8 81.8 0 005.5 9.4l2.1 2.7 3.3-3.3c1.8-1.8 8.1-6.5 13.9-10.4 5.8-3.8 10.8-7.3 11.1-7.7s4.8-3.5 10-7 10.4-7.2 11.4-8.2a6.8 6.8 0 013.3-1.8c.7 0 1.3-.4 1.3-.8 0-.5 1.2-1.5 2.8-2.3a75.7 75.7 0 007.7-4.5c8.7-5.4 9.6-5.7 8.8-3.7-.4 1 1.6-.3 4.4-2.8a45.4 45.4 0 018.3-6.4c3.1-1.6 3.4-1.6 4.6 0 .7 1 1.5 1.2 1.8.7.5-.9-3.9-6.2-5.2-6.2a7.8 7.8 0 00-2.3 1z"/>
  <path d="M439 113c1.9.7 12.5 16.2 17.3 25.3 6 11.5 12.2 26 12.2 28.5 0 3.5-2.5 4.2-16.8 5.1-9.8.5-12.8.4-15.9-.9a19.3 19.3 0 00-9.9-.8c-8.1 1-14.9.2-16.8-1.7a125.6 125.6 0 01-14.6-23c0-1.6 9.2-9.3 25-20.7a498.7 498.7 0 0117.6-12.5l1.9.6zm-.6-8.4c-6.1 5.2-9.5 7.7-10.6 7.7-.7 0-1.3.3-1.3.8 0 .4-1.8 1.8-4 3.2s-4 2.8-4 3.2c0 .5-.7.8-1.5.8s-1.5.4-1.5 1c0 .5-.6 1-1.4 1a2.2 2.2 0 00-1.8.8 35 35 0 01-6.8 5.2 75.4 75.4 0 00-7 5c-1 1.4-13 9.1-15.7 10.1l-2.7 1 3.1 2.5c3.5 2.7 11.2 13 16.7 22.1l3.7 6.3h31.1l-.4 3c-.5 3.1-.5 3.1 3.6 2.5 4.8-.7 22.7-2.3 34.4-3.2 4.9-.3 8.6-1 8.8-1.7.6-1.5-8.1-21.7-15.6-36.6a196.8 196.8 0 00-21.2-33.2l-3.3-3.8zM141.8 136l8.2 18.2c8.1 18 7.6 18.6-11 16.4-13.8-1.7-18.9-3.3-19.3-6-.2-1.4 1.9-7 4.7-12.9s5.1-10.8 5.1-11c0-1.9 6.6-10.4 8-10.4 1.1 0 2.6 2 4.3 5.7zm-12.2-10.9a242.9 242.9 0 00-20.7 44l-.6 4 3.8.5c2.2.3 6.2 1 8.9 1.6a182.4 182.4 0 0035.3 4.1 38 38 0 0011.2-.8c0-.4-2.3-5.4-5.1-11.2s-6-12.4-7-14.8l-3.8-8.5-4.9-10.7c-5.6-12-7.2-16-7.2-17.4a2.1 2.1 0 00-1.4-1.9c-1.1-.4-3.5 3-8.5 11.1zM50.5 192.3c0 .5-1.2 1.3-2.7 1.6-1.4.4-4 2.3-5.7 4.2-5.9 6.7-5.3 6.5-10.5 3.6-4.4-2.6-6.1-4-6.1-5.6 0-1.3 6.6-3.2 13-3.8 10.7-1 12-1 12 0zm9-1.6a2.5 2.5 0 01-2.6 1c-1.9-.8-.7-2.4 1.8-2.4 1.7 0 1.8.3.8 1.4zm10-1.4c-1.9 1.2-8 1.3-8 .1 0-.5 2.1-.9 4.8-.9 3.3 0 4.3.1 3.2.8zm48.5-1.6c7.7 1.2 9.7 1.8 9 2.4-1 1-9.7 1.6-22.8 1.6-9.4 0-12.1-.4-13.4-1.7-1.5-1.4-1.3-1.7 1.8-2.6 3.2-1 18.9-.8 25.4.3zM95.5 180c-4 1-9.1 1.2-18.5.8a55.4 55.4 0 00-23 2 81 81 0 01-15.3 2.6 22 22 0 00-8.4 1.6 53.9 53.9 0 01-16.7 2.3c-11 .5-13.6 1-13.6 2.1 0 .8 4.5 3.7 11 7 12.5 6.4 28 15.4 34.3 20 3.7 2.7 4.3 3 4.9 1.4s-1.3-6-5.9-14.8c-1.5-2.8.1-3.7 8.9-5.3a94 94 0 0132.3-2c6.9.6 15.2 1.1 18.5 1l29.5-.6 32.5-1 9.2-.7c.2 0-.6-1.6-1.7-3.5a16.9 16.9 0 01-2-4.9c0-2-3.3-2.6-18.5-3.2a222 222 0 01-40.5-4.5c-10.7-2.2-9.7-2-17-.3zM568.2 188.4c12.2 1.7 13.6 3.1 8 8.5-3.9 3.8-8.9 5.6-12 4.5a39 39 0 01-7.6-6.7c-5.1-5.7-5.2-5.9-2.9-6.5 3.5-1 5.9-1 14.5.2zm-36.2-8a91.6 91.6 0 00-16 2.8 61.3 61.3 0 01-27 3c-3.7-.7-15.9-.8-32-.4l-26 .7-2.2 4.6c-1.2 2.5-2 5-1.7 5.3.3.5 2.1 1 3.9 1a28.5 28.5 0 019.1 2.4c7.1 3.1 9.9 3.1 15.6.1 3.2-1.7 7.3-2.7 13.3-3.3 9.5-1 14.7-.5 32.8 3 10.8 2 12 2 14.5.6a50 50 0 0120.7-4.4c5-.3 10-.6 11.3-.8 1.9-.2 2.6.5 3.6 3.4a36.7 36.7 0 004.1 7.4l2.9 3.7 6.6-.4c8.2-.6 12.1-2.6 16.2-8.3 2.3-3.2 5.3-5.6 9.9-7.9 7.2-3.8 10-6.3 7.8-7l-9.9-1.4-20-2.6a187.4 187.4 0 00-37.5-1.5z"/>
  <path d="M172.3 210c1.6.2 3.1 2 4.8 5.6 1.3 3 2.4 6 2.4 6.8 0 1.7-4.9 11.7-6.9 14.1l-5.5 7.3c-2.4 3.3-8.6 10.8-13.8 16.7a111.8 111.8 0 00-11 14c-3.2 6.3-9.8 23.2-9.8 25 0 2.1-4.3 10.8-5.4 10.8-3.3 0-13.1-26.7-17-46.3a116.9 116.9 0 01-2.6-29.2c0-9 .3-17 .6-18 1.8-4.5 13.2-6 30.4-4 9.7 1 10.9 1 15.5-.8 8.5-3.3 10.9-3.6 18.3-2zm-12.9-7.8a35.1 35.1 0 00-7.7 3c-3.5 1.7-4.6 1.8-7.9 1-7.1-2.2-41.3-1.3-42.8 1a183.4 183.4 0 0011.6 92.8c4.7 11.8 15 32.4 16.1 32.1.6-.2 4.5-10.9 8.9-23.8 4.3-12.9 9.1-25.9 10.6-28.9s6.6-9.5 11.3-14.5c10.7-11.4 25.5-31.9 26.9-37.4 1-3.6.9-4.8-1-8.9-5.9-13.3-7.2-15.5-9.6-16.4-2.7-1-11-1-16.4 0zM478 211.5l2.5 1.1-.1 19.1a148.8 148.8 0 01-11 63.7 3.2 3.2 0 01-2.3 2c-1.4 0-5-3.7-5.9-6-.3-.9-3.6-5.2-7.3-9.6a167.1 167.1 0 01-10.6-14 244.2 244.2 0 01-18.3-37.7c-2.7-7.7-2.7-7.7-.9-11.5 2.3-4.7 5.1-5.2 16-2.7a31.7 31.7 0 0021.9-1.7 43 43 0 0112.2-3.8 9 9 0 013.8 1.1zm-16.9-5c-9.9 4.4-9.8 4.4-23.5.8-9.1-2.3-15-2.3-16.2 0-2.1 4-6.9 14.6-6.9 15.3 0 1.8 9.3 24.6 13.4 32.7a102.2 102.2 0 0016.9 27 168 168 0 0120.3 30.6c1.1 3 2.2 4.4 3.2 4.2 3-.6 12.9-29.2 16.7-47.8a246 246 0 004.1-52.6 101 101 0 00-1.2-12.8c-.5-1.3-2.3-1.6-9.3-1.6a31 31 0 00-17.5 4.1zM78.6 214.6a5 5 0 011.8 6.4c-1.2 3.3-3.9 2.8-7.6-1.4-2.5-2.8-3-3.9-2.2-5 1.4-1.6 5.9-1.6 8 0zm-12.4-8.9a45.2 45.2 0 00-7.8 4.1l-4.1 2.6 7.4 7.2c4.1 4 10.6 10.7 14.4 15 7.4 8 9.4 8.5 9.4 2.6 0-2 2.2-12.5 5.6-26.4.5-1.9-.4-2.3-8.8-4.3-10.7-2.6-11-2.6-16.1-.8zM529.5 220c0 .8-4.3 4.2-5.5 4.3-.5 0-3.9 2-7.4 4.5-7.3 5.1-8.8 4.8-8.5-1.5.3-6.8 2.2-8 12.6-8 4.8 0 8.8.3 8.8.6zm4.5-11c-2.4 1.4-5.9 1.7-17.5 1.8a58 58 0 00-15.2 1c-.4.5-.8 4-.8 7.8 0 7.7-2.2 23.4-4.6 32.6-.8 3.5-1.3 6.5-1 6.8s2-1.2 3.8-3.3c8.1-9.7 25.3-24.4 28.6-24.4.4 0 6.3-3.2 13.1-7 6.7-3.9 12.7-7 13.4-7a7.3 7.3 0 003.3-1.4c2.1-1.6 2.7-1.3-6.3-3.2a16.8 16.8 0 01-6-3c-3.7-2.8-6.6-3-10.8-.7zM334.4 234.2c2.5 1.6 0 8.4-13 36a132 132 0 00-3.9 8.6 90.2 90.2 0 01-3.9 8.7l-7.9 17a31.3 31.3 0 01-5 8.8c-1.3 0-3.8-4.4-8.1-14l-6.9-15-6.2-13.5-5.2-11.5a203.9 203.9 0 01-9.8-22.9c0-.6 1-1.6 2.3-2 2.9-1.2 65.8-1.3 67.6-.2zm-83.9-8.3l5.9 12.5 7.4 16 5 11a4137.9 4137.9 0 0017.6 38.4c2.1 4.4 5.9 13.1 8.6 19.2 2.7 6.2 5.2 11.3 5.7 11.3s1.1-.8 1.4-1.8c1-3 3.7-9.6 7.6-18l3.8-8.7 5-11c2.8-5.9 5-10.8 5-11l5-11c2.8-5.9 5-10.8 5-11l3.4-7.7 8-17c2.4-5.5 4.4-10 4.3-10.4-.2-.4-98.7-1.2-98.7-.8zM58.5 227.4c0 .6 2 3.4 4.5 6.2a67.7 67.7 0 018 12.2 62 62 0 016 18.8 7 7 0 003.7 4.5 46.2 46.2 0 016.2 4.3c3.2 2.7 9.5 5.3 10.5 4.4.3-.4-.5-2.7-1.8-5.3l-3.5-7.2c-3-6.6-13.8-21.2-22-29.6-8.6-8.8-11.6-10.9-11.6-8.3zM436.2 294.5a60.2 60.2 0 015.7 10.8 177.4 177.4 0 0013.9 27c2.9 4.7 5.3 9.6 5.4 11l.2 2.3-1.6-2.4a13.5 13.5 0 00-3-3.2 2.6 2.6 0 01-1.3-1.7c0-.5-1-2-2.2-3.4a144.3 144.3 0 01-14.5-17c-.7-1.3-2.1-7-3.3-12.7l-2.7-12.7c-.8-3.2 0-2.8 3.4 2zM411 253.6c.8 2 1.3 3.7 1.1 3.7-1.4 0-3.6-3.5-3.6-5.7 0-3.2.5-2.8 2.5 2zm-1.4-21.2c-2 5.1-4 9.8-6.8 15.7-2.3 4.8-2.4 5.6-1.2 8 1.8 3.5 6.2 9.5 11.9 15.8a68.3 68.3 0 0111.3 19.4c2.9 6.8 3.6 9.6 5.1 19.3l1.5 9.8 6.6 7.2a152.5 152.5 0 0125.5 38.3 38.3 38.3 0 003.2 7.1l3.9 7a77.3 77.3 0 0013.6 18.1c5.9 6 7.3 8.7 9.3 18 .9 4.5 2 6.8 3.8 8.2 3.2 2.6 4.5 1.6 4-2.9a13.6 13.6 0 01.2-5.5c.5-1.7 1.4-1 6 4.5 7.1 8.6 12.4 17 11.3 18-.9 1-16.2-6.4-17.9-8.7a4 4 0 00-2.8-1.4c-.9 0-1.6-.4-1.6-.8A60 60 0 00479 424a48.5 48.5 0 01-15.1-3.8c-14.4-7.6-23-11.8-28.9-14.3a69 69 0 01-8-3.7c-1.2-1-4.2-1-4.9.1-.5.8 17.9 13.3 28.4 19.3 8.5 5 22.5 10 34.1 12.3 6.3 1.3 13.3 3 15.4 4a147 147 0 0124.4 14.5c4.2 3.7 6.8 3.8 8.3.4 1.1-2.4.7-3.6-3.7-12.3a150.2 150.2 0 00-25-34.2c-16.8-17.7-22.6-28-33-59.4a185.2 185.2 0 00-15.4-28 28.8 28.8 0 01-4.1-8 135.5 135.5 0 00-17.2-32.2c-12.1-18.2-15.8-24.7-17.7-31.3-.7-2.5-1.7-5.5-2.2-6.8a14 14 0 01-.9-4 25.8 25.8 0 00-1.3-4.6l-1.3-3zM135.7 387c-2.1 12-6.4 18.3-25.7 38-13.3 13.7-15.2 14.5-11.9 4.6a58 58 0 0114.8-21.6c6.5-6.7 17.6-20.6 17.6-22 0-.6 1-2.2 2.1-3.9 3.1-4.3 4.4-2.4 3.1 5zm14-52.8c-.4 8.3-3.2 19-7.2 27.8-3.6 7.8-5.3 9.4-4 4a10.3 10.3 0 00.3-4c-.3-.3-.1-1 .3-1.8s.9-4.3 1.1-8c.3-6 2.5-13.7 6.4-22.2 2-4.5 3.4-2.6 3.1 4.2zm11.2-35.5c-.3 1.5-1.4 3.1-2.3 3.4-.9.4-1.7 2-1.8 3.6-.2 3.1-1.8 5.4-2.9 4.3-.4-.4-.2-1.2.3-1.9.6-.7 1.4-3.2 1.8-5.6s1.3-4.6 2.1-4.9a2.3 2.3 0 001.4-2c0-1.2.3-1.4 1.1-.6.6.6.7 2.2.3 3.7zm8.6-16.7a25 25 0 01-3 5.2c-1.7 2.4-3 5-3 5.5 0 .7-.4.6-1.1 0-1.2-1.3.1-4.4 3.2-7.8a6.4 6.4 0 001.9-2.8 1 1 0 011-.8c.6 0 1 .3 1 .7zm11.8-14.3a6.4 6.4 0 01-2.4 3c-1.2.4-1.1 0 .1-2.4 1.9-3.6 4-4 2.3-.6zm9.8-11.7c-4.1 6.3-6.4 8.8-7.2 8-.5-.4-.2-1.8.6-3l2.8-4.9c1.5-3 5.5-6.3 6-4.9.2.5-.8 2.7-2.2 4.8zm-.6-21.7c0 .7-1.5 4.4-3.4 8.4-3.6 7.5-9 15.3-19 27.1a95.7 95.7 0 00-21.5 39l-4.1 12c-7.2 19.2-8.8 24.6-9.4 32-1.8 20.5-7.5 32.3-23.7 49-14.2 14.7-19 23.8-21.9 41.5a180 180 0 01-11 39.2 7.4 7.4 0 00-1 3.2c0 3.4 2 2.2 5.5-3.3 2.2-3.4 5-6.5 6.9-7.4 8.1-3.9 14.8-12.7 9.7-12.7-5.7 0-4.8-7.4 2.1-16.2 2.3-2.9 9.9-11.2 16.8-18.3 6.9-7.2 14-15 15.7-17.5a49.7 49.7 0 007.3-14.9 21.9 21.9 0 01.9-4.5c.5-1.7 1.5-5.6 2.1-8.6a60 60 0 013.5-10 43 43 0 003-8 16 16 0 011.4-4.5 98.4 98.4 0 006.1-27.5 49.6 49.6 0 013.7-15c1.4-3 3.2-7.3 4-9.5a93.6 93.6 0 0119.3-31 174 174 0 0016.2-20.6c1.4-2.2 1.5-3 .5-5.3-.7-1.4-1.5-2.6-1.9-2.6-.5 0-.8-.8-.8-1.8a5 5 0 00-.9-2.8 20.4 20.4 0 01-2.4-5.4c-1.4-4-3.7-6.6-3.7-4zM537 238a79.1 79.1 0 00-8.5 5.1 385.7 385.7 0 00-36.8 36.4c-1.1 2.5-.9 3.4.9 7.1l2.4 4.5c.7.7 8.6-4 11-6.5 1.5-1.6 6.9-9.3 12.2-17.3 9.9-15.2 16.2-22.5 22.6-26.7 3.5-2.2 4.4-4.3 2.1-5-.5 0-3.1 1-5.9 2.3z"/>
  <circle cx="553" cy="236.8" r="1.5"/>
  <path d="M402.5 286.5a58.2 58.2 0 0111 28.3c1.5 10.2 2.7 12.7 10 20.4 8.8 9.1 11 12.4 11 16 0 3-3.3 7.8-8 11.6a97.6 97.6 0 00-5.2 4.5A134.3 134.3 0 01409 378a279.5 279.5 0 01-35 21c-11.4 5.3-33.9 13-35.9 12.1-2.6-1-1.9-3.8 5.3-19.3a1460.6 1460.6 0 0115.1-32.9l6.3-13.5 6-13 8.5-18.2c7-14.9 16.9-29.8 19.7-29.8.8 0 2.4 1 3.5 2.2zm-9-10.9c-1.8 3.4-5.3 9.3-7.9 13.2-5.2 7.8-8.4 14.2-20.8 41.5l-5.3 11.5-5.5 12-6 13-5.8 12.5-5.5 12-6.6 14.5c-3.6 7.8-4.8 10.1-7 13.7-1.7 2.8 0 3.2 7.2 2a207.3 207.3 0 0062.9-24 205.3 205.3 0 0044.6-35l8.8-8.6-2.7-5c-4.1-7.6-11.3-16.5-16.2-19.8s-6.2-6-6.2-12.2a64.4 64.4 0 00-21.8-45.4l-2.9-2zM202.2 299.3l6.5 9c1.8 2.4 7.1 8.3 11.8 13.1 4.7 4.7 9 9.7 9.7 11 .6 1.3 4.2 9.1 7.8 17.4 3.7 8.2 7.2 16 7.9 17a12.3 12.3 0 011.2 3c.1.5 1.8 4.6 3.8 9 14 30 15.7 34.5 12.3 34.5-2.1 0-12.9-2-16.2-3a268.5 268.5 0 01-33-12.4 14.6 14.6 0 00-3.8-1.6 25 25 0 01-5.2-3 26.6 26.6 0 00-5-3 202 202 0 01-25.8-17.8c-4.2-3.5-8-7.4-8.3-8.6s.6-6.6 2-12a73.1 73.1 0 002.6-13.5 46.6 46.6 0 013.9-16.4l4.6-10.4a35 35 0 015-8.3 39.8 39.8 0 0113.5-8.7c.8.1 2.9 2.2 4.7 4.7zm-4.3-20.3c-1.9 6.1-3.2 7.4-14.2 14.4-6.8 4.4-10 9-12.5 17.5a63 63 0 01-4.6 10.6 19 19 0 00-3.1 12 60 60 0 01-.9 9.8 82.9 82.9 0 01-5.7 18.5 6 6 0 00-1.3 3.5c.1 2.1 19.4 18.3 30.7 25.8a125 125 0 0017 10 194 194 0 0046.2 17.8 188 188 0 0028.9 4.6c.7-.2.5-1.2-.7-3a58 58 0 01-3.6-6.7 1645 1645 0 01-16.1-35l-5-11-5-11-5-11-8.8-19.5a100 100 0 00-10.2-12 105.7 105.7 0 01-21.4-30.3c-1.7-3.7-3.3-6.7-3.6-6.7s-.8.8-1.1 1.7zM457.9 384.8a44.1 44.1 0 012.6 6.5c0 1.5 4.4 8.3 8 12.4 3 3.3 3.3 5.6.8 5.6-2 0-19.3-9.2-24-12.8-6.3-4.8-6.3-6.8.4-12.6 7.1-6.2 8.9-6 12.2 1zm-6.2-18.7a1.9 1.9 0 00-1.2 1.7c0 1.6-14.7 15.7-19.9 19-2.3 1.4-4.1 3-4.1 3.4 0 2.7 19.4 16.2 32 22.3 8.9 4.4 12 5.6 18.2 7.2 4.6 1.2 4.8 1.2 7.3-1.4a8.5 8.5 0 002.5-5.8c0-2.6-1-4-6.2-8.3-7.9-6.5-11-10.5-13.2-16.6l-3.7-8.8c-2.6-5-10-13.3-11.7-12.7zM160.5 393.4l13.2 10.4c10.8 8.3 12.3 10.1 10.2 12.3a64 64 0 01-19.4 10.2 80.7 80.7 0 01-22.7 3.6 33 33 0 012.9-8.9 98 98 0 005.2-15.9c1.9-9.3 4-14.8 5.8-14.8.7 0 2.9 1.4 4.8 3.1zm-11.1-12.6c-1.6 3.5-2.9 7-2.9 7.7a18.1 18.1 0 01-1 4.2c-.5 1.7-1.9 7.1-3 12.1-3.2 13.8-10 24.4-24 37.8a49 49 0 00-10.1 11.2c.6.3 3.9-1.3 7.3-3.6a91.5 91.5 0 0124.8-11.3 814 814 0 0115-2.7c20.3-3.6 35.9-12.3 41.8-23.6 1.1-2 .9-2.4-3.3-4.2a148.5 148.5 0 01-40.7-34c-.5 0-2.2 2.8-3.9 6.4zM208.5 419.3a9.7 9.7 0 01-3.7 2c-.7 0-1.8 1-2.5 2s-1.8 2-2.4 2-4.9 2.3-9.5 5.1c-14.5 9-20 11-33.9 13-6.9 1-14.1 2.3-16 3s-5.8 1.7-8.7 2.4a43.8 43.8 0 00-8.7 3.5 17.2 17.2 0 01-5 2c-2 0-7.6 6.7-7.6 9.1 0 1.8.5 2 6.9 1.6 3.8-.3 8.2-1 9.7-2 1.6-.8 8-2.5 14.3-3.6 6.3-1.2 12-2.6 12.6-3a28.7 28.7 0 015.6-2.6c10.7-3.8 31-16.2 45.9-28.2 3.6-2.9 7.1-5.3 7.8-5.3a1.4 1.4 0 001.2-1.5c0-2-3-1.8-6 .5zM300.2 460.4c-1.6 2.1-2.5 4.4-2.2 5 .9 1.3 3-.5 4.9-4 2.2-4.6.3-5.3-2.7-1zM295.7 460c.5 2.5 2.8 2.8 2.8.4 0-1.2-.6-2-1.6-2-.9 0-1.4.6-1.2 1.6zM224.2 131c-.7 4.1-2.9 7-4.7 5.8-1.7-1-3.9-6.6-3.3-8.2.3-.8 2.2-1.3 4.5-1.3h4.1zm-4.9-12.9c-11 .1-17.8.6-17.8 1.2s1.1 2.8 2.5 5a32.5 32.5 0 012.5 4.4c0 .2 1.5 3.7 3.4 7.8 1.9 4 4.5 10 5.8 13.1 2.4 6.2 4 7.6 4.6 4.2.2-1 1.8-4 3.6-6.5a73.7 73.7 0 0011.1-20 22.7 22.7 0 012.2-5.9c.8-1.3 1.1-2.6.6-3-.4-.3-8.8-.5-18.5-.3zM282.9 118.1l-19 .2-1.5 6.5c-.8 3.6-1.2 6.8-.7 7.3.4.4-1.1 4-3.3 7.7-7.6 13-9 15.7-8.4 16.3.3.4 1.2.2 1.9-.3a1299.8 1299.8 0 0137-26c13.2-8.9 16.7-11.9 13.9-12l-19.9.3zM243 121.5c-2.3 11.8-8 25-16.2 37.5-3 4.6-5.1 8.7-4.8 9.3 1 1.6 8.6 0 13.3-2.9 3.5-2 5-4 8.1-10.6 2.1-4.4 4.8-10.7 6.1-14l3-8a123 123 0 002.8-8.3l1.9-6.2h-13.5z"/>
</svg>
