<svg xmlns="http://www.w3.org/2000/svg" viewBox="0 0 428 428">
  <defs>
    <style>
      .a{fill:#27ade3}
    </style>
  </defs>
  <path class="a" d="M269.7 148.4c2.9 28-74.8 31-73.9 52 .6 12.4 68 27.3 131.6 52.9a120 120 0 00-183.1-137c43.5-2 122.8 6.6 125.4 32.1z"/>
  <path class="a" d="M127.2 203.2C123 180.6 226.5 165.6 228 148c1.4-16.2-70-20.3-96-21.8a120 120 0 00127.4 198.8c-59.7-64-127.6-97.1-132.2-122z"/>
  <path class="a" d="M282.2 352a153 153 0 01-68.2 16 154.1 154.1 0 11154-154 153.3 153.3 0 01-9.4 53 230.8 230.8 0 0151.6 32.4A214 214 0 100 214c0 118 96 214 214 214a212.7 212.7 0 00100.8-25.3 332.4 332.4 0 00-32.6-50.7z"/>
</svg>
