<svg xmlns="http://www.w3.org/2000/svg" viewBox="0 0 599.1 146.7">
  <defs>
    <style>
      .b{fill:#231f20}
    </style>
  </defs>
  <path fill="#a41e23" fill-rule="evenodd" d="M123.4 36.7L141 47.4v58.7L70.5 57V40.9l58.7 40.7V56.3L111.6 45 70.5 16.4 35.3 40.8l94 65.2-58.8 40.7-53-36.6L0 96.6V40.7l70.5 48.9V106L11.8 65.3v24.4l17.6 12.2 41 28.5 35.3-24.4-94-65.2 11.8-8.2L70.5 0l52.9 36.7z"/>
  <path class="b" d="M219 30.3v17.3h-34.6v17.2h34.9v51.7h-57.6V99.3H196V82h-34.5V30.3zM244.2 116.5v-69h-17.1V30.4h57.5v17.3h-17.2v68.9zM321.6 76.3h5.5V47.5H316v69h-23.4V30.3h57.6v63.2h-10l12.6 23H330l-8.4-14.9zM358.2 99.4h6.2v-52h-6.2V30.2h35.4v17h-6.2v52.1h6.2v17h-35.4zM407.5 116.5V47.3h-6v-17h29.2v23.3L442 30.3h23l-11.6 23h12v63.2h-23V70.7h-11.8v45.8zM531 53.1h-23.3v-5.6h-11.3v17.3h25V82h-25v17.2H531v17.2h-57.8V30.3H531zM567.8 76.3h5.6V47.5h-11.2v69h-23.3V30.3h57.6v63.2h-10l12.6 23h-22.9l-8.4-14.9z"/>
</svg>
