<svg xmlns="http://www.w3.org/2000/svg" viewBox="0 0 391.8 123.1">
  <path d="M245 71c-6-2-15 8-14 6 0-5 0-10-5-14-5-5-12-3-12-3s6-3 6-12c1-10-11-14-11-14s7-1 12-9 0-15-1-16-3-8-24-9c-18 0-27 5-28 17-1 13 13 16 13 16-21 11-7 25-7 25-19-1-16 18-16 18s-6-7-12-7c-10-1-18 6-18 17 1 11 8 22 8 22s10 18 23 13 10-20 10-20c16 15 25-2 25-2 10 19 25 4 25 4-2 26 20 19 20 19s9-2 16-16c6-15 5-18 4-25-1-6-7-9-14-10zm-68-52c0-14 18-13 18-13s20-1 19 12-19 13-19 13-19-1-18-12zm-19 92c-12 7-19-10-19-10s-10-17 2-23c13-6 20 12 20 12s7 16-3 21zm25-13c-10 5-17-11-17-11s-7-15 3-19c10-5 17 9 17 9s7 16-3 21zm11-39c-4 0-16-3-16-11 1-8 10-12 17-11 0 0 17 0 17 11 0 10-13 11-18 11zm28 30s-9 16-18 9c-10-6-1-20-1-20s8-14 17-9c10 6 2 20 2 20zm28 13s-7 17-19 12c-11-6-4-23-4-23s8-16 20-11c12 6 3 22 3 22z" fill="#f10"/>
  <path d="M16 47h6l2-6h-6l2-7H9l-3 7H2l-2 6h5l-3 9s-1 4 0 5c2 4 4 4 7 4l9-1 1-6a19 19 0 01-4 0 1 1 0 01-1-2zM43 42a11 11 0 00-5 4l1-5H29l-6 24h12l3-12s0-2 3-3a10 10 0 016-1l2-8a14 14 0 00-6 1zM53 42l-6 23h12l6-23H53zM67 33H56l-2 6h12l1-6zM98 47c-2-5-4-5-9-6a12 12 0 00-9 4l1-3H69l-8 31h12l3-10c0 1 5 5 11 2 7-2 8-6 8-6s5-7 3-12zM83 59a4 4 0 01-5 1s-1 0-1-3l2-8a4 4 0 014-2 2 2 0 013 3c0 3-1 7-3 9zM106 34l-9 32h12l8-32h-11zM148 58l-12-1s0 3-4 3c-5 0-5-3-5-3l1-1h20a13 13 0 001-6c-1-3-2-5-5-6-3-2-10-2-10-2s-9 0-15 6c-5 5-4 10-4 11 1 1 2 8 17 7 12 0 16-8 16-8zm-17-10c0-1 4-2 6 0a3 3 0 010 3h-8a5 5 0 012-3z"/>
  <g>
    <path d="M253 42s-11 2-14 11c-3 8 5 11 5 11s6 3 15 1c10-2 11-7 11-7l-10-1a4 4 0 01-3 2c-4 2-6 0-6 0v-3h20s3-6-2-11c-4-6-16-3-16-3zm7 9h-8l2-4h6a3 3 0 010 4zM280 42l-6 23h11l6-23h-11zM294 34h-12l-2 6h12l2-6zM322 38l-4 5a32 32 0 00-12-1c-7 1-10 4-10 8-1 3 3 5 3 5s-4 0-6 3a4 4 0 001 5 7 7 0 00-5 3s-1 3 0 4c2 3 3 2 6 3l14 1s8-1 11-3 4-3 4-7-5-5-6-5h-14l-1-2 4-1a33 33 0 006 1 21 21 0 009-3 6 6 0 003-7 5 5 0 00-2-3h7l2-7-10 1zm-11 28l2 1-2 2h-8l-4-1c-1-2 2-3 2-3l10 1zm2-15c-3 3-5 1-5 1s-2-3 0-5a4 4 0 016 0 3 3 0 01-1 4zM356 42c-4 0-9 3-9 3l3-10h-12l-8 31h12l4-16a5 5 0 014-2 2 2 0 012 3l-4 15h12l3-13s2-6 1-7c-2-4-4-4-8-4zM384 49h6l2-6h-6l2-7h-11l-3 7h-5l-1 6h4l-3 12c1 5 7 6 8 6l9-1 1-6a22 22 0 01-3 0c-3 0-2-2-2-2z"/>
  </g>
  <g>
    <path d="M334 71l-2 11h-3v-5l-1 5h-3l3-11h3v5l1-5zM361 71l-4 7-1 4h-2l1-4v-7h2v5l2-5zM384 76h-3v-2a3 3 0 000-1 4 4 0 00-1 1l-1 5a4 4 0 000 1v1a1 1 0 001-1 4 4 0 000-1v-1h3a10 10 0 01-1 3 4 4 0 01-1 1 4 4 0 01-2 0 4 4 0 01-2 0 2 2 0 01-1-1 9 9 0 010-3l1-3a18 18 0 011-2 3 3 0 010-1 4 4 0 012-1 5 5 0 012 0 3 3 0 011 1 2 2 0 011 1 8 8 0 010 2z"/>
  </g>
</svg>
