<svg xmlns="http://www.w3.org/2000/svg" viewBox="0 0 78.8 20.5">
  <path d="M23 2h18v4H23zM47 15h-6v4h8c9 0 11-6 6-10l-4-5a2 2 0 01-1-2h-8c0 1 0 3 2 5l5 4c2 2 0 4-2 4zM10 2a16 16 0 01-8-2 16 16 0 00-2 7c0 10 10 14 10 14s10-4 10-14a17 17 0 00-2-7 16 16 0 01-8 2zm4 15a14 14 0 01-4 3 19 19 0 01-5-3A12 12 0 011 7a17 17 0 011-6 17 17 0 008 2 17 17 0 008-2 15 15 0 011 6 12 12 0 01-5 10z"/>
  <path d="M16 3c1 3 0 4-2 4a8 8 0 00-4-4 8 8 0 00-4 4C4 7 3 6 4 3c0 0-4 4 0 7a16 16 0 000 5s3-2 3 2c0 0 2-1 2 1h1v-2c0-2-1-3-4-4a4 4 0 010-1c3 0 4 3 4 3s1-3 4-3a4 4 0 010 1c-3 1-4 2-4 4v2h1c0-2 2-1 2-1 0-4 3-2 3-2a20 20 0 000-5c4-2 0-7 0-7zM4 9a2 2 0 01-1-3 2 2 0 002 3H4zm13-3a3 3 0 01-1 3 1 1 0 01-1 0 2 2 0 002-3zM58 11c0 4 6 8 14 8 2 0 5 0 7-2V9h-8v5h7l-6 2c-4 0-6-2-6-4 0-3 2-5 5-5h8V2h-9c-7 0-12 4-12 9zM39 15h-5a2 2 0 01-2-2V7h-7v7c0 3 3 5 7 5h7z"/>
</svg>
